/* XPM */
static char *diamond41717786983[] = {
/* columns rows colors chars-per-pixel */
"80 80 101 2 ",
"   c #505F2C",
".  c #53642C",
"X  c #576A2D",
"o  c #5A6D2E",
"O  c #5F7626",
"+  c #5E732C",
"@  c #576B30",
"#  c #5C6E31",
"$  c #5E7231",
"%  c #657D25",
"&  c #60762B",
"*  c #647B2B",
"=  c #617631",
"-  c #647A33",
";  c #657939",
":  c #075246",
">  c #0B5446",
",  c #045448",
"<  c #0B5549",
"1  c #0E5A4D",
"2  c #10564E",
"3  c #115A4E",
"4  c #075D53",
"5  c #0D5D52",
"6  c #145F53",
"7  c #185F57",
"8  c #0E6055",
"9  c #146054",
"0  c #186156",
"q  c #186058",
"w  c #046267",
"e  c #04646C",
"r  c #07686F",
"t  c #136067",
"y  c #13696F",
"u  c #076671",
"i  c #0A6773",
"p  c #066873",
"a  c #0A6A74",
"s  c #126971",
"d  c #136F7E",
"f  c #196F7A",
"g  c #0F7278",
"h  c #117177",
"j  c #12727A",
"k  c #658126",
"l  c #698325",
"z  c #6E8A24",
"x  c #69822A",
"c  c #6E8829",
"v  c #718C26",
"b  c #799729",
"n  c #6C8431",
"m  c #0A9B9A",
"M  c #189097",
"N  c #1C9199",
"B  c #23939B",
"V  c #12A59F",
"C  c #2096A0",
"Z  c #14A5A1",
"A  c #16A9A4",
"S  c #1AAAA7",
"D  c #1DACA9",
"F  c #1EBFB1",
"G  c #24ADA6",
"H  c #21ADA8",
"J  c #1FC5B4",
"K  c #22C5B6",
"L  c #22C8B7",
"P  c #22C6B9",
"I  c #23C8B8",
"U  c #4BDFCB",
"Y  c #41E6CF",
"T  c #43E6D1",
"R  c #49E6D1",
"E  c #44EAD5",
"W  c #4BEBD6",
"Q  c #45ECD8",
"!  c #4BEDDA",
"~  c #4DF2DD",
"^  c #50F2DE",
"/  c #51F3E1",
"(  c #56FAE5",
")  c #5CFCEB",
"_  c #9EFBE6",
"`  c #9DFDE8",
"'  c #9EFFF0",
"]  c #A1FAE6",
"[  c #A3FCE9",
"{  c #A9FDED",
"}  c #A6FFF2",
"|  c #ABFFF2",
" . c #AEFFF9",
".. c #D4FFF5",
"X. c #D8FFF7",
"o. c #D7FFF9",
"O. c #DBFEFC",
"+. c #E1FFFE",
"@. c #ECFFFF",
"#. c #F4FFFE",
"$. c #FEFFFF",
/* pixels */
"O O O O O $ k k $ k ; @ $ $ $ $ $ o $ # # $ ; # # % * % % v $ # # . # & & % % & ; # # $ # # # # # # ; # # # # % % % % % % % * % % ; ; - - - & & & & & O # & # = ",
"O O O O + k $ $ $ $ $ $ $ $ $ @ $ o $ + $ $ # # ; % % % % % # # # # # * % & % * # # # ; ; # # # # # # # # # # % * % * % - c c * l - - - - ; % * & % & o + $ = o ",
"O O O O O + n + n k @ $ $ $ $ $ $ $ $ $ $ # $ ; ; % % c * % # X . . # & * % & * $ # $ $ # # # # $ # # # $ $ $ * * * c * * % % * % ; - - - - % & * O % + $ + + $ ",
"O O O O k $ $ + $ $ $ $ $ $ $ $ # + $ + $ ; ; # ; c % % * % X # # # # & & * & % $ $ $ # # # ; # # $ # # # $ $ * % * * % % c * % % - ; - - - % & O O * o + $ $ + ",
"O O O O O + + - k $ $ $ $ $ $ @ $ $ $ $ $ $ # # $ % % % % % # X X o o % % % % * = = # = = # $ # # # $ $ # $ # % % % * % * % % * % - ; - - - O * O O * + $ + $ $ ",
"c c l c c * + * $ n @ @ $ $ @ n = = = = + O % O & % * % * % % * & % % v % v v % x - - x - x * x % - b n c ; c = = & = * ; # $ = $ l z l z z $ + $ $ + x k x % l ",
"c x z l z O * * $ k @ ; ; @ @ ; = * = = O O O O % % % * % % * % & % O % z v v v x x x * x x x * * c n n n n b = = - = = $ # $ $ # z z l l z $ + $ $ & x x x x x ",
"z z l c c + * + k $ $ @ @ $ @ $ * = = = O O O O O & % * * c * * % & % z z v v % x - x n x * x * n * c n n n n - & & = = # # # # o z l z z l $ $ = $ $ x x x x x ",
"c k k c x k $ $ $ + # # @ @ $ $ = = = = % O O O O * * % * % % * & % & % z z z z k x x - * x x n x * n n c n n = & - & & $ # $ # $ l z l z l $ + = $ $ k x x x x ",
"z c c c x $ k k + k @ @ ; @ @ n & & = - O O O O O % k * % * O * % & % v z z z z * x x x x x * x * c n n n n n & & & = = # # # # # z z z z l $ + $ $ $ k x k x k ",
"$ $ $ $ $ n ; @ $ $ n ; ; n ; # + $ + $ + + + + + + o # # # l l l l % f j h h g j g j j j c c l v v - & - - = = & = = = + + $ = + + + O O O z l z l z n n n - x ",
"$ $ $ $ $ $ n $ n $ $ n $ $ n # $ + $ + + + + + + @ # # o # l l l l l f g j j j j j j j j c x c c c & - & - = = = = = = + + $ $ + + k + O + z z z z z * n - n x ",
"$ $ $ $ $ n $ $ $ n $ n $ $ ; # $ $ $ $ $ & $ & + # # # # o l l l l l j j j j j j j j j j c l c * c = = & - - = = = = = $ + + + + k + O O O z z z z z * n x - - ",
"$ $ $ $ $ $ $ n $ $ ; $ ; n n # $ $ $ + + + & + + # o # # o l k l l l j j g j g g j j j j l c l v c = & = - & = = = = = & + + $ + + O + O + z z l z z x - x n n ",
"$ $ $ n $ n $ n n $ n $ ; $ $ # = = & = & o + + + + # # + # l l l l l u u r r r i p p u a l c c c c = = - & - - = $ - - + $ + + + + O + + O z z z z l n % k k l ",
"o o # @ @ # # @ @ # + n k k k x % % % % @ # X @ @ * % * * * j j j f w #.#.#.#.#.o.O.O.O.+.w d j h s * - & * & * x * % % $ = $ $ $ - $ $ $ $ + * * O * % % % % % ",
"+ o o o O o o # # o k k + k % l % l % l # X # X o * * % * k j j j j w #.$.$.$.$.....o...+.e j j j j & * & * * x x % % x = = $ $ ; # ; = = # * * * * % % % O % % ",
"+ o o o o X o # # # O k k - * k x % x % o # X # o * k * * * j j j j w $.$.$.$.$.........+.e j j j f & * * & O * x x x x = $ ; # $ $ = # = = * - * * % % % % % O ",
"+ + o O o # # # # # k k * * k k % % l l @ X # X o * * % k k j j j j w #.$.$.$.$.........+.e g j j j * & & * * l % % x % # = $ $ $ $ = # ; # * % * * * % % O % % ",
"o o o o + # o # # # $ k * * * k x l % x # # X # o * k * * * a a g s w #.$.$.$.$.........+.e g g j h & * * & * * x l % x ; $ # ; $ = = = # = * * * * * % % % % & ",
"$ $ $ $ # # o # # o $ $ $ n - + * O + + % x x n x = - - - - j j j j s T Q Q Q Q ........O.8 0 9 6 9 X # o o # x x * x * = * & * & O O O % * * x * * * * & & O O ",
"$ $ $ $ $ o o o # # k $ $ + + + + + * * x x x * x * * = * - j j d j s T ! ! ! ! ........O.5 6 6 6 9 # o X # # * * n * n & & * & % O O O O * * - n * * & O % + O ",
"$ # $ $ $ # # o @ # $ $ + n + * + k & & x n x x x - - * - * d j j j s T ! ! ! ! o.......O.5 6 6 6 6 o # # o X x x * * * * * - * + O O O O O x * * x * - O & & O ",
"; # $ $ $ o o # @ @ n k $ $ $ * + + * & x x x x x = * = = * j j j j s T ! ! ! ! ........O.5 6 6 9 9 # X o # # * * n % * & * & * % O O O O O * - * - * % O + % + ",
"# $ $ $ $ o # # o o = * & & = & k + x $ x x x x x - * = - = y y s s t T ! W W W ........O.4 5 5 2 2 o o # # # % x * * * * & * * & O O O O O % * * * * O O O O O ",
"@ # # # o $ + $ $ $ % * & % % n n n n n O * * * + $ $ = = = j j j j g } [ { [ | ] ] ` ` [ 5 6 6 7 7 $ # $ # # O * * O O + + + + O l l l l % o & = + + o o X X X ",
"o o @ # o $ $ $ $ + % & & % * n n n n n * O * O & = = = = = j j d j g ' ] ] [ [ [ ] ] [ { 6 6 6 7 7 $ + + # # % % O O O O + + + O k l l l l O o & + + X o X X O ",
"+ o o # o + $ + + + & % % * % n n n n n * O * * * = = $ - ; j j g j a ` ] [ [ ] ] [ [ [ { 5 6 6 6 3 $ o $ $ # O O O O O + + + + O l l l l l O O + + O X X O o X ",
"o o X o o + $ $ # $ & % % & % n n n n n n + O * * $ = = $ = j j j j g [ ] ] [ [ ] ] ] [ { 3 6 6 6 6 & # $ $ $ % O O & & + O o + + l l k l l + + + + + o X X o X ",
"o o + X o + $ $ $ + % % & % * n n n n ; * - O O & = $ = $ = j j j j a ` ] ] ] ] _ ] ] _ { 3 6 6 6 6 # $ $ $ $ & O O % % + o O + + l l l l l + + $ + + o + X X O ",
"X o X O X * k * * * # @ X X # # ; $ $ # X X X X X * & * = = j j j j a #.$.$.$.$.......o.O.3 6 6 6 0 x c % c c n * n n n + $ o $ $ x l k l x + $ $ & + # o # # # ",
"X X X X X k * x * k @ @ X X X # ; $ $ # X X X X X & = * = * f j j j i #.$.$.$.$.........O.6 6 6 6 0 x l c % v n n c % * $ $ $ + $ x x x x x = $ & $ + # # # o o ",
"X X o X X x x * * % @ X @ X @ # # # # # X X X . X * = * * * f j j j a $.$.$.$.$.........O.2 6 6 6 9 l l c l x n n n n c = $ $ $ $ % % c * c + = $ + = # # # # # ",
"X o o X X * * x * * @ @ @ @ @ $ # $ # # . X X @ X + * * * - j j j j a #.$.$.$.$...X.....o.2 6 0 6 0 c l x l c x n n n n $ $ $ $ = c c % c * = = + = $ o @ # o # ",
"X X X X X k * * x * @ @ X @ X # $ # # # X X @ @ X + * = = * u u e e w #.$.$.$.$.X.......O.< 1 1 1 3 x l c c x x c n n x + $ $ $ $ - % * % % - = $ = + + @ $ @ $ ",
"o o # # $ + + & & = & = = = = $ $ $ $ $ # # $ # $ g s j f u @.#.#.$.#.U R W W W ] ] [ [ | D H H H G 6 7 3 6 0 + & & & & o $ $ + $ $ $ ; ; $ ; - - - - * x - k * ",
"+ # # $ # $ & + & & = = = = = # # $ # $ $ $ $ $ $ j j j j i #.$.$.$.#.E ! ! ! ! [ ] [ ] } S S S S D 3 6 6 7 6 + + + + + $ o $ $ # $ $ $ = = - - - - - x * x - x ",
"# # # # # + + & & + = $ = = & # $ $ $ $ $ $ $ $ $ j j j j i #.$.$.$.$.T ! ! ! ! ] [ ] [ } S S S S D 3 6 6 6 6 & + + + & $ $ o $ # $ $ $ # - - - - - ; * x * k * ",
"# @ @ $ # + + & + & = = & = = $ $ # + # = # $ # $ j j j j p #.$.$.$.$.E ! ! ! ! [ ] ] [ | S S S S D 2 6 6 6 6 & O + o & o + $ $ # # # # $ $ - - - - - % - * x * ",
"# $ @ $ # & + + & + & $ = = = $ $ # + $ # $ $ $ $ j j j j i #.$.$.$.$.E ! ! ! ! ] [ [ ` | S S S S D 3 6 7 3 6 & + + & & $ $ $ o # ; # ; $ $ - - - n - c x * * n ",
"k k k l l k k k x % - n * * * = $ # # # # # # # # j j j j a #.$.$.$.$.E ! ! ! Q [ [ ] [ | S S S S D 1 6 6 6 6 * * * * * & + + $ & % % * c % # # # # # # @ # # # ",
"k c l x k k + n * * x * - x - $ $ $ # $ ; # # # # j j j j i #.$.$.$.$.E ! ! ! W [ [ ] [ } S S S S D 3 6 9 6 6 * * * * * + + + + = * % % c * # # # # # X # # @ @ ",
"k c k k x * k k % x * * x * * $ $ $ $ $ # # # # # j j j j p #.$.$.$.$.E ! ! ! Q [ ] [ ] } D S S S D 3 6 6 3 6 * * * * * + $ + + & % % * % c $ # # X # # # X @ # ",
"k k k x k k - k * % n * * n n = # $ # $ # # # ; # j j j j p #.$.$.$.$.T ! ! ! Q ] [ ] [ } S S S S D 3 9 9 0 6 * * * k * + + + + = * c * * % # # # # # X # # # # ",
"% % % % k k * * % % * * * * * $ # $ $ # # # # # # j j j j u #.$.$.$.$.R W W W R ` } } ` } D S S S S 3 9 7 3 6 * * * * * + + + + # - % * % % # # # $ + # # # @ # ",
"& O % o O + & & $ & - - - - = & = & & = # # # # @ j j j j a #.$.$.$.$.| [ { [ [ T Q Q Q ~ S S S S D 3 9 6 7 6 - - = - = $ $ # # # # # # # $ % v % l l $ ; $ $ $ ",
"O + o O + $ & & $ + & = - = = & & = $ & @ @ # # # j j j j p #.$.$.$.$.{ [ [ [ ` Q ! ! ! / S S S S D 3 6 7 3 7 - = - = = # # $ o # # # # $ # v % v l l = $ $ ; $ ",
"O o O + + & & & & & = - = & & & & & = # @ # @ # X d j j j p #.$.$.$.$.| [ ] ] [ Q ! ! ! / S S S S H 3 3 7 7 3 - = - - = $ & # # # # # # # # l v % c % = $ $ $ $ ",
"o o O O O + + & + + - & & & = & & & & = @ # # @ @ d d s j u #.$.$.$.$.} ` [ [ [ Q ! ! ~ ~ S A S S D 3 9 6 6 6 - = = = = $ # # $ # # # # @ # l l l l l = $ $ ; $ ",
"O O O X + - + + + & = - = - = & & & & & @ @ @ @ # f j j j u #.$.$.$.$.} { { { { ~ / ~ / ( S S S S D 3 6 6 6 6 = - - = = # # # # + # @ # # # c l l v % = $ $ $ $ ",
"% l % % c % % c % l           c v v v v X X X X X j j j j u ..........m V V V V Z Z Z V Z N N N N N 3 9 6 6 6 + + & + & $ + $ $ $ b b b b b # $ + + = = + # $ # ",
"l % % % % % c l c *           v v v v v X X X X X j j j f e X.........A S S S D D S S S A N N N N B 3 9 9 6 6 O & + & + + $ + $ + b b b b b # $ + + + $ $ # + + ",
"% l c % % c c * l x           v v v v v X X X X X j j j j e O.........V S S S S S S S S A N N N N B 3 0 9 9 6 + + + + + $ $ + + $ b b b b b + + + + + + # + $ $ ",
"c % % % c % l % x x           v v v v v X X X X X j j j j u O.......X.V S S S S S S S S S N N N M B 3 9 9 9 6 + & & + & $ + + + $ b b b b b + + + = = # # # # # ",
"% % % % % % c % x l           v v v v v X . X X X j j j j e +.O.+.+.+.V S A A A A A A A A N C C B B 3 9 6 9 6 + + + & & + $ # $ + b b b b b = + + + + # # $ $ + ",
"% & * * * - - - * = & - & - & o o o o o l % l l % # # # # + 1 < > 2 > P K K K K K K K K K 5 9 3 5 8 $ $ + o + n c * n * * * * % * + % & & +   # o o o   X     X ",
"& O & & % & - * - & - & - & * o X o X o l l l l k $ o o o o 9 6 6 6 3 K K J J J J J J J K 6 9 9 9 9 $ + $ + $ n n n n n % * % * * & % & & & # X # X #   . . . . ",
"& & & & & - - & & - & - & - - o o o o X l l l l l X $ $ # + 9 6 6 6 3 L K J J J J J J J I 1 3 9 6 6 # # # $ $ x n * - c % % % * % & + & & % X # X X # X . X . . ",
"O & & & & & - - - & - & & - & X o X o X l l l l l + o o + # 0 6 6 6 3 L J J J J J J J J I 1 9 6 6 6 # $ $ + $ n n n - n % * * % % & & & & O X X # X X   . X . . ",
"% O & & % - & & * - & - - & - o X o o + l l k l k # $ o # o 0 6 6 6 1 L J J J J J J J J I 5 9 6 6 8 + $ $ # $ x c n c n * % * % % & & = % O @ @ X # #   X   . . ",
"* * - * * = $ $ o = o & o & o * - * n - $ = $ & + % l % % l 0 6 9 3 1 L J J J J J J J J P 1 6 6 9 9 * * O * * l l l l l * x * * % $ $ # + + % z % l % v z z z z ",
"* * * - * $ $ $ = # & o & o & * x - - * & $ = $ $ k % % % % 0 6 9 6 1 L J J J J J J J J P 5 6 9 6 q * * * * * k l l l l * * x * * # # $ # O % % % % l v z z z z ",
"n * - x - $ = o = # o & o & & - - x - * $ = $ = = l % l % l 0 6 9 6 3 L J J J J J J J J I 1 6 6 5 7 & * * % % l l l l l * * * * - # ; # # # % z z % l z z z z z ",
"- - * - * = # = = o & o & o & * * - * - & $ = = = % % % % % 9 6 6 6 3 K J J J J J J J K I 1 6 6 9 6 * * * O O l l l l k x * x * = # # $ # # % z % z % z z z z z ",
"* - - * * $ $ + ; $ + # + + + * * * - - $ & $ $ & % % % % % 7 7 6 6 5 J J J J J F F F F K 1 0 q 7 0 * * * * * l l l l l * * - * * # # $ # $ % l l k l z z z z z ",
"- * = & = x x x c % + O O O % .       o o + + + + # # o + # 2 2 1 1 2 ( ~ ~ ~ ~ { { [ { } , : < < < * = = - * % x % l % = = = = = $ # + = # x % x x % & + + $ $ ",
"& = & = + x x x % c + O + + O   . . . . + + O o + # o # o o 6 3 6 6 6 ^ Q ! ! ! ] ] [ _ { 4 6 6 6 9 + = - & - % % x x l = = $ # $ $ + $ $ $ x % x * k + $ & # = ",
"& = = = = x l l % % O + O + +   . . . . + + o + + o # o o o 9 0 6 6 7 ^ ! ! ! ! [ ] ] ` } 4 6 6 6 9 = * & - & x x x % * $ $ $ = $ $ $ + $ = x x x * x $ + # = o ",
"$ $ $ $ = x x x % c & & O + & . . . . . % o + + + o o o $ o 6 6 9 6 6 ^ W W ! ! ] ] [ ] } 5 6 6 6 9 & & - & - % x k k x $ $ $ $ & $ $ + $ $ % % x k x $ $ + + $ ",
"k $ x $ + c x x c % + + + O + . . .     o O + $ + # o o o # 7 6 9 9 8 ( ( ( ( ( |  . .|  .5 6 6 6 0 & % - - * % k x k x $ $ ; $ $ o + + $ + % x x k k $ $ $ $ + ",
"@ $ # $ # $ + + $ + % % % % % + O + o + * & * & & $ $ $ = # 3 2 5 1 1 < : > : : > > : : : 5 2 2 3 1 l % % l % v z x x c $ $ $ $ $ & O % & & c z z l z $ + $ + $ ",
"$ @ # # # + + + + + c % % % % # o o o o * * * * * $ $ $ o & 6 6 9 9 9 9 9 9 6 6 6 6 6 6 7 6 6 6 6 6 % l % % % l l l z c $ ; $ $ = & O & & & z l l z z $ + $ + + ",
"$ # # # @ $ + + + + k * % % v + + o o + * * * = * $ + # # $ 7 7 6 6 6 6 6 6 9 6 6 6 6 6 6 6 6 6 6 6 % k k % l l l l z l $ $ $ ; $ & % & & % l z l z l O $ $ + $ ",
"# # ; # $ + + $ + + % l % % % $ X o + o * * * * & + # + $ $ 7 3 6 6 6 6 3 9 9 9 6 6 6 6 6 6 6 3 6 6 l % % k % l z l z l $ $ $ $ $ & & & & & l l z l l + + + $ $ ",
"@ $ @ @ $ $ $ $ & & % % % % % + o + o o * = - = * $ $ + # + 3 6 6 6 0 6 9 9 9 0 6 6 6 6 6 6 7 7 6 6 % % % k k l l c l l $ $ + $ = & % O & & c l l l z + + + + + ",
"$ # $ $ + * k k * * l l % % % o o X + o ; ; ; ; ; # # + # # O & o O + = * + = = k k l l % c c c z z X X @ X o $ + + & & z v v v v & & & * & O & + O + % % % & % ",
"$ $ + + + k n k % x % c % % % + X o X X ; ; ; ; ; # $ # # # + + o O O & * - * - k k l l l v c c z c @ @ @ @ @ $ + = $ = c v v v v & * & * & & + + + + % % % O % ",
"$ + + $ $ k k + x * l % c % % X o o X O ; ; ; ; ; # $ $ + # + O O + o * * * - * l l k l % c c c c c @ @ @ @ @ + + $ $ $ z v v z v & & * = * + + + O + % % & % O ",
"k $ + + + k k k % x l % % % % + O X X X ; ; ; ; ; # # # # + O o o O & * - * = - z k l l v c v v c c @ @ @ @ @ $ = = o & v z v v v * & * * * + + + + & % & & % % ",
"$ $ + + $ k k x x * % c % c v + X X X O ; ; ; ; ; $ # # # # o O O + + - * - * * k l l k % v % % c c @ @ @ @ @ $ # = = $ z v z z z * * & * & + + & + + * % % O % "
};
