/* XPM */
static char *diamond51717786984[] = {
/* columns rows colors chars-per-pixel */
"80 80 89 1 ",
"  c #505F2C",
". c #53642C",
"X c #576A2D",
"o c #5A6D2E",
"O c #5F7626",
"+ c #5E732C",
"@ c #576B30",
"# c #5C6E31",
"$ c #5E7231",
"% c #5F7830",
"& c #657D25",
"* c #60762C",
"= c #647B2B",
"- c #617631",
"; c #647A33",
": c #657939",
"> c #075246",
", c #0E5145",
"< c #045448",
"1 c #0B5549",
"2 c #0E5A4D",
"3 c #10564E",
"4 c #115A4E",
"5 c #075D53",
"6 c #0D5D52",
"7 c #145F53",
"8 c #185F57",
"9 c #0E6055",
"0 c #146054",
"q c #186156",
"w c #186058",
"e c #056167",
"r c #04646C",
"t c #07686F",
"y c #136067",
"u c #13696F",
"i c #076671",
"p c #0A6773",
"a c #066873",
"s c #0A6A74",
"d c #126971",
"f c #196F7A",
"g c #0F7278",
"h c #117177",
"j c #12727A",
"k c #638027",
"l c #698325",
"z c #6E8A24",
"x c #6A822A",
"c c #6E8829",
"v c #718C26",
"b c #799729",
"n c #6C8431",
"m c #147180",
"M c #189097",
"N c #1C9199",
"B c #23939B",
"V c #11A49F",
"C c #2096A0",
"Z c #15A5A1",
"A c #16A9A5",
"S c #1AAAA7",
"D c #1DACA9",
"F c #1EBFB1",
"G c #24ADA6",
"H c #21ADA8",
"J c #1FC5B4",
"K c #22C6B6",
"L c #42E7D2",
"P c #4AE7D1",
"I c #45ECD7",
"U c #4CEAD6",
"Y c #44ECD8",
"T c #4BEDDA",
"R c #4CF1DD",
"E c #56FAE6",
"W c #9DFAE4",
"Q c #9EFFF0",
"! c #A1FBE6",
"~ c #A2FCE9",
"^ c #ABFFF2",
"/ c #D4FFF5",
"( c #D8FFF7",
") c #D6FFF8",
"_ c #DAFEFB",
"` c #E2FFFD",
"' c #ECFFFF",
"] c #F4FFFE",
"[ c #FEFFFF",
/* pixels */
"OOOOO%%=+%$$$$$$+#$#$$:#$=&&&v####X*==&*##:$###:#######&&===&=&&&::;;;&****O$+$+",
"OOOOO=%%-%$$$$$$#$$+$$$#:=&&&&###.#=&**&#:##:#$######$+&&=&c=c&=&;;;;;**&**o+$+#",
"OOOOO%%%%%$$$$$$+#+$$#$::c&&&&#X##.*=*=&###-###$#$##$$-&====c==c&:;;;;&=*&&o$+-o",
"OOOO+%=+=%$$$$$$$$##$:$$$&&c=&X#.##=&&=*#:######$##$###&=&&=&&=&&;;;:;&=&**+$*o-",
"OOOOO%%=%%$$$$$$#$$#$$$$$&&&&&###Xo&*&=&-$$-$$#$#$#$#$-==&&&&=&&&:;;;-**+O**+$o*",
"cccll=*=%%##@##%-==-OOOO===&=&&=O&Oz&vv&=n;xx;x==;bnc:;$;*;*:###+lvlzz+$++-ll=xx",
"cxzzz=++=%#####:----OOOOO=&=&=&=O=&zzvvvx=xx=xxx==bnnnn=**-*$#$#ollzlz+-+#-xxxxx",
"zzlxx=====#####%-=--OOOOO&=&=&===&&&zvv&xx;x;x=xc=:ccnb:**$:#$#$+zlzll$-$*$=xxlx",
"lccll===+=###$#%;*;$*&OOO=&==&O=+=O&zzzzk=nx=xxx&xnccnn*****###$#lzlzz*+$$%xxxxx",
"zlccc**==*#$$@#---*;OOOOOk=&&&==&O&vzzzzkxx=xxx;xnnnnnn**-+-#$$#+zlzll++%+$xxxkx",
"$$$$$--;--;;;-:$$+$+o+++++@#@$llll&fhhjhjjjjhzxzcc*;;;*-----o*-#+++O&Olllzz;;xxn",
"-$-$---;--;;;:-$+#+$+++++##o##lllllfjjjjjjjjjxcxxc--=;;--;--**o*++=O++zzlzcx;n;n",
"$$$-$-----;;;;;$$+$+++*++#o##oklllljjjjhjjjjjlcccc*-;*-------o**+OO%O+lzzlzk;xxx",
"$-$$---;:-;;;;;$+$+$+-+++#o##ollllljjjjhjgjjjclccx*---------o**o+++O+Ozzzzlxnkn;",
"$--$%-----;;;;;$--+-*o+++o##+#lll&laisttiaasszxccl;*-*--%:;-*#*#++++O+zzzzcx&k&l",
"ooooo####+=&===l&&&&@#@o@=&===o#+#ffjmr]_rmjjgO%**=;*==x=&&=$-$-%-+%%%%=O==&&&&O",
"o+OXoooo##==&=&x&xl&#o@o@&==&=#oo#jjjhe[/rjjjj%O**=**=*x=xx&;-$#$--$:$=&;==&O&&&",
"ooo+ooo#o#===&&&l&&x#o#@#=&=&=oo#+jjjje[/rjjjjOO***&=*=&=l&x-$$:$$$--$==&==&&&&&",
"ooOo+o###o==&&=l&&x&X#X#@&&&=x##oojjjjr[/rjjjm%++**====xlx=&:$$#:$-$$-*====&&O&&",
"+oXoo##o##&====kxl&l#X#X#=&&=&##o#dsssr[/rgggjOO=*=**=*&=llx#$$:$$-+-$=====&&&&O",
":#:#-o#ooo-%-%%=%==%=xxxc;;;;;#:$$mjjjfY/90070oooooooo#x=n&c**=;*OOO&&;====***O*",
"#######o#o-=%%%+OO++xxxx&-=--:$$-$jjjjdT)67770+oo+oooo#=c=;=*===OOOOO&=n==&***O*",
"##$$-oooo#%=-+*=%O*=xxxxc;;=;*$$$$mjjmdT/97770o+ooooXo#x&;=n&*=**&OOOO;===;*O*OO",
"$:$$##o##@%%---*%=*=xx=n&;*-=;$$$%jjjjdT(67900ooo+oX#oX=n=;&*=*=*OOOOO==n=n&*OO*",
"#$$$$#o#oo-***-*O-=%lxxxx*;=;;$$:$ddddyT/66667oooooo###&=c==;**=*&OOOO=&==kOOOOO",
"##o#o#$+$$&=*&&nnnnn**=*=+--$-#o##mjjjd~!40777-:--$#$##O&*OOO+++O&&lll++*++XXX+X",
"ooooo*-#++&*&*=nnnnn&O***-$--$###@mjjjg~~77770----+$$++OOOOOO+++O&llllO+**+X+XXX",
"ooooo-o-$+*&=&&nnnnn=*&&*-#-$-oo##jjggs~!47770---:#$$##OOOOOo+++OlllllOo+++XOXOX",
"ooooo+-#$$*&&*&nnnnn;;&*=---$-###$jjjjgQ!47738---$#$$#$OOOO=+o+O+lllll+*$++XX+XX",
"ooXOo+#-#+&&*&=nnnnn==***----$o##$fjjjsW!47788:--:$$$:$OOOO=OO+o+lllll+o+++oXoX+",
"oXOXX&=x&=#@XXX#:#$#XXXXX*=--=$#$ojjjjh[/48788oo#$&&c&cn;cvn+$#$$xxxl=-++-*##o#o",
"XXXXo&====@@XX##:$##XXXXX**=**$#$#jjjjs[(44748+##$ccc&cncn==$$+$+xxlxx$*$*-@#o#$",
"OXXXo=x===@XX@@####$XXXXX-=-*=o$o#fjjjs[/3q70qo#ooxxxlxnnnnn-$$$$&c=c&++--+#o##@",
"XXoXox==x=@@@@@###$$Xo XX=*===##+#jjjjs[/37770#+$olcxzccnccn-+$+;&=c=c-*+++###o#",
"XXXXX=====X@@@X##$##XXXXX**=-=$###iitte[/12224+#ooxclxxnncnn$+$$$=c;c=-;-*$#$o#$",
"oo##$++***--*--+$$##$##$-X@@@hdjfi]]]]]U!DHGGG37700&==k+++++#$#+o$:#$$;;;;:&;k;k",
"+@%@#+++**---*-$#$#$#:$#$#@#ofjjjp][[[[T~SASSS47777===k+++++$$$o$$##$$;;;;;x=xx=",
"@$@%#*+****--*-#$$#$##$$$@#X@jjjji][[[[T!DSSSH47777&&==++++++#$$$#:#$;;;;;:xx=;k",
"#####++**+-$--;$##+$#:#$#XX@@jjjjp][[[[T~ASSSD47777==Ok++++++$+#$$#:$$;;;;;=;=k=",
"#####+*+++*--*-$$+$#$$$$#XX#Xjjjja][[[[T~SSSSD27777&=&=+++++$o$$$###$$;;n;n=x=;x",
"kxxlk=k=&=;=;n=$#$$:####$&&l&fjfja][[[[Y~SSSSD47774X XX=k===%++$+&&=c&o#o##@##@#",
"kxkzzk=kc=n&;&=$$$$$####$&&=ljjjja][[[[I~SSSSD47788XoXX=====++++;&;&c=####o#@@##",
"kllkx=k====;c=n$$######:$&&&&jjjja][[[[I~SSSSD40774XXXX*k==k+$+++&==&&-o#oo@#@#@",
"xxlkk&xk&&c==;=;$$#$####$l&&ljjjjp][[[[I~SSSSD40778Xo X=====++++*c=&&=$$####o##@",
"&&l&l&&=&&;&==&$$$$$####$&&&&jjjja][[[[PQSSSSS47777X#XX==&=&++++#;&==&##o$#o####",
"*+OO+***$+;;;;;*++$+####X#--$jjjja][[[[~LSSSSD37877&&c=;--:;#$######$$&zlll$$$$$",
"OOOXo*-*+*-*;+;$**$=@@#@@-$$+jjjjp][[[[~ISSSSD37877=;&&;:-;--##o####$#z&lcl-:$:#",
"OooOO+**+*--+;****$$##@@@+$$$hjjja][[[[~YASSSD30777&&&&-;;--oo#$######v&clc$#$$$",
"oOoOO+++++-=*--*****@#@@#$$$$jjjji][[[[!ISSSSD407q7&=x&-;-;$###+######llcll-$$$$",
"OoOO+*+*+*---*-*****#@@@@$+##jjjjr][[[[^RSSSDD40777lk&x--;;-##$######@c&lvc$$$$:",
"&&&&=c&c&c     vvvvvXXXXX:-:%jjjji/////VVMMNMN30777clcc+**+*$+$++bbbbb#$++++$+$#",
"c&&&&&clc=     vvvvvXXXXX$$$$jjjht(////SDNMNNB40777cccx***+++$+$#bbbbb$$+++#$o$+",
"&&c&&cc=lx     vvvvvXXXXX$#:$fjjhi_////SSNNNNB70770lccx++++*#+$$+bbbbb+++++#$$#$",
"&c&&c&l&xx     vvvvvXXXXX$--$fjjji_///(SSNNNNB30770lcxc+++=$+$$+$bbbbb+++++++#+$",
"&&&&&=&cxl     vvvvvXXXXX----fjjjt`_```SANBBCB60000xlxc++==*+#+$obbbbbo++#+$$#$#",
"===*==;;;**;*-*oooXol&ll&####@$++*3314,KK69969*++++$%$+x===;&=&&&O&***#o@#o  X X",
"**O**;;**;--=*=oXoXolllll#ooo#*o+$70773JJ40770+=%+$#+$#nnnn=&=&=&***&OXoXX#X....",
"O*&*&=;;-==*-;-ooooXllllko$$#o--+$07772JK97700%+O+$+##$x=nnn=&=&&*****oX#X# X...",
"*O****;==;*;*;*ooXXolllll+oooo*--+q7772KJ47770O=%%$$$$+nnncn&=&;&+=***XoXX#  X..",
"&***=**-;*;*;*-oXooolklllo$oo$-*+%q7772JJ37770%**%#+$o+xnn=c&&=&&*O-**XX#X# X . ",
"==;=;+$+$+*o**o==n;x+--$%&&&&&--*-q7772JJ27778##$#=====lllll=x===:##ooll&z&vzzzz",
"=*=;=$$$$*o*+o*=;x=;-$+-$&&l&l*--*07772JJ67778#$##====*lllll==x==###oOll&&&vzzzz",
"=;=;=-$#+$*o*o+;x;=;$--+-&&&&&*$+-07774JJ27778####=*=OOlllll=====$##$$l&lllzzzzz",
";x;=;+$+$$o*o+*=;=;=$+---&l&&&-%%=07772JJ6777w$#$#====&lllllx=x=;###$#lll&lzzzzz",
"=n;=;$+$:-+++o+===;=++-+$&&&&&--O+ww706JF68888####=====&clll&====#$#$#&llllvzzzz",
"*--*=xxxc=O+O++ ...X+o+++o#o$#++++23226R~<>>1<:--:;;*;;&&x&l---#$-#*$$x&x&&-*o$+",
"--*-+xxx&cO+OO+   ..++Oo+#oooo+O++07777YW97q77:----*=;=&x&&x$$$:-#-o$+&xlx=#+$+$",
"*--*-xlx&&O+O+O XX .++o++oo##o++++07777T~67777--:---;=;&x&xl-$-##-o-$*n==xx*$+$+",
"$%%%=xxx&c-++OO. XX *O+++o#+oo++++70077T~67777-:$;*&-;*&=l==$$$$$$+o+$&&kx=o+$$+",
"%%%$%kxxc&+O++O .   Ooo++#o###++++4q709E^57777-%;;-&**;&lklx$$$:$o+O$+n=xll-$#++",
"####$+++++&&&&&+Oooo*=-=*##+#+vvzc26222>>76332$$#+&l&&&vlzcx:$$$-**O**zlzll+$+%$",
"###$#++++$c&&&&#+o+o====*++#+#zvvc777007777777$$$$l&&&&ccllx$$$$$***&&lzllz$$%$$",
"####$$+++$&&&c&$oooo*=*==$+$+#&vzz077777q77748-##$&&&l&zllll$$:$$**&&*llzzlO$*#+",
"#####+++++=&&&&-o#Oo====*+#+$+vvzz777770777788#-+$&&&&&zlllz-$$$-*****lzlll+-$-$",
"#$###+$***l&&&&ooOoo=;-;=$$$++vvzz007770777748$-$+&&&&&lllll%$%%+**O=*lllzl+o+++",
"$$$$+x===x&l&&&Ooooo:::::$####+O++++%%%=kk&&&zccccXO@@#*-**=vzcvv**&****++O&&&&&",
"%%+++k&x=&c&&c&+oooo::::::####++O+O=;=-=llll&vvccc@@@@@$+$$+vvvzv=*=*=*+*+o&&&&O",
"$#++$kx==x&l&&&oXXOo:::::#####O+oOX==;=;llll&vnvcc@@@@@$$-$+vvzzv*=*=***+*O*O*&O",
"+++++k=xxxl&&&vooo.o:::::#####+OO++=;=;=klll&vv&cc@@@@@++*$-vzvvv=*==**o+*+&O&&&",
"+++$$kx&&=&lc&&+O.OX:::::#####OO+++;=;==lllk&vv&cc@@@@@$$$$$cvzzz*=**=***+*&&OO&"
};
