/* XPM */
static char *diamond31717786984[] = {
/* columns rows colors chars-per-pixel */
"80 80 108 2 ",
"   c #505F2C",
".  c #53642C",
"X  c #576B2D",
"o  c #5A6D2D",
"O  c #5F7626",
"+  c #5E732C",
"@  c #576B30",
"#  c #5C6E31",
"$  c #5E7231",
"%  c #647C24",
"&  c #60762B",
"*  c #647B2B",
"=  c #617631",
"-  c #647A33",
";  c #657939",
":  c #075246",
">  c #0B5446",
",  c #045448",
"<  c #0B5549",
"1  c #0E5A4D",
"2  c #10564E",
"3  c #115A4E",
"4  c #075D53",
"5  c #0D5D52",
"6  c #145F53",
"7  c #195E54",
"8  c #0E6054",
"9  c #136053",
"0  c #046267",
"q  c #04646C",
"w  c #07686F",
"e  c #136067",
"r  c #13696F",
"t  c #076671",
"y  c #0A6773",
"u  c #066873",
"i  c #0A6B74",
"p  c #126971",
"a  c #136F7E",
"s  c #196F7A",
"d  c #0F7278",
"f  c #117177",
"g  c #12727A",
"h  c #668226",
"j  c #698325",
"k  c #6E8A24",
"l  c #69822A",
"z  c #6E8829",
"x  c #718C26",
"c  c #799729",
"v  c #6C8431",
"b  c #0A9B9A",
"n  c #189097",
"m  c #1C9199",
"M  c #23939B",
"N  c #12A59F",
"B  c #2096A0",
"V  c #14A5A1",
"C  c #16A9A4",
"Z  c #1AAAA7",
"A  c #1DACA9",
"S  c #1ABEAE",
"D  c #1EBFB1",
"F  c #24ADA6",
"G  c #21ADA8",
"H  c #1FC5B4",
"J  c #21C6B6",
"K  c #22C8B7",
"L  c #22C6B9",
"P  c #23C9BA",
"I  c #29CEBE",
"U  c #2CE0D7",
"Y  c #2EE4DD",
"T  c #37E2DB",
"R  c #38E4DF",
"E  c #4BDFCB",
"W  c #41E6CF",
"Q  c #4BE6CE",
"!  c #44E5D3",
"~  c #4CE6D4",
"^  c #45EAD5",
"/  c #4CEAD5",
"(  c #45ECD8",
")  c #4BEDDB",
"_  c #52E1D0",
"`  c #4DF1DE",
"'  c #51F2DE",
"]  c #4DF3E1",
"[  c #51F3E1",
"{  c #56FAE5",
"}  c #5CFCEB",
"|  c #9EFBE6",
" . c #9DFDE8",
".. c #9EFFF0",
"X. c #A1FAE6",
"o. c #A3FCE9",
"O. c #A9FDED",
"+. c #A6FEF1",
"@. c #ABFFF2",
"#. c #AEFFF9",
"$. c #D4FFF5",
"%. c #D8FFF7",
"&. c #D7FFF9",
"*. c #DBFEFC",
"=. c #E1FFFE",
"-. c #ECFFFF",
";. c #F3FFFF",
":. c #FEFFFF",
/* pixels */
"O O O O O $ h h $ v # $ $ $ # $ # # $ + # $ # ; # % % * % % $ # o # # + & * * & # $ # # # # # # # # # $ # # + % % * * * x % * % l - - - - ; & & & & % o + $ o $ ",
"O O O O + h $ $ $ $ $ $ $ $ # $ + $ $ $ $ $ # ; # * x % z * # # . # # % % % % & # ; ; # ; # # # # $ # # # + # % % v % * % % * * % - ; - - ; % & & % & o $ + $ + ",
"O O O O O $ l $ h h @ $ $ $ ; $ + # # + ; ; # # ; % % * % % @ @ o . # & & * % * $ # $ $ # # # # # $ # # $ # $ * % * * * * * % * % ; ; - - ; % % & & % + + $ $ $ ",
"O O O O + h $ + $ $ $ $ $ $ $ @ $ $ # # # $ # ; ; % % x % % # @ # # # + % % & * $ # $ $ # # # ; $ # # $ # # # % * % v % % % z % % - - - - - % * % % & o $ + $ $ ",
"O O O O O $ + - h $ @ ; $ ; $ @ $ + + + $ $ $ # $ % % % % x # o o o o % * & % % $ $ $ ; $ $ $ # # ; ; $ $ # # % * % % * * % * % % - - - - - O % + O & & # = & $ ",
"z z j z k * + * $ v # # $ @ @ v + - $ - O O O O % % * * * * * % & % % x x j x x v l * * - l * l % - v v v z v * & + - * ; - $ $ $ k j k j k $ $ $ + & l l * j l ",
"z l k j k + * * $ h # # # @ @ $ - + - = O O O O & % % * % % * * % O % % % x % x * l l * l l * l * * c v v v v - - & = & # # $ $ o j k k z j $ $ = = $ h j l l l ",
"k k j z j * * + h $ # # # @ @ v - + - = O O O O O % % * % % * * & & % x x x % x v * l v l * l l * * v v z v x ; & & = - # # # $ o k j k j k + $ $ + $ l l l h l ",
"h h z z h $ $ v $ = @ # # # ; $ = = - + % O O O O % * % h * & * % & % % k k k k l l * l l l * * % z v z v v z & - + - + # # # $ @ z k j k j + $ = $ + l h l l l ",
"k z z h k h + $ h + @ @ # # @ v = & - - O O O % O * h * * % * O & % % x k k k k * l - l * l l v * * v * v z - - & & + + # # $ # $ k j k j k $ $ $ + $ l l l l l ",
"$ $ $ $ $ v v $ $ $ v v $ ; ; @ # + $ + o + + + + # o # o + j j % k % s g g g f f f g g f z z j x z - - - - = = = - - - + + + + + O + O O + k k j k x v * v l v ",
"$ $ $ $ $ $ $ $ v $ $ $ v $ v $ + $ + $ + + + + + o # # # @ j j k % k s g g g g g g g g g j z z z z - * - - = = = = # - + + + + + + h + O O k k k j j l v - - v ",
"$ $ $ $ $ $ v v $ v v ; ; v $ @ $ + $ + + & + + + # # o # o j j % z j g g g g f g g g g g z j z z z - - + - + = = = = = + # o + + h + O O O k k k k k l v v - v ",
"$ $ $ v # v $ $ $ $ $ $ $ ; v $ $ $ + $ & + $ + + $ # # # o j j j j h f g g f f g g f f g z l z * x - - - & - + = - = = + - + + + + O + O O j j k j z * * v v * ",
"$ $ $ $ $ $ v ; v $ $ v $ v ; @ = $ $ = $ & + + + $ o # $ # j h j h j t w w w w i u u t i z j z z % + - - - - - = $ - = + # + + + + O + + O k k k k k l * % * % ",
"o o $ @ @ @ @ # @ @ $ h h $ h h j % % % @ @ @ X o % * * * * g g s s 0 ;.;.;.;.;.&.*.*.*.*.q a g s s % & & * * l % - * % $ - # - $ $ - $ $ $ * * * * & % % % % % ",
"+ o o + X o o $ @ $ & % * * % h % j l % $ o o o @ * * h * * g g g f q :.:.:.:.:.$.$.$.$.=.q g g s s & & & * & h * j l l = $ = $ $ $ $ $ $ $ * * * * * % % % % % ",
"o + + X + X @ o $ @ * * * h * h l % % j # o o o o h % * h % g g g f 0 ;.:.:.:.:.$.$.$.&.=.q f g g g * & * * * h % l % v = $ # ; ; $ $ - $ - * * * * * % % % % % ",
"o o o + o $ $ @ @ $ h + * * % h j j % l @ o o o o * * h O h d g g g 0 :.:.:.:.:.$.$.$.$.=.q g g g g & * * & & l l l j % $ $ $ $ $ $ $ $ $ = % * * * * % % % % % ",
"+ o O X o @ o $ $ @ h l % * * h % l j % @ @ o @ o * * * l + d i i i 0 ;.:.:.:.:.$.$.$.$.=.q d f g f * & & * & l l % % l $ $ ; $ $ - $ + $ ; - * % * % % % % % % ",
"# # # # $ @ $ o o @ $ $ + = * & & & * & - * z * l - * * * - g g g s s W ^ ( ( ( $.$.$.$.*.8 9 9 9 9 o @ o # # * * z * * - * & * * O O O O % * * - * * % + & O + ",
"; # ; # $ + # o $ @ + l = = = & & & & * * z v z l = = - - - g g g g p W ) ) ) ) $.$.$.$.*.4 6 6 9 9 # o # o # * * * v * & - & * * O O O O % v * * * - % O O O + ",
"$ # # $ $ # o # @ + $ h - + = & & & & & l l * l l * * - * $ g g g g p ! ) ) ) ) &.$.$.$.*.8 6 7 9 9 # o X X # l v * * z & % * & * O O O O O * * * * v * O O O % ",
"# # $ $ $ @ + o $ $ $ $ - $ = & & * & * l l v l l - = * - * g g g g r T ) ) ) ) %.$.$.$.*.8 7 5 9 9 o # # o o * z * * * & * & * & O O O O O * * * * * * + & O + ",
"; # $ $ $ o # # o o = & = & = & & * * O l l l l l * = = = - r p r p e ! ) / ) / $.$.$.$.*.4 5 5 5 5 X X X o o * - * - * * * & * % & % % % O * - * * * % O O & O ",
"# # o # o $ $ + $ $ % * % & & v v v v v & % & * & g g g g i :.:.:.:.-.+.o.O.o.O.X.X. . .o.L I I P I 6 6 6 9 7 O * % O O & + + + & % % % % % + + + + + X o X X O ",
"o o o o o $ $ + $ + % & % % * v v v v v & * % & * g g g f i :.:.:.:.;.o.X.X.o.o.o.o.X.o.O.H H H J L 6 6 6 6 7 O % O O O + O O + O % j j j % & + + + O X o X o X ",
"o o o o o + $ $ $ # % % % * % v v v v v % & & & & g g g d i :.:.:.:.;.o.X.o.o.o.X.X.o.o.o.H H K H L 6 6 9 6 3 O O O O O + o + + O k j j j k & O + + O O X X o o ",
"+ o + o o + $ $ $ + & % % % % v v v v v ; - & % * g g g g i :.:.:.:.;.o.X.X.o.X.X.X.X.X.o.H H H H H 5 9 7 7 7 & O O O & + + + + + % j j j j + + + + $ o o X X X ",
"o o X O o + + $ # $ % % % & * v v v v v & * % & % g g g g i :.:.:.:.;.X.X.X.X.X.| X.X.X.o.S H H H H 6 9 3 7 3 % O & O * + + O o & j j j j % $ + + + + o X o + X ",
"o X X X X * l l * * o @ X X @ # ; $ # # o X . X X g f g g i :.:.:.:.-.;.:.:.:.:.$.$.&.&.*.' ] ` ` ] 3 7 7 7 7 z v v v z $ + o + $ % l l j l = + & $ + # o # # # ",
"o X X X X % * * * l X @ @ @ @ # ; $ # # X X X X X f g g g a :.:.:.:.;.;.:.:.:.:.$.$.$.$.*.) ) ) ) ] 1 7 7 7 7 v v z * z $ $ # $ = j l l j l $ & $ + + # # # o o ",
"X X o X o $ h $ h h X @ X @ @ $ $ # # $ X X X X X g f f f i :.:.:.:.;.;.:.:.:.:.$.$.$.$.*.) ) ) ) ] 3 7 9 9 9 v v z v v $ + $ $ & % * x * * $ & $ $ & # o # # # ",
"X o X X X h l l v h @ @ @ @ @ $ # # # # X . X X X g f a g i :.:.:.:.;.;.:.:.:.:.$.$.$.$.*.) ) ) ) ` 1 6 9 9 7 z v v z v $ $ $ + ; % x * * x = & = + $ # o o o $ ",
"X O X X X h h l $ h $ X @ X X $ # $ # # . X X X X y w w t q :.:.:.:.-.;.:.:.:.:.$.$.$.$.*.` ' ` ' ' < 1 1 1 3 v v z z v $ + $ $ $ % * ; x * ; = + = & # $ $ $ = ",
"@ X @ $ $ $ * + + $ $ $ + $ $ $ = # $ + p a f s q -.;.;.:.;.~ ~ / / _ E ~ / / / X.o.X.X.@.H H H H L A G F F F 2 7 7 6 6 $ # $ + $ $ ; # $ $ * ; - - ; % * * - * ",
"$ @ $ $ @ + + + + + $ $ $ l $ $ # # # $ a f g d y ;.:.:.:.:.^ ) ) ) ~ ^ ( ) ) ) X.o.X.o.O.J J H H H Z Z A C A 3 7 7 6 6 # # $ + # $ $ # $ $ ; ; - - - z * * * l ",
"@ $ # # $ + $ + + + $ h $ - $ $ # = o $ g g g g y ;.:.:.:.:.( ) ) ) / ^ ` ) ) ) o.o.o.X.O.J H H H H Z Z C A A 3 6 6 6 6 + $ $ # $ $ ; # $ - * * * ; ; * * * * v ",
"@ $ # # @ + + + + $ $ $ + $ $ $ o $ = # g g g g y ;.:.:.:.:.( ) ) ) / ! ) ) ) ) o.X.o.o.O.J H H H J Z Z A Z A 2 6 6 6 6 # $ + # # $ $ $ $ $ - - ; ; * * z * * * ",
"$ @ $ # $ h + + + $ $ h - + + $ $ $ # + g g g f y ;.:.:.:.:.( ) ) ) ~ ^ ( ) ) ) X.| o.o.O.K H H H J Z Z Z Z A 1 6 6 6 6 $ + # $ $ $ # $ $ $ ; * * ; - z * * v * ",
"h h j j h l + h h $ h l * l * $ $ $ $ ; a a d d u ;.:.:.:.:.( ) ) ) ~ T ) ) / ( o.X.o.o.@.J J H H J A Z Z Z A 2 6 6 9 6 + + + + = % % % x * # # # # # @ # # # # ",
"h h z h j h h l l h v - l - - $ $ # $ $ a d g g i ;.:.:.:.:.( ) ) ) / Q ) ) ) ^ o.o.o.X.@.J J J H H C Z Z Z A 3 6 9 6 6 + + + + * * * * % * o # # # # o o @ o @ ",
"h v h h h l + h h $ h v - l - $ $ # # $ g g g g t ;.:.:.:.:.( ) / ) / ^ ) ) ` ^ o.X.X.o.O.J J H H J Z Z Z Z A 2 9 9 6 6 + + + + = % % % x * - # # # # # @ # # # ",
"h h h h l h + l l h $ l l * l $ $ # # $ g g g g i ;.:.:.:.:.( ) ` ` / ^ ) ) ) ^ X.o.o.X.@.J H H H H Z Z Z Z A 1 9 9 6 6 $ + + + - * % * % * $ # # o # @ o # @ # ",
"% % j j j h * h h h l l l l v $ $ $ $ $ g g a d t ;.:.:.:.:.Q ~ / / ~ Q ^ / ) Q  .o.o.o.@.P L H L J A Z Z Z A 1 6 6 9 6 + + + + # - * * % % $ = # $ + # # # # # ",
"O O O X + + + + + + $ $ $ h $ $ + $ + * g g g d i ;.:.:.:.:.:.:.:.:.-.@.O.o.o.o.^ ( ( ( ] A Z Z Z Z Z Z Z Z A 1 6 6 6 6 $ # o # # # # # $ $ % % % % % $ $ $ # $ ",
"O + + + + & + + + + h $ $ $ $ $ + h + $ g g g g t ;.:.:.:.:.:.:.:.:.-.O.o.X.o.o.( ) ) ) [ Z Z Z C A Z Z Z Z A 1 7 7 6 6 # o $ # # # # # $ # x x x % x = $ ; ; $ ",
"O + O o O & & + $ $ $ $ v $ h + $ + + + g g g g i ;.:.:.:.:.:.:.:.:.;.O.o.o.X.o.R ` ) ) ] Z Z Z A Z Z Z A A A 2 6 6 6 7 $ # $ o # # # # # # % x % x % $ $ $ # $ ",
"X X O O O + + & + + + & = & = & + + * * d g g g i ;.:.:.:.:.:.:.:.:.;.+. .X.X.X.^ ) ) ) ` A A A C Z Z C Z Z Z 1 7 6 6 6 o # o $ # # # # # # % x % % x - $ $ $ $ ",
"O O O X & - + + + & - - = = = & * + + + g g g g u ;.:.:.:.:.:.;.;.;.-.@.+.@.@.O.` [ [ ` { Z C C C Z Z A A A A 3 9 7 6 6 + # o # + # # # @ @ z % x x % + $ $ ; $ ",
"% j % % % l l j % z           x x x x x g g g d y $.$.$.$.$.W ! ! ! ! b V V N N V V V V N L L H J L n n m n m 1 6 9 7 9 $ = = & + c c c c c # $ + + = + + # $ # ",
"j j % % l % j l z %           x x x x x g g g g q %.$.$.$.$.^ ) ) ) ) V A Z Z Z A A Z A C H H H H H m m m m M 3 9 9 9 6 $ o = # $ c c c c c # $ + + + $ $ # + + ",
"% z % % z % j l l l           x x x x x g g g g t *.$.$.$.$./ ) ) ) ) V Z Z Z Z Z Z Z Z C J H H H L m m m m m 3 9 9 6 6 $ & $ $ $ c c c c c + + + + + $ + # $ $ ",
"% % z % % z % z l %           x x x x x g g g d q *.$.%.%.%.^ ) ) ) ) V Z Z Z Z Z Z A Z Z H H H H H m m m m M 3 9 9 6 6 + o $ $ + c c c c c + + + + + # # $ # $ ",
"z % % % % * z * j l           x k k x x g g d d q =.=.=.=.=./ ) ) ) ) V Z C C Z C C N C V H H H H L m B B B M 6 9 9 6 7 o # + $ $ c c c c c + + + + + $ + $ # $ ",
"& & * * * * * - * - & - & - = o o o o o l l h h h 2 > > 3 > ` ) ) ) ' L L J J K J K J J J J H H H P 8 8 5 6 5 v v l v l * % % % % & & & & + @ @ # # @   . . . . ",
"& O & & & & - * & - & - & & - o X o o o j j j j j 9 9 6 6 2 ) ( ) ) ` D L H H H H H H H L L H H H P 1 6 6 6 6 l v v v l & % * % % & & + & & @ o @ o # . . . . . ",
"& & & & & - * - - - - & - * & o o o o X j h j j j 9 3 6 7 1 ] ) ) ) ` L L H J H J H H H L J H H K P 3 9 6 6 7 v v l v l * * % * % & & % & & o @ o # o . . . . . ",
"O % & % % & - & & - & - - & & o o X X @ j j j j j 9 6 6 6 1 ] ) ) ) ` L H H H H H H H J L J H H H L 5 7 6 6 7 z v v v v h O * % % & & & % & o @ @ o o   . . . . ",
"& & & & & - - & - * - & & - & o o X @ @ j j h j j 9 9 6 8 1 ] ) ) ) ` L L H H H H H H H P J H H H L 5 6 6 9 9 h l v l v * * h O % & & & O O o o @ @ # . . . . . ",
"% - * * * & $ $ + $ + + $ + + * v $ h v - + $ $ & 7 6 6 7 1 Y U U U T K H H H H H H H H L +.o.O.o.O.3 9 9 9 3 j j j h h l h $ h * $ $ $ o + % k % % x x k k k k ",
"& - * * - $ $ $ $ o + + $ + & - l $ v $ $ + + $ = 7 6 6 6 2 Y U U U U L H H H H H H H H L ..o.X. .o.3 9 9 9 7 k j j j k + l $ h - # # # # O k % % % % x k k k k ",
"* * * - * & $ + $ + o & o & + * l v l - $ + $ * + 6 6 6 6 1 Y U U U U L H H H J L H H H L  .O.X. .O.1 9 9 9 1 j j j h h $ h h l * $ # # # # % k k % % x k k k k ",
"- * - v - $ o $ $ $ & o & o & - $ l - v + $ $ + $ 9 6 6 6 1 Y U U U U L H H H H H H H H P o.X.X.X.O.5 6 9 9 9 j j j l h h l h $ - $ # # # # % k % k % x k k k k ",
"* v - - - = $ $ $ $ + + + + + % * * - * o + + + + 7 7 7 7 2 T T T T T L H H H H S H S D L +.O.o.O.O.2 9 7 7 7 j j j j j * * * * * $ # # # # % j j j j x x k k k ",
"= - & = & j j l z % & + + O O . . .   o o + + + + # o o + # 2 2 1 1 2 [ ` ] ` ` O.o.O.O.@., : < : : & - * & & l l l % j = = $ $ = $ + $ $ $ l % % l % = $ $ $ + ",
"= = = = & l l l % v + O O + O   . . . . + + + + + # o # o # 7 3 6 9 6 ' ( ) ) ) X.o.X.X. .8 6 6 6 6 = - - - * * l % h h = = $ = $ $ $ $ + $ l % % l * & + $ + $ ",
"= & = & = l h l z % + + + O +   . . . . + + + + o # # o # + 9 9 6 6 6 ' ) ) ) ) o.X.X.X.+.4 6 6 6 6 = = & = * l l % l * $ $ $ $ $ $ $ $ $ & l l l l * # $ + $ + ",
"+ $ $ + & z l l % v O + O + & . . . . . O + + + & # o @ o o 9 7 6 6 5 ` ) ( / ) X.X.X.X.+.5 6 6 7 9 * & - - & % % l h l ; $ $ $ + $ # + + + * * h l l & + $ + $ ",
"l - $ $ = l l l v j O O + + O   . . .   + + + + o o # # o # 7 9 7 9 8 } { { { { @.@.#.@.#.5 6 6 7 7 & % - * * % l l l % $ $ $ $ $ + # O $ $ * j * h * & $ + $ + ",
"@ $ # # $ + + + + + % j % % % # o o + + % * * - * $ # & $ o 1 5 5 1 1 1 < > < < > : : : < 5 2 2 1 1 j % % j % z k z z z $ $ ; $ $ & & & % & x j h k k + $ $ + $ ",
"# # # # # + + + + + l % j % % + o o o o & & * & & $ + # + + 6 7 6 6 9 9 9 3 6 6 7 7 7 9 6 6 6 6 6 6 % j % % % j h k h z $ $ $ $ + & & & O % j x k j k $ $ + $ $ ",
"# # # # $ $ $ + + + h l % z % + o + + o - & * * * $ + + # + 7 7 9 9 9 9 6 9 6 6 6 9 6 6 6 6 6 6 6 6 % h % j % k j k j j $ $ $ $ $ & & & & % j k j j k O & o = $ ",
"# # # $ @ + + + + + % % % z % $ o o o o * * * * & $ # + + # 7 7 9 3 9 7 6 6 9 9 6 6 6 6 6 6 6 7 9 6 h % h % % j j j j k $ $ $ $ = & & % % & j j k j j + $ + = + ",
"$ # # # @ + + + & & * h % % % + + o + o * * - - * $ + $ o + 6 6 3 9 6 7 6 9 9 9 6 6 9 9 6 6 7 7 9 9 % j % h h j j j k j $ $ $ + = & % O & & j j k j j + $ $ $ + ",
"$ $ $ $ $ l h * * % h h % % % o X o o o ; - ; ; ; $ # # # + X + + + + = * $ * $ h h h h h j z z k j X X @ @ X = & + & + x x x x x & & & * & & $ + + + % % % % % ",
"$ $ + + + h v l % * % z % % % + X o o o ; ; ; ; ; # # # = $ o & O o O - - * - * h h j j j z z z z z @ @ @ @ @ $ = = & $ x x x x x & * & * & & & & + & % % & O % ",
"$ $ + $ $ h h $ l l % z % z % + X o X X ; ; ; ; ; $ # # # # o O o O O & * - * - h h j h % x z z z z @ @ @ @ @ + = # $ $ x k k k x & * & = * & o + & o % % % % % ",
"+ + + + $ h h h % l j % % % % + X o O X ; ; ; ; ; # # $ # o & O O + & * - * * = k h h j j x z x z z X @ @ @ @ $ = $ $ $ x k z x x * & * * & & & & + & % % O % % ",
"+ + + + + h h h l * % j x % % * O . O X ; ; ; ; ; # # # $ o + + o O + - * - * * h j h j % z z % z z X @ @ @ @ $ # & $ = k x x k x & * & & * & = + & + % & O % O "
};
