/* XPM */
static char *diamond21717786984[] = {
/* columns rows colors chars-per-pixel */
"80 80 128 2 ",
"   c #505F2C",
".  c #53642C",
"X  c #576C2D",
"o  c #5A6D2D",
"O  c #5F7625",
"+  c #5E732C",
"@  c #576B30",
"#  c #5C6E31",
"$  c #5E7232",
"%  c #647C24",
"&  c #60762B",
"*  c #647C2B",
"=  c #617631",
"-  c #647A33",
";  c #657939",
":  c #075246",
">  c #0B5446",
",  c #045448",
"<  c #0B5549",
"1  c #0E5A4D",
"2  c #10564E",
"3  c #115A4E",
"4  c #075D53",
"5  c #0D5D52",
"6  c #145F53",
"7  c #185D55",
"8  c #0E6054",
"9  c #136053",
"0  c #046267",
"q  c #04646C",
"w  c #07686F",
"e  c #136067",
"r  c #13696E",
"t  c #076671",
"y  c #0A6773",
"u  c #066873",
"i  c #0A6B74",
"p  c #116971",
"a  c #136F7E",
"s  c #196F7A",
"d  c #0F7279",
"f  c #117177",
"g  c #12727A",
"h  c #658126",
"j  c #6A8325",
"k  c #6E8A24",
"l  c #67822C",
"z  c #698229",
"x  c #6E8829",
"c  c #799729",
"v  c #6C8431",
"b  c #12878F",
"n  c #13888F",
"m  c #178794",
"M  c #138A92",
"N  c #1A8D96",
"B  c #0A9B9A",
"V  c #169092",
"C  c #1B9197",
"Z  c #1C9199",
"A  c #22949B",
"S  c #22999F",
"D  c #0DA19B",
"F  c #13A59E",
"G  c #1E95A3",
"H  c #2096A0",
"J  c #14A5A2",
"K  c #19A7A5",
"L  c #16A9A4",
"P  c #1AAAA7",
"I  c #16AFA8",
"U  c #1CACA9",
"Y  c #0CBAA6",
"T  c #13B3A6",
"R  c #15BDAD",
"E  c #1BBDAE",
"W  c #1BBEB1",
"Q  c #24ADA6",
"!  c #21ADA8",
"~  c #14C0AD",
"^  c #1CC2AE",
"/  c #14C0B0",
"(  c #1FC5B4",
")  c #21C5B5",
"_  c #22C9B7",
"`  c #22C6B9",
"'  c #24CABA",
"]  c #29CDBE",
"[  c #2BD1C2",
"{  c #3CE6CC",
"}  c #2CE0D7",
"|  c #2EE4DD",
" . c #37E2DB",
".. c #38E4DF",
"X. c #4BDFCB",
"o. c #41E5CF",
"O. c #4BE6CE",
"+. c #44E6D4",
"@. c #4CE6D4",
"#. c #45E9D5",
"$. c #4CEAD6",
"%. c #45EBD8",
"&. c #4BEDDB",
"*. c #52E1D0",
"=. c #4DF1DE",
"-. c #51F2DE",
";. c #4EF3E1",
":. c #52F3E2",
">. c #56FAE5",
",. c #55F8E8",
"<. c #5CFCEB",
"1. c #9EFBE6",
"2. c #9DFDE8",
"3. c #9EFFF0",
"4. c #A1FAE6",
"5. c #A3FCE9",
"6. c #A9FDED",
"7. c #A6FEF1",
"8. c #ABFFF2",
"9. c #AEFFF9",
"0. c #D4FFF5",
"q. c #D8FFF7",
"w. c #D6FFFB",
"e. c #DBFFFC",
"r. c #E1FFFE",
"t. c #ECFFFF",
"y. c #F4FFFF",
"u. c #FEFFFF",
/* pixels */
"O O O O O + + l $ $ $ $ $ $ $ # # # + # ; # ; # # % % % x % # # . # o + % % * & # $ $ # # # # # # # # # # + # % z * z % * z % * * - ; - - ; % & & % & o $ + $ + ",
"O O O O h + l $ $ l $ $ # $ $ $ + = # $ + ; $ # ; * x % % % # # # # # * * & * % $ $ # ; $ # # ; # # $ # # # + j z % * * % * z % % - - - * ; & & % & % $ + $ + # ",
"O O O O O + l $ $ l @ $ $ $ $ # $ # # # # $ ; ; ; % % % % x . o . . # * & * & % $ $ $ $ ; # # # # $ # $ # # $ * * % * z % % * % % ; - - ; ; % * & & & + $ + $ $ ",
"O O O O h $ $ * l $ # $ $ $ $ $ # + # + $ $ # # $ x % x % % # o # # # + % % & * $ $ $ $ # # # # # # $ # # $ # % z * * % % v % % % - ; - ; * % % % % & # + $ + $ ",
"O O O O O $ $ $ l $ @ ; $ $ $ # + + # + $ $ $ $ $ % % % x % # # o o o O * % & % - $ $ ; $ = $ $ # # ; $ # $ $ z * % % % - % % % % - - - - - & & O & & & $ $ = $ ",
"x x j j j l * + $ l # @ # # @ l + - - = & O O O & * * % % * & * & & O k x x x x * v * * * * * - x - v v v x v & & - - & ; # # ; o k k k k j & = & o & z z % * x ",
"x j j x k * * * = l ; @ # # @ l + - = = O O O O % * % * % % * % % & % k k k k k * * * * * v % x - - x x v x v * - + * $ # # # $ # j j k j k = # & $ $ z z z x * ",
"x j x k x O + * l @ # # # # @ $ - + - - O O O O O % * % % * * * % & % j k k k k x * v x v * l z % x v v v v v - & & + - # # # # $ j k j k j $ & $ $ & * z z % x ",
"l k x x k l l + + + # # # # # ; = = - & O O O O O * * % * % * O & % & x k k k k h l l * * l z l * x v x v x v & & - & & $ # # # $ j k j k k $ $ $ $ = z z z z z ",
"k k k x k $ + $ + h @ @ # # @ l = = = - O O O O O % h * % * % * % & % k k k k k * l l l l l l * * * v * x v v = & & - + $ $ $ # $ j j x j k + + $ $ = z z z z l ",
"$ $ $ $ $ $ $ v l l $ ; ; $ ; # # $ + $ + + + + + $ $ @ @ $ j j k % % s g f f g g g g g g j j x c * - - ; - & $ ; ; + $ + + # + + O O + O O k k k k k * - x - x ",
"$ $ $ $ $ $ $ v $ $ ; l $ ; l $ + + + + + + + + + o @ o $ @ j j % % % s d g g g g g g g g x x j x x + & - - - - + = + - + + + + + O + % O + j k k j k v v - v l ",
"$ $ $ $ $ $ $ $ $ l ; $ l $ l # + $ + $ + + $ $ + # # # @ $ h j k % j g g g g f g g g g g x x x x % - - - + - $ $ $ - + + + + + + O + + O + j k k k k * - v x - ",
"$ $ $ $ $ l v $ $ $ ; v ; ; ; $ $ $ $ + + $ + & & @ o # X $ j j % k j s g g g f g g g g g x z x x x * - - + + - - - $ - + $ + + + & & O + O k k k j k * v * - v ",
"$ $ $ $ $ $ l $ v $ $ $ $ $ $ $ = $ $ $ + + & & & # # # $ @ j z k x % w w w w w y u t w t z x x x % - & - & - - $ = ; - + $ + $ + + + + & O k k k k k * % * % % ",
"+ o $ $ # # @ # # $ l l l l l l j % % % o o @ @ o * % * * l g g s s e y.y.y.y.y.e.e.e.e.r.0 g g s s * & & * & x * % % * $ $ $ $ $ = = = = = * * * * * % % % % % ",
"o o o o o o o # o # O * h O * j % j j % $ @ # @ o * * * * O g g g g 0 u.u.u.u.u.0.0.0.0.r.q g a s g * * * & * z z z % * ; = $ $ $ $ ; $ ; + * * * * * % % % % % ",
"o + o O + o o # # # l * * l * j j % % j # o o o o * l % l l g g g g q y.u.u.u.u.0.0.0.w.r.w g g g s * & & * & % z % x % = $ $ $ $ + $ $ $ $ * * * * * % % % % % ",
"o o o o o o # # # # O l * * % h % % z z @ @ @ o o * h * O h d g g g q u.u.u.u.u.0.0.0.0.r.q g g g g + * * & * z z z % z # ; ; $ $ ; - $ ; $ * * * * * % % % % % ",
"o + + o + # # o # # l O % * * h z j j % # o @ @ o * * h l O i i i i 0 y.u.u.u.u.0.0.0.0.e.q d d d f + * & * & z % z z z $ $ $ $ $ $ $ + + $ * * * * % % % % % % ",
"$ $ $ # $ o # o o $ $ l = = = & * & & & % x * x l g g g g r u.u.u.u.y.o.%.%.%.%.0.0.0.0.e.( ' ` _ [ 5 9 6 6 6 * * v * * * = * * & O O O & * * * * * * O & O O + ",
"# $ $ # $ # o # # o + $ $ = = * + & * & * v x * l g g g g p u.u.u.u.u.o.$.&.&.&.0.0.0.0.e.W ( ( ) ' 8 6 6 6 6 l v * v * & = & * * O O O O % v * * * * * O & * + ",
"$ $ $ # $ $ # o # o l $ * $ & & * + & & x * * x l g g g g p u.u.u.u.y.o.&.&.&.&.w.0.0.0.e.R _ ( ) _ 9 9 9 6 6 l * * % * * * * & O O O O O O * * - * * * & + O & ",
"# ; $ $ $ o o # # + $ + - $ - & + * * * * x - x l g g a g p u.u.u.u.u.o.&.&.&.&.q.0.0.q.e.W ( ( ^ _ 8 9 9 9 6 * * x * * * & * * * O O O O O * * * * v * O & O O ",
"# # $ $ = @ # o o o = = = & = & O - + O l l l l l r p p p e t.y.y.y.t.O.&.&.$.$.e.0.0.0.e.R ( ) ( _ 4 6 5 5 6 * * * j z * * * & % O O % O O * * * * % O O O O O ",
"# # # # o $ $ $ = # % % & % & v v v v v g g g g p u.u.u.u.t.{ +.+.#.+.7.4.6.5.6.4.1.2.2.7.%.&.;.=.=._ ' [ ' [ 5 7 7 7 7 + + o & & j % j j % + + & + & o o X X X ",
"o o @ @ o + + $ $ $ % & % % * v v v v v g g g g i u.u.u.u.y.#.$.$.=.@.2.4.4.4.4.5.4.5.4.5.%.$.&.$.=.( ( ( ( ( 6 7 9 9 7 + + & & & % j j j j O o $ + & X o X O X ",
"o + o o o $ $ $ $ # % % % * % v v v v v g g a g i u.u.u.u.y.#.=.=.&.#.5.4.5.4.5.4.5.4.5.6.%.$.&.$.=.( ( ( ( ( 6 7 9 7 9 + + & o O j j j j j & O + + o X O o X X ",
"o o o o o & + $ $ $ % & % % % v v v v v b a g g i u.u.u.u.y.+.&.&.&.#.5.5.5.5.5.1.4.4.5.6.%.&.&.&.=.( ( ) ( _ 3 9 6 6 3 + + + + + % j j j j + + + + + o o o o X ",
"+ o o o o & $ = + $ % & & % & v c v v ; g s g g i u.u.u.u.y.#.=.&.=.#.5.4.4.4.4.1.4.4.1.6.%.&.&.&.&.E ^ W ( ( 5 6 6 6 7 o O O o & j j j j % + $ $ & + o o o X o ",
"o X X X X * * * * * o X o X @ # ; # # # g g g g i u.u.u.u.y.%.%.&.&.+.y.y.u.u.u.0.0.0.e.e.+.&.&.&.&.&.=.=.=.:.3 6 6 7 7 + + o $ = * j z j j & $ $ & + o # # o # ",
"o X X X X % * z * * o o X X @ # ; # # # g g g g f u.u.u.u.y.#.&.&.&.#.y.u.u.u.u.0.0.0.0.e.#.&.&.&.&.&.&.&.&.;.3 6 6 7 7 + $ $ + = z z z z z $ $ & $ = o o # $ # ",
"X X X X o * * l l * @ @ @ @ @ $ # $ # $ g g g g i u.u.u.u.t.#.&.&.=.+.y.u.u.u.u.0.0.0.0.e.+.&.&.&.&.&.&.&.&.;.3 6 6 6 6 = # = # $ * z z z z = $ $ & $ o # o $ o ",
"X X X X X h * * * * X X X X @ @ # # # # a g g g i u.u.u.u.y.#.$.&.$.+.y.u.u.u.u.0.0.0.0.e.#.$.&.&.&.&.&.&.&.;.6 6 6 9 9 $ + o = = z z j z z = & & $ & # @ $ @ # ",
"X X X X X h * l l * @ @ @ @ X $ # # # # w w w w 0 u.u.y.u.t.{ #.$.%.{ y.u.u.u.u.0.0.w.w.e.%.-.:.=.=.;.=.=.=.-.> 1 1 1 3 & = = $ = * l - z z = = & = $ # $ @ @ $ ",
"+ + # # $ + + & & + = & $ = - d s s s t t.y.u.y.y.@.@.$.$.*.y.y.y.t.t.O.@.$.$.$.4.4.4.4.8.B L L L J ( ( ^ ( ` ! ! ! ! Q 2 7 3 6 7 $ = $ = $ - - - - - * * * l * ",
"X $ @ $ # $ + + + & = = + $ * g g g g t y.u.u.u.u.#.&.&.$.@.u.u.u.u.y.+.&.&.&.&.4.5.4.5.7.J U U L U ) ) ( ) _ L P P P U 2 7 7 6 6 $ $ # # = v - - - - l l * l * ",
"$ @ # # # & + & & + $ = - $ $ g g g g y y.u.u.u.u.#.&.&.=.@.u.u.u.u.u.+.%.=.&.&.5.4.5.4.7.J U U U L ) ( ( ( ) P P P P ! 3 6 6 6 6 $ $ $ $ = ; - - - - l l * - l ",
"# # # # # + + & + + = & - + - g g g g y y.u.u.u.u.%.&.&.&.@.u.u.u.u.y.#.&.&.&.$.4.5.4.2.8.J U L P U ) ( ( ) ) P P P U U 3 6 6 6 7 # $ $ # $ * - - - - - * l * * ",
"# # # # # + & + & + = = $ = = g g g g y y.u.u.u.u.%.&.&.&.@.u.u.u.u.y.#.%.&.&.&.5.4.5.2.7.G U U ! K ( ( ( ( ( L P P L U 3 6 7 6 e $ # $ $ $ - - v - v * l * * l ",
"l h j h j h l * * * z * * v l g g g g i y.u.u.u.u.%.&.&.&.$.e.0.0.0.e.+.&.&.&.#.5.5.4.5.8.M N N N N ) ) ) ( ) U P P K U 2 6 6 6 6 j * * j * o $ # o o # # @ @ @ ",
"h l j h z h h * j * * l - * l g g g a u y.u.u.u.u.%.&.&.&.$.e.0.0.0.e.#.&.&.&.#.5.4.4.5.7.b Z Z Z N ) ( ( ) ) L U P U U 5 6 6 6 6 * % z * j # # # # # # # # # # ",
"j h j z z h * h * h * l l - * s g g d u y.u.u.u.u.%.&.&.&.*.e.0.0.0.e.o.&.&.&.%.4.5.5.4.8.b Z Z Z N ) ) ( ( ) P P P P U 1 9 6 6 6 j z * j * $ o o # # o @ # # @ ",
"h j h j j * h * * * v * * x * s g g g u y.u.u.u.u.%.&.&.&.&.e.0.0.0.e.#.&.$.=.%.5.4.5.5.7.M Z Z Z N ) ) ( ( ) P P P U U 1 9 6 6 6 * j z * j o # # # # @ o # # # ",
"% % j % z % * * h l * l * l l g g g g u y.u.u.u.u.O.$.@.@.$.e.0.0.e.e.+.%.$.$.@.2.5.5.5.7.M Z Z Z N ' ` ) ) ` P P U P U 1 6 6 6 7 - * * % * # + o # # o # # # # ",
"& + O o + & & & + + - $ - $ - g g g g y y.u.u.u.u.u.u.u.u.t.Y ~ ~ R T 9.5.5.5.5.+.%.%.%.;.M Z Z Z Z P L P K L P P L P U 3 6 7 6 7 # # # $ # % k j j j = # ; # $ ",
"& O O O o & & & + * $ + $ * $ g g g g u y.u.u.u.u.u.u.u.u.t.~ ( ( ( ( 7.5.5.4.5.%.%.=.&.;.m Z Z Z Z U P U P U L P U P U 5 6 7 6 7 @ # # # # x % j x j = $ $ $ $ ",
"o O o O + $ & & + - O - $ $ = g g g g y y.u.u.u.u.u.u.u.u.t.R ( ( ( R 7.5.5.5.4.%.=.&.&.:.m Z Z Z A K P L U K U P K P U 2 6 6 6 7 # # # # # k j x % x $ $ $ $ ; ",
"O o O O + + + O & & - + - = = s g g g t y.u.u.u.u.u.u.u.u.t./ ( ( ) / 7.2.5.5.5.%.$.&.&.=.m A Z Z Z P U U P P L P U U U 5 6 6 6 6 @ # # # # j j k k j = = $ $ $ ",
"o O O o O - + + + + + - = = & s g g a w y.u.u.u.u.u.y.y.y.t.R ^ ^ ^ E 8.5.8.6.6.=.:.-.:.>.b Z N N N L L L I L U P U U U 1 6 6 6 7 o # # @ @ x j j j x $ $ = $ $ ",
"% k % % % x x % % % .         g g g g t 0.0.0.0.0.+.+.+.+.@.=.=.=.=.,.B J J F F J J J F F ' ' ` ` ` ' ` ' ( ( N N N Z Z 1 6 6 6 7 c c c c c # + + + $ $ $ o & o ",
"% % % % % x * x * x .         g g g g w e.0.0.0.0.@.&.$.&.$.=.&.&.&.=.J U U P P U L U U L ` ) ) ( ( ( ( ( ( ( Z Z Z Z Z 6 9 6 6 7 c c c c c = $ + $ + # $ o $ $ ",
"% x % * x % x % h z           g g g g t q.0.0.q.0.#.&.&.&.&.&.%.&.&.=.F P P P P L P P U L ) ) ) ) ( ( ( ( ( _ Z Z Z Z A 1 9 9 6 7 c c c c c + + + + $ # $ + o $ ",
"% % % % % x % x z z           g g g d t e.0.0.q.e.#.&.&.&.&.&.$.&.&.-.F U K K U U P ! K K ) ) ) ) ) ( ( ) ( ` Z Z Z Z A 3 6 9 6 7 c c c c c $ + $ + + $ $ # $ $ ",
"x % % % % * x % z j           s g g f w r.r.r.r.e.&.&.&.&.&.,.:.-.-.,.F K L L L L J J L K ' ' ) ` ` ( ( ( ( _ Z G H S A 3 9 9 6 7 c c c c c + + & + + $ + $ $ $ ",
"% * * * * * - - * - & - & - = X o o o o > > > 3 > =.&.&.&.&.F L L L K ' ' ' ) ) ) ' ) ) ) L K P L L ) ( ( ( _ 5 5 5 5 8 * O * * % & & O * & . # o @ o     .   . ",
"& & & O & - & - - * - & - & - o o X o o 7 3 9 9 2 ;.&.&.&.-.F P P P L ) ` ( ( ( ( ( ( ( ) F K K U L ` ( ( ( ` 6 6 6 6 9 * * % * % + & & O & . # @ o + . o . . . ",
"& & & % & * - & - & & - & - & o o X o X 6 6 9 6 2 &.&.&.&.-.F P U P L ` ( ) ( ( ( ( ( ) ) L U L U L ( ( ( ( ` 1 3 6 6 7 * % * % * % O & & O # . o o #     . . . ",
"% O & & & * - * * & - & & - = o o o o X 9 6 6 3 5 ;.&.&.&.&.J U P ! K ` ) ( ) ( ( ) ( ) ' L P U U L ( ( ) ( ' 5 9 6 6 6 O l * % * & & & * & o # @ @ #   . . . . ",
"+ O & & & & * - = - & - - = & o o X o o 6 6 6 9 1 ;.&.&.&.-.J U P K L ) ( ( ( ( ( ( ( ( _ L P P U L ( ( ( ( ` 2 6 6 6 9 l O % * % + % + O & o o # . # . . . . . ",
"* - * v - + $ $ $ + + o + o + * - l * - 6 6 6 6 1 | } } } } K P P P L _ ( ( ( ) ( ) ( ( ' K U U U D 5.6.6.4.7.1 6 9 9 7 * l * * * ; # # # # % % % x % k k k k k ",
"- * - * * $ $ + $ $ + + + + + * l - - l 6 6 6 7 1 | } } } } K U P U L _ ( ( ( ( ( ( ( ( ) K L L U J 2.5.5.5.6.1 6 6 9 9 l O O l * # + # + O k k % % k k k k k k ",
"* - * - * $ $ $ + @ + + + + + - - l - * 6 6 6 6 < | } } } } K P P P L _ ( ( ( ( ( ( ) ) ' K L U U J 7.4.5.2.6.6 6 6 9 8 l l l O - # $ $ # # k % % k % k k k k k ",
"* l - * - + $ + $ $ + + + + + * - l * - 6 6 6 6 5 | } } } } K P P P L ` ( ( ) ( ) ( ) ) ) K U K U J 3.4.1.1.6.5 9 6 9 9 O $ l l - # # $ # # % k % % k k k k k k ",
"* - - * - $ $ + $ $ # + + + + * * * * - 7 7 7 7 2 +. . . . .L U P P L _ ) ) ^ ( ^ ( E W W L P P I F 6.5.6.6.6.1 6 7 7 7 * * - * * $ # $ # # % j % j j k k k k k ",
"- - + = * z z z x % + + + O O . . . . . O o + + o 2 2 < 1 < Z Z A C n >.=.=.=.=.5.6.6.6.9.W _ _ _ ] , > : > > * z j % z = = $ $ $ = $ $ $ $ j % x l % = $ & # + ",
"& = = = + l z z j x O + O o O . . . . . o + + + o 6 6 6 6 6 G Z C Z M -.#.&.&.=.4.4.4.4.3.W ( ( ) ' 8 9 6 6 6 * z * j * = = = $ = $ $ $ $ = % x z % * = $ $ + $ ",
"= & & = * x z z j j + + + O +   . . . . o + + + + 7 6 6 6 9 G Z C C N -.$.=.&.$.5.5.5.4.7.W ( ( ^ ] 8 9 6 6 9 h j * z j = # # = # $ o & $ = % * z z % o $ $ $ + ",
"$ $ $ $ $ l h x z z + O + O %   . . . . O + + + + 3 6 6 6 5 G Z Z Z n -.$.&.&.$.4.4.4.4.7.E ( ( ( ' 8 3 6 6 6 * z h z * $ $ $ $ $ $ o + $ + % % * j z = o = # + ",
"$ l $ $ $ x j l z j + + O + +   . .   . O o + + + 7 6 7 9 8 H Z A A V <.>.>.>.>.8.8.9.9.9.( ' [ ] ] 1 1 9 6 6 j z z z j $ $ $ ; $ + $ + $ $ % x z h * & = # & $ ",
"$ $ # # $ + + + + + % j % % j # + + o + * * & * * + # $ $ o 6 5 5 5 5 < : > < , > : > > : 6 < 2 1 1 % h % j % k j j j z $ $ $ $ $ & & & & & x j j k k + $ + $ + ",
"$ $ # @ $ + + + + $ z % j % % o o o o o & * - * * $ & # + + 6 6 6 9 9 9 9 9 6 6 6 6 6 6 6 6 6 6 9 9 % j % % % x j x k z $ ; $ $ $ % % & & % j k k j j $ $ $ = # ",
"@ # # $ # $ + + + + % h % j j # o o o + * * * * & $ $ o + o 7 7 6 6 6 6 6 6 6 6 6 6 9 6 6 6 6 7 9 6 h h % % j j k k j k ; $ $ $ $ & & % & & j k j j k O $ & $ & ",
"# # # # $ + + + $ + j * j % % $ o + o o * & * - * o $ $ $ # 9 3 6 6 6 6 6 6 9 9 6 6 6 6 6 6 6 9 9 6 % h j % % j j j j k $ $ $ $ $ & & & & % k j k j j + $ $ & $ ",
"$ # # # @ + + + & & % % % % % + + o o o = * - * * = $ $ $ + 9 7 5 6 6 6 6 9 9 9 9 6 9 6 6 6 7 7 9 3 % h % h h j j j j k - $ $ ; $ & & & & & j j j k k + # + $ # ",
"$ $ $ $ + h l * * * j j x % % o o + o o ; ; ; ; ; # # # # o + O + O + $ + $ - * h h h h h k x x k k X X @ X o $ + + + + k k k k k % & % * & & + O & o % % % % % ",
"$ $ + + + h l l * % % x % % % + o X X o ; ; ; ; ; # # # # $ o & O + O * - * - * j h j h % x x x k x @ @ @ @ @ $ $ $ $ $ k k k k k * * & * & & + + + & % % % % O ",
"+ + + + $ l l O % l % x % x % o o X . O ; ; ; ; ; $ # # $ # o O o O X * * - * - j j j j k x x x x x @ @ @ @ @ $ + $ = = k k k c k * & - & * + & + & + & O & % O ",
"+ + $ + + l h l l * * % % % % + O o o X ; ; ; ; ; # # $ $ # & o O + + * - * - - j j j j % x x k x x @ @ @ @ @ + = & $ o k k k k k * & * * & & $ & & & % % % % % ",
"+ + + + + h l h % x j j k % k + . o . O ; ; ; ; ; # # # # o O & o O + - * - l O j j j h % x x k x x @ @ @ @ @ $ $ $ $ = x c k k x * * & = * & $ o & + % % % O % "
};
