/* XPM */
static char *diamond11717786984[] = {
/* columns rows colors chars-per-pixel */
"80 80 130 2 ",
"   c #52642C",
".  c #576C2D",
"X  c #5A6D2D",
"o  c #5F7625",
"O  c #5E732C",
"+  c #5E782C",
"@  c #576B30",
"#  c #5B6E31",
"$  c #5E7232",
"%  c #647C25",
"&  c #60762B",
"*  c #637B2B",
"=  c #617631",
"-  c #647A33",
";  c #657939",
":  c #075246",
">  c #0B5446",
",  c #065448",
"<  c #0B5449",
"1  c #0E5A4D",
"2  c #10564E",
"3  c #115A4E",
"4  c #075D53",
"5  c #0D5D52",
"6  c #145F53",
"7  c #195E55",
"8  c #0E6054",
"9  c #136053",
"0  c #056267",
"q  c #04646C",
"w  c #07686F",
"e  c #136067",
"r  c #13696E",
"t  c #076671",
"y  c #0A6772",
"u  c #076872",
"i  c #0A6B74",
"p  c #116971",
"a  c #136F7E",
"s  c #196F7A",
"d  c #0F7279",
"f  c #117177",
"g  c #12727A",
"h  c #668226",
"j  c #6A8325",
"k  c #6E8A24",
"l  c #668029",
"z  c #688129",
"x  c #6E8829",
"c  c #6B8330",
"v  c #12878F",
"b  c #13888F",
"n  c #178794",
"m  c #138A92",
"M  c #1A8D96",
"N  c #0A9B9A",
"B  c #169092",
"V  c #1B9197",
"C  c #1C9199",
"Z  c #22949B",
"A  c #22999F",
"S  c #0DA19B",
"D  c #13A59E",
"F  c #1E95A3",
"G  c #2096A0",
"H  c #13A5A2",
"J  c #19A7A5",
"K  c #16A9A4",
"L  c #1AAAA7",
"P  c #16AFA8",
"I  c #1CACA9",
"U  c #0CBAA6",
"Y  c #13B3A6",
"T  c #15BDAD",
"R  c #1BBEAE",
"E  c #1CBEB1",
"W  c #24ADA6",
"Q  c #21ADA8",
"!  c #14C0AD",
"~  c #1CC1AE",
"^  c #14C0B0",
"/  c #1FC5B4",
"(  c #21C5B5",
")  c #22C9B7",
"_  c #22C6B9",
"`  c #24CABA",
"'  c #29CDBE",
"]  c #2BD1C2",
"[  c #3CE6CC",
"{  c #2CE0D7",
"}  c #2EE4DD",
"|  c #37E2DB",
" . c #38E4DF",
".. c #4BDFCB",
"X. c #41E5CF",
"o. c #4BE6CE",
"O. c #44E6D4",
"+. c #4CE6D4",
"@. c #45E9D5",
"#. c #4BEAD6",
"$. c #4DE7D8",
"%. c #45EBD8",
"&. c #4BEDDB",
"*. c #52E1D0",
"=. c #4DF2DD",
"-. c #51F2DE",
";. c #4EF3E1",
":. c #52F3E2",
">. c #56FAE6",
",. c #55F8E8",
"<. c #5CFCEB",
"1. c #9EFBE6",
"2. c #9FFBE9",
"3. c #9EFFF0",
"4. c #A7F7E5",
"5. c #A2FAE6",
"6. c #A3FCE9",
"7. c #A9FDEE",
"8. c #A5FEF1",
"9. c #AAFFF2",
"0. c #AEFFF9",
"q. c #B0FFF6",
"w. c #D5FFF5",
"e. c #D9FFF7",
"r. c #D5FFFA",
"t. c #DBFFFC",
"y. c #E1FFFE",
"u. c #ECFFFF",
"i. c #F3FFFF",
"p. c #FEFFFF",
/* pixels */
"o o o o o + - $ - + $ $ $ $ $ $ # & $ O $ $ # ; # % % x % x # X X X # % & * & % $ $ ; # $ # # # # # # # # # $ % z % * % * x % * % ; - ; * ; & % & & % O # & $ $ ",
"o o o o o + + + - + $ $ $ $ $ $ # # # # $ $ ; $ # - % % % x # #   # # & & % * * # $ # # ; # # # ; # # # # # # % % % % * % * * % % - - ; * ; % * & & & X $ & # $ ",
"o + o o o - + - + + $ $ $ $ $ # $ $ $ O $ $ $ $ $ x x % * % @ # # # # % % * % & $ $ $ $ # # # # # # # # $ # $ * c - % x x * % * % ; - - ; ; % % % & % # $ # # $ ",
"o o o o o + = = + - $ $ # $ $ $ & # # # $ ; $ $ $ % % x % % @ # #     - & * % * $ $ $ $ # # # ; # # # # $ $ $ % % % % * % % % x % ; - - * ; % % & & % $ & # & & ",
"+ % o o o + = & $ c $ $ $ $ $ # $ $ # # $ $ $ $ $ % % % x % # # X # X % * % % % = $ $ = $ $ $ # # ; ; ; $ $ $ % % % % % * % % % % - ; - - - % & % O & & $ # = # ",
"j k k x x & & * + $ # # # # $ $ = * & - o o o o * % % % * * % % O % % k x j x x z c - * * z * c * - c c c c c % * = - & ; $ # ; $ % k k x k $ & & X = z z z c % ",
"x x j j x & & * + + # # # $ # $ = = = = o o o o & % % % % * * % % % % % k k j k z * c z c * * z * * x x c x c - = = = & $ # # # O k k k % k $ # & & $ z z z z x ",
"j k j x j & * & + + # @ $ $ $ $ - = = = o o o o % % % - % % * * % O % k k k k k c z * * c z z z * x c c x c c ; & = = $ $ $ # $ O % k % k k $ & $ # = % z j x % ",
"x j x j x * & & - + @ $ @ # # $ = * = = o o o o o h % * * l % & & % & x k k k k * z z c * z z z * x c c c c c * & = = & # $ # $ # j j j k k # & O $ $ l l l l l ",
"j x j x x & * * * * $ $ $ # $ $ = = = * o o o o o * l % % % & % % & % j k k k k l z z * z l c * x * c x x c c = & & & = $ # # # X k k k k j O & $ $ $ z z x h l ",
"= $ $ = $ = = - $ + ; - - - ; $ $ O # O O O O $ O . # # $ X g d f p s s g f g g d g g g g g d g s s = = ; - = = = = = = O $ $ $ O O O & % O j j k k k z c c c c ",
"$ $ $ = $ = - = - - - - - - - $ $ $ # O O O O $ O # # X # # g g g s s s g g g g g g g g g g g g g g * = - - = = = = = = O O O $ O o & + O o k k k k j c c - - c ",
"= $ = $ = ; = = - = - - - = - O O $ O O & & # $ O # # # # # g g g g f f g g g g g g g g g g g g g g = = - * = = = = = = O $ O O O + & o + o k k j k j z - c c c ",
"$ $ $ $ = = = = ; = - - ; ; - $ $ O $ O # # & & O # # X X # g g g g g f g g d d g g g d d g g g g g * - = = = = = = = = O O O O O & O o o + j k k k j c z l - z ",
"= = = $ $ = = = = = - - - = ; O $ $ $ $ & O & & O # # # # # t q w w w u w w w w u w w w y y u u y i = = = * = - = = - - $ $ O O & O + + + + k k h k k z h h h h ",
"X X X X X # $ # X # h * * * * h x % % % X X @ @ @ g g g g 0 u.i.i.i.i.i.i.i.i.i.i.i.i.i.u.t.t.t.e.y.0 a g f g z * * % % $ $ $ $ # = = $ $ O + * l l * o % % % % ",
"X X O X X X O X # X * * * % % % z z j % # X # X @ g g g g q p.p.p.p.p.p.p.p.p.p.p.p.p.p.p.w.w.w.e.y.q a g g g z z z z z = = $ $ = $ = = ; $ * * * * * % % % % % ",
"O X X X X X X # @ # * % * * % h % j z % X # X @ @ g g g g q i.p.p.p.p.p.p.p.p.p.p.p.p.p.p.w.w.w.w.y.0 f g g g z z % z % = $ $ $ $ $ $ $ $ $ * * % * * % % % % % ",
"X O X X X # # # # # * % h % * j j j j j X @ @ # # g g g g q p.p.p.p.p.p.p.p.p.p.p.p.p.p.p.w.w.w.e.y.q g g g g l z z z z # # $ ; $ = $ $ $ = - * * * * % % % % % ",
"X X X O X # X # O X * * * * * j z % % z @ X @ @ . i i i p 0 i.p.p.p.p.p.p.p.p.p.p.p.p.p.i.w.w.w.e.t.q d g d d l % z % z ; ; $ # $ $ = X = $ * * * l * % % % o % ",
"$ $ $ $ = # X # X $ $ ; + + + + & + & + s d g g r p.p.p.p.i.X.@.@.%.%.%.%.%.%.@.5.6.6.5.5.e.w.w.w.t.^ ] / / ' 8 6 6 6 6 & * * & % % o o & % c - z * * % & & O o ",
"# # $ $ # X # X # X + + $ O ; * & * & + g g g g p p.p.p.p.p.X.&.#.=.=.#.&.&.&.%.6.5.6.5.6.w.w.r.e.t.E / / _ ` 5 6 6 6 6 & * * * & o o o & % % * c * * & % & o O ",
"$ $ $ $ = # X # # . + + ; + + = * + & * g g g g p p.p.p.p.i.O.&.&.&.&.&.=.&.=.%.6.6.5.5.5.w.w.w.e.t.T _ / ( ) 8 6 6 7 6 * & & * & o o o % o * c * z - & X o o o ",
"# ; # $ $ X # X $ $ $ ; $ + = o + + & & g g g g r p.p.p.p.p.O.&.=.%.&.&.#.&.&.#.6.1.6.1.1.e.r.w.w.t.E / / ( ) 5 6 6 7 7 & * * & O o o o o o * * * - c % % O O % ",
"# # # $ $ X X X X X = = & = = O + + + + e i p p e u.i.i.i.u.O.$.#.&.#.&.#.#.#.+.7.4.4.5.4.w.w.w.r.t.R ( ( ( ) 4 6 5 5 5 & + & & % % o o o o % * % * % o o o o o ",
"# # # # O # $ $ $ $ % % & % % g g g g d p.p.p.p.u.[ O.O.@.[ 9.6.6.6.6.6.7.7.6.7.e.e.t.w.r.5.1.1.1.6.%.=.=.&.;.( ` ` ` ] 6 9 9 9 3 j j j j j O O & O O X . . . o ",
"X X # # X $ & # $ $ % % % % % g g d g i p.p.p.p.i.@.$.&.&.#.2.5.6.6.6.6.2.5.6.6.w.w.w.w.r.6.2.6.6.6.%.#.#.#.&./ ( / / / 6 6 9 7 3 k j j j j o O = O O . . X X X ",
"X X X X X $ $ # $ # % & & % % g g d d d p.p.p.p.i.@.&.=.=.%.6.5.6.5.6.5.6.6.6.5.w.w.w.w.r.2.5.6.6.6.%.#.#.=.&./ ( / ) ` 6 9 6 9 3 j j j j j X O O O o X . X . X ",
"X X X X O O $ $ $ # % % % % % g g g g i p.p.p.p.i.@.&.&.&.%.6.6.6.6.2.6.6.5.5.5.w.w.w.w.r.2.5.5.6.7.%.&.&.&.;./ / / / / 1 6 6 6 7 j k j j j & X O & O X X . X X ",
"X X X X X O = = $ & & % & % % g a g g d p.p.p.p.i.@.&.&.&.@.1.1.5.1.1.1.5.1.5.2.w.w.w.w.w.1.5.1.6.6.%.&.&.&.&.E / / / / 3 7 6 6 9 j j j j % = & O # O X X . X . ",
"X . . . . * * z * * # X @ X @ p g g g i p.p.p.p.i.@.&.&.&.@.i.p.p.p.p.e.t.r.w.r.p.p.p.p.i.w.e.w.t.t.O.&.&.&.&.&.=.=.;.;.3 6 6 6 9 z j z j z & # # = O @ # X # $ ",
"X X . . . % % * % % # @ @ @ @ s g g g d p.p.p.p.i.@.&.&.&.@.i.p.p.p.p.e.w.w.w.w.p.p.p.p.p.w.w.e.w.t.@.&.&.&.&.&.&.&.&.&.6 6 9 6 9 z z z z z $ = & & = # # # . . ",
". . . . . z * z * l @ . @ @ X g g g g p p.p.p.p.u.%.=.&.#.+.i.p.p.p.p.w.w.w.w.w.p.p.p.p.p.w.w.w.w.r.@.&.&.&.&.&.&.&.&.;.6 7 6 6 6 j z z z x & $ O $ = # $ # @ # ",
". . . . . * z * z * @ @ . . @ g g g g i p.p.p.p.i.@.#.&.=.O.i.p.p.p.p.w.w.w.w.w.p.p.p.p.p.w.w.w.w.t.O.&.&.&.&.&.&.&.&.;.1 6 6 6 6 z z z z z $ = = O $ X @ $ $ # ",
". . . . . z * * * z X @ @ @ . t y t q 0 p.i.p.p.u.[ @.@.%.[ i.p.p.p.p.w.e.e.e.y.p.p.p.p.p.w.w.w.w.t.%.-.;.;.;.;.:.=.;.:.< 1 1 1 3 j z x z j = & & = O # # @ $ @ ",
"X O @ $ # O O & O O f i s s t u.p.i.i.p.o.@.#.#.*.p.i.i.u.u.o.@.#.#.@.+.*.#.+.o.6.6.5.6.1.5.5.5.6.9.N J J H H / / ~ / / I Q Q I W 2 7 3 6 9 - - - - - * * l * c ",
"O @ $ # # $ & O O O g g g g y i.p.p.p.p.%.&.&.&.+.p.p.p.p.i.O.&.&.&.&.=.=.&.&.&.6.6.4.6.6.6.5.6.5.9.H I I I L / ( / / / J I L L I 2 7 7 6 6 - - - c + c + c l + ",
"@ $ # # # O O & O O g g g g y i.p.p.p.p.%.&.&.&.#.p.p.p.p.i.O.=.&.&.#.#.&.&.&.%.8.6.5.5.5.5.6.6.5.9.H I I J L ( / / / / I J L L I 2 6 6 6 9 c - - - c - * * l - ",
"@ $ # # # O O & $ & g g g g u i.p.p.p.p.%.&.&.&.+.p.p.p.p.p.@.&.&.&.#.=.&.=.#.&.6.5.5.6.6.5.6.5.5.8.H I J I L _ / / / ) L L L L I 6 6 9 6 6 - c - - - l l l - l ",
"$ # # # # & O O & & g g g g u i.p.p.p.p.@.&.&.&.+.p.p.p.p.i.[ =.&.&.#.%.%.%.%.%.8.5.6.6.5.6.5.6.6.9.H I I I J / / / / / L L L L L 5 6 7 6 6 - - c - c - c + l l ",
"l l h j l * h * z * g g g g y i.p.p.p.p.%.&.&.&.#.t.w.e.w.e.[ =.&.&.%.6.6.6.6.6.6.5.6.6.1.6.5.6.6.9.m V M V M _ / / / ( L L L L I 3 6 7 6 9 X # # # # @ @ # # @ ",
"h h h h j * * l * z g g g g u i.p.p.p.p.%.&.&.&.#.t.w.w.e.e.@.#.&.&.%.3.5.6.6.6.6.6.6.5.6.6.6.5.6.6.v C C C M _ ) / / / L L L L I 3 9 9 6 6 # # X # X # # @ # # ",
"h x h x j j h * z % g g g g y i.p.p.p.p.%.&.&.=.#.t.r.w.e.t.O.#.&.&.%.8.6.5.6.5.6.5.5.6.6.6.6.6.6.9.b C C C n _ / / / / L L L L I 3 9 9 6 6 X X # # # X # @ @ # ",
"h h h h j * * h * * g g g g u i.p.p.p.p.%.&.&.&.#.t.w.w.w.t.O.=.&.&.%.3.6.5.6.6.5.6.6.5.6.6.2.6.5.8.b M C C C _ / / / ) L L L L I 3 9 9 6 6 # # # X # @ # # # # ",
"j % % % h * % l % % g g g g u i.p.p.p.p.o.+.*.#.+.t.w.w.r.r.+.&.#.#.o.2.6.6.5.6.6.6.5.6.1.3.3.6.6.9.m C C C n _ / / / _ L L L L L 3 9 6 7 7 # O # X X # # # @ # ",
"O o & o O O & & # & g g g g u i.p.p.p.p.p.i.p.p.u.U ^ ! T Y 9.6.6.6.6.5.6.6.6.6.6.5.6.5.2.O.%.%.%.;.m C C C C L I L L J L I L L L 3 7 6 7 7 % k j x x $ $ $ $ $ ",
"o O o X O & & & = & g g g g y i.p.p.p.p.p.p.p.p.u.! / / _ / 9.5.6.6.6.6.6.6.5.1.5.5.6.6.8.%.&.&.&.;.n C C C C I I L I L P L P L I 2 7 9 7 6 k % k x % = $ = $ $ ",
"X o o X O & # & & O g g g g y i.p.p.p.p.p.p.p.p.i.T / / / T 8.6.6.6.6.6.6.6.6.6.6.6.5.6.2.%.&.&.&.:.n C C C C L L L J I J J I L Q 3 9 6 6 6 x k % % x = $ # ; # ",
"o o X o O & o O O O g g g g y i.p.p.p.p.p.p.p.p.i.T / / ( ~ 6.2.6.6.5.2.5.5.5.6.6.5.5.6.6.%.&.&.&.:.n C C C C J L L I L P L L L I 3 9 9 9 9 j x j k x = = $ $ ; ",
"X o o X O - O O O & g g g g y i.p.p.p.p.i.i.i.p.u.T ~ ^ ~ T 0.6.7.9.8.8.9.9.9.7.9.9.8.8.9.&.:.-.:.,.m V V C V K L J L P L L I L I 1 9 9 7 9 x j j j j $ $ = $ $ ",
"% k % % x % % x % x s g g g y w.w.w.w.w.X.+.O.@.+.=.=.;.:.,.N D H D H H H H D D H H H H H H D D H H ' _ ` _ _ ( / / ` / M C C C C 3 7 7 9 7 O O O $ & # $ # $ X ",
"% % % % % % x % x % s g g g q e.w.w.w.w.@.&.#.&.&.&.&.%.&.&.K I L J P L L L I I I J L L I I L L L J _ / / / / / / / / / M C C C C 3 9 9 7 9 O O O & & X # & # $ ",
"k % x % x % % x z z g g g g t e.w.w.w.e.%.&.%.=.&.%.=.&.&.=.D I L J J I I L K J L L J L L L L K L K ( ( ( ( / / / / / / C C C C Z 3 9 9 3 7 O $ O O & X $ $ X $ ",
"x % % % % x x % x z g g g g t t.e.w.w.e.%.&.&.&.&.&.&.&.&.&.D J I I I I L I Q J L I I I L I W L L L _ _ ( ~ ( / / / / ` C C C C Z 3 9 9 6 7 O O $ O # $ # # $ # ",
"% % % % % x % x h l g g g g t y.e.y.y.y.%.&.&.&.&.:.:.=.:.>.K J K K J K K K K K K K K K K K K D K K _ _ ( ` ) ( / / / _ C F F F Z 3 6 6 6 6 X $ O X & $ & $ $ $ ",
"% * * * % - - - - & = & = = = < 1 > 2 < ;.&.&.&.=.D L L J J _ ( ( ( ( ( ( _ ( ( ( ( ( ( ( _ ) ( ) ( K J K J K ( / / / _ 5 6 5 4 5 + o + o & . @ @ X @           ",
"& o & & & = * - & - * = & - * 6 3 9 9 3 =.&.%.=.-.D L L L J / _ ( / / / / / ( / / / / / / / / / / / H L L L K _ / / / ` 5 6 6 6 7 & & & & % X X   # @     .     ",
"& O % & & * - & - * - & - & = 7 6 6 6 3 &.&.&.&.=.D I L L K _ / / ( / / / / / / / / ( / / / ( / / ` K L L L K _ / / / ` 6 6 6 6 7 O & % % O X . # @ @     .     ",
"% o + + % & * - * - & - - = & 7 6 6 6 1 ;.&.&.&.&.K I L I K ) / / / / ( / ( / / / / / / / / / / / _ K L L I L / / / / ` 1 3 6 6 7 o & $ O O . @ # # #           ",
"+ o % & & - - & - & - & & & = 7 6 6 6 1 ;.&.=.&.-.D L J I J ) / / / / / / / / / ( / / / ( / / / / ` L L L I K / / / / / 5 6 6 6 7 * & = O % . . #   #           ",
"* - * * * $ $ $ O $ O O O O O 9 6 6 6 1 } { { { { J I I I H ` / / / / ( / / / / / / / / / / / / / ` J J J I N 8.8.6.6.7.1 9 9 7 7 # # # O X % % % k % k k k k k ",
"- * - * - $ O $ $ X O O O O O 6 6 6 6 1 } { { { { J I J I K ( ( / / / / / / / ( / / / ( / / / ( / _ I J P I H 8.6.5.2.9.1 9 9 9 7 # # # # o k k % % % k k k k k ",
"* - * c * $ $ O $ O O X X O O 6 6 6 7 1 } { { { { J I J L K ( / / / / / / / / / ( / / / / ( / / ( ` L L L I H 6.6.6.2.6.1 6 6 6 7 # # $ $ $ k % k % k k k k k k ",
"c * - * = O $ $ # $ O O O O O 6 6 6 6 1 } { { { { J J I L K _ / / ( / / / / / ( / / / / / / / / / ` D L L I H 6.6.6.6.7.1 6 6 6 7 # $ $ # # % k % k % k k k k k ",
"- * - * - $ $ O ; = & O O O X 7 7 7 7 2  .| | | | J K I I J ) / / / / / ~ / / / / ~ ~ ~ E E E E E ( D L P P D 7.6.7.6.7.< 7 9 7 9 $ # $ # # % j x j j k k k k k ",
"= - O = & x z z % x & O O o o           2 < 2 < 1 C Z C V b >.=.=.=.=.=.=.=.=.&.7.6.7.7.6.9.9.7.7.q.~ _ ) ) ' , < , < < $ $ $ $ $ = & # $ $ z % * z % & X = & # ",
"= = = = = l x l x % o O o O o           9 6 6 6 9 F C C V M -.#.&.&.=.%.&.&.%.#.6.1.5.5.5.5.5.5.5.6.~ _ / ( ` 8 6 6 6 6 $ $ $ = = $ $ & $ $ z % z z % O = $ # # ",
"= & = & O l x z % % O O X o O           6 6 6 6 9 F C C V m -.%.&.&.#.=.&.#.=.%.6.6.6.6.6.5.5.5.5.6.R ( / ( ` 8 6 9 6 9 $ $ $ $ $ # $ # # & z c % z z $ # & & $ ",
"$ + $ $ = l x l % x O o O o &           3 3 6 6 6 F C C C B -.#.#.&.#.#.%.&.#.%.6.6.6.5.5.5.5.5.5.6.R _ / / ` 8 9 6 9 7 $ $ $ $ = O # X & # % x % z z $ $ O $ O ",
"$ - + $ & x x l x % O O o O O           7 7 7 7 5 A A C Z B <.>.>.>.>.>.>.>.>.,.q.9.9.0.9.0.0.9.0.0.( ` ` ` ] 8 7 9 6 6 $ $ $ ; $ # & O $ $ * % h h z O X $ O $ ",
"$ $ # # @ O O $ $ & % % % % % O X X o X % * * & + 1 3 5 5 5 > > > , < < > < < < > , , : : : : < < < 5 1 3 1 1 h h j x x $ $ $ $ $ & o O & & k k k j k $ = $ $ O ",
"# $ $ @ $ O O O $ & j x % % % X X X X X % * * * & 9 6 9 9 9 9 9 9 6 6 6 6 9 7 9 6 6 6 6 7 9 6 6 6 6 9 6 9 9 9 h x k h x $ $ $ $ & & % O % & k k j k j $ O $ $ $ ",
"# # # # # $ O O $ O % z % % x O X X # X * * * = & 9 6 6 6 6 6 6 6 6 6 6 6 6 9 9 5 6 6 6 6 6 6 6 6 6 6 6 6 6 6 j j j j j ; $ $ $ $ & & % & & j j k j k O = $ $ & ",
"# # # # # O O O O O j % x % % O X O X X * * * * & 9 6 6 6 9 6 6 6 6 6 6 6 6 9 9 9 6 6 6 6 6 6 6 6 6 6 6 6 6 6 h j k j x $ $ $ $ $ & & & & % k j j k j O & & = # ",
"# # # # # O O O = & % % % % % X O X X X = * = * * 7 9 6 6 6 6 9 6 6 9 9 6 9 7 9 9 7 6 6 6 6 6 6 6 5 6 6 6 6 6 j j j k j c $ ; c $ % & % % & j j k j k O O # # O ",
"$ $ $ $ O z * z % % z j x % % X X X X X ; ; ; ; ; $ # # # # O O O O + & + & = & h h h h h x x x x x @ @ @ @ @ $ & = $ $ x x k k k & & & & & & & O & & o % % % % ",
"$ $ $ O O l * z * z % % k % % o X X X X ; ; ; ; ; $ # # # # O O O o X = - * - * h j j j j x x x x x @ @ @ @ @ = = $ # = k k k k k * & * & = & O O & O % % % o % ",
"+ + O O O l z l % z x % x % % X . X o X ; ; ; ; ; # $ $ # # O O o X o O * - * - h h j h j x x x x x @ @ @ @ @ O $ $ & = k x k k k * * * * * & # & O O % % % o o ",
"$ + . O O l l l z z j % % % % X X     X ; ; ; ; ; # # # # # o O o o + * = * - * h j j j j x j j x x @ @ @ @ @ $ & = $ # k k k k x * * = * = # & X & O % % % % % ",
"$ + + @ O z l * * z % x % k x o X o X X ; ; ; ; ; $ # # $ X X o O O O - * - * * j h j j j k k k x x @ @ @ @ @ $ $ $ O = k k x x k * * * & * & & & & O % % o o % "
};
