/* XPM */
static char *green1717786984[] = {
/* columns rows colors chars-per-pixel */
"80 80 177 2 ",
"   c #5F7726",
".  c #60782F",
"X  c #5E7232",
"o  c #5D7130",
"O  c #5F7234",
"+  c #688026",
"@  c #596B30",
"#  c #637A29",
"$  c #5E7133",
"%  c #5D6F32",
"&  c #5D6F30",
"*  c #657E29",
"=  c #657E28",
"-  c #657A34",
";  c #607828",
":  c #5E722F",
">  c #6C8626",
",  c #62782B",
"<  c #5B6F32",
"1  c #627730",
"2  c #5F7625",
"3  c #647D28",
"4  c #627928",
"5  c #6D8923",
"6  c #68802C",
"7  c #68802B",
"8  c #6E8630",
"9  c #60772D",
"0  c #6C8623",
"q  c #5F7330",
"w  c #698229",
"e  c #5F7332",
"r  c #627832",
"t  c #647934",
"y  c #5F732D",
"u  c #5B6E30",
"i  c #698325",
"p  c #5F762D",
"a  c #62792C",
"s  c #6C8628",
"d  c #607632",
"f  c #5E732D",
"g  c #5F7629",
"h  c #6C8823",
"j  c #688030",
"k  c #5B6F2C",
"l  c #647C29",
"z  c #596C2F",
"x  c #647D29",
"c  c #5B6E2F",
"v  c #5A6D32",
"b  c #576D26",
"n  c #5F772B",
"m  c #62792B",
"M  c #688028",
"N  c #5F7333",
"B  c #607432",
"V  c #637C2B",
"C  c #637C23",
"Z  c #607730",
"A  c #60782B",
"S  c #69822B",
"D  c #63792F",
"F  c #657C2D",
"G  c #5A6D2F",
"H  c #677F2C",
"J  c #63792B",
"K  c #677D2D",
"L  c #5F7628",
"P  c #5B6E2D",
"I  c #5E7230",
"U  c #637A26",
"Y  c #6D8533",
"T  c #627929",
"R  c #63792C",
"E  c #5B6F2F",
"W  c #627634",
"Q  c #5F7626",
"!  c #5E722B",
"~  c #698323",
"^  c #596D2B",
"/  c #576C2B",
"(  c #657E2B",
")  c #576B2F",
"_  c #56692C",
"`  c #62792D",
"'  c #5D712D",
"]  c #6B8428",
"[  c #6D852F",
"{  c #5F742F",
"}  c #5F742C",
"|  c #607630",
" . c #5E7132",
".. c #596B2F",
"X. c #718B2B",
"o. c #637C29",
"O. c #5E742C",
"+. c #657C33",
"@. c #657E2C",
"#. c #688226",
"$. c #677E2D",
"%. c #5D7133",
"&. c #677F25",
"*. c #62792F",
"=. c #6E8926",
"-. c #687F25",
";. c #677C37",
":. c #56682D",
">. c #647C2B",
",. c #677F28",
"<. c #5A6D30",
"1. c #5D7228",
"2. c #60742C",
"3. c #60762C",
"4. c #596C30",
"5. c #5B712C",
"6. c #688325",
"7. c #637732",
"8. c #5A6D33",
"9. c #6C8525",
"0. c #688228",
"q. c #505F2C",
"w. c #718C26",
"e. c #57692D",
"r. c #607433",
"t. c #5D712F",
"y. c #596C33",
"u. c #6F8929",
"i. c #637733",
"p. c #799729",
"a. c #607729",
"s. c #62782F",
"d. c #596C2D",
"f. c #6B832F",
"g. c #637C28",
"h. c #53642D",
"j. c #657C2F",
"k. c #5D722C",
"l. c #657D2F",
"z. c #5F7430",
"x. c #677E25",
"c. c #60762F",
"v. c #56692B",
"b. c #678223",
"n. c #637A2B",
"m. c #647D2B",
"M. c #5D6F33",
"N. c #688223",
"B. c #6E8A23",
"V. c #698329",
"C. c #5E7429",
"Z. c #52642B",
"A. c #5E732C",
"S. c #637833",
"D. c #63782F",
"F. c #688029",
"G. c #5B6F33",
"H. c #677E26",
"J. c #5B6F2D",
"K. c #637A2C",
"L. c #5E712F",
"P. c #6F8B25",
"I. c #627925",
"U. c #657F22",
"Y. c #6B8525",
"T. c #607728",
"R. c #6B8623",
"E. c #5E7430",
"W. c #677F29",
"Q. c #698025",
"!. c #657939",
"~. c #5D7329",
"^. c #647A2F",
"/. c #6E8829",
"(. c #576B30",
"). c #6F8C25",
"_. c #637A25",
/* pixels */
"          . . . . . X X X X X o o o o o O O O O O + + + + + @ @ @ @ @ # # # # # $ $ $ $ $ % % % % % & & & & & * * * * * = = = = = - - - - - ; ; ; ; ; : : : : : ",
"          . . . . . X X X X X o o o o o O O O O O + + + + + @ @ @ @ @ # # # # # $ $ $ $ $ % % % % % & & & & & * * * * * = = = = = - - - - - ; ; ; ; ; : : : : : ",
"          . . . . . X X X X X o o o o o O O O O O + + + + + @ @ @ @ @ # # # # # $ $ $ $ $ % % % % % & & & & & * * * * * = = = = = - - - - - ; ; ; ; ; : : : : : ",
"          . . . . . X X X X X o o o o o O O O O O + + + + + @ @ @ @ @ # # # # # $ $ $ $ $ % % % % % & & & & & * * * * * = = = = = - - - - - ; ; ; ; ; : : : : : ",
"          . . . . . X X X X X o o o o o O O O O O + + + + + @ @ @ @ @ # # # # # $ $ $ $ $ % % % % % & & & & & * * * * * = = = = = - - - - - ; ; ; ; ; : : : : : ",
"> > > > > , , , , , < < < < < 1 1 1 1 1 2 2 2 2 2 3 3 3 3 3 4 4 4 4 4 5 5 5 5 5 6 6 6 6 6 7 7 7 7 7 8 8 8 8 8 9 9 9 9 9 % % % % % 0 0 0 0 0 q q q q q w w w w w ",
"> > > > > , , , , , < < < < < 1 1 1 1 1 2 2 2 2 2 3 3 3 3 3 4 4 4 4 4 5 5 5 5 5 6 6 6 6 6 7 7 7 7 7 8 8 8 8 8 9 9 9 9 9 % % % % % 0 0 0 0 0 q q q q q w w w w w ",
"> > > > > , , , , , < < < < < 1 1 1 1 1 2 2 2 2 2 3 3 3 3 3 4 4 4 4 4 5 5 5 5 5 6 6 6 6 6 7 7 7 7 7 8 8 8 8 8 9 9 9 9 9 % % % % % 0 0 0 0 0 q q q q q w w w w w ",
"> > > > > , , , , , < < < < < 1 1 1 1 1 2 2 2 2 2 3 3 3 3 3 4 4 4 4 4 5 5 5 5 5 6 6 6 6 6 7 7 7 7 7 8 8 8 8 8 9 9 9 9 9 % % % % % 0 0 0 0 0 q q q q q w w w w w ",
"> > > > > , , , , , < < < < < 1 1 1 1 1 2 2 2 2 2 3 3 3 3 3 4 4 4 4 4 5 5 5 5 5 6 6 6 6 6 7 7 7 7 7 8 8 8 8 8 9 9 9 9 9 % % % % % 0 0 0 0 0 q q q q q w w w w w ",
"e e e e e r r r r r t t t t t : : : : : y y y y y u u u u u i i i i i p p p p p a a a a a s s s s s 1 1 1 1 1 d d d d d f f f f f g g g g g h h h h h j j j j j ",
"e e e e e r r r r r t t t t t : : : : : y y y y y u u u u u i i i i i p p p p p a a a a a s s s s s 1 1 1 1 1 d d d d d f f f f f g g g g g h h h h h j j j j j ",
"e e e e e r r r r r t t t t t : : : : : y y y y y u u u u u i i i i i p p p p p a a a a a s s s s s 1 1 1 1 1 d d d d d f f f f f g g g g g h h h h h j j j j j ",
"e e e e e r r r r r t t t t t : : : : : y y y y y u u u u u i i i i i p p p p p a a a a a s s s s s 1 1 1 1 1 d d d d d f f f f f g g g g g h h h h h j j j j j ",
"e e e e e r r r r r t t t t t : : : : : y y y y y u u u u u i i i i i p p p p p a a a a a s s s s s 1 1 1 1 1 d d d d d f f f f f g g g g g h h h h h j j j j j ",
"k k k k k u u u u u l l l l l + + + + + z z z z z x x x x x c c c c c v v v v v b b b b b n n n n n m m m m m M M M M M N N N N N B B B B B V V V V V C C C C C ",
"k k k k k u u u u u l l l l l + + + + + z z z z z x x x x x c c c c c v v v v v b b b b b n n n n n m m m m m M M M M M N N N N N B B B B B V V V V V C C C C C ",
"k k k k k u u u u u l l l l l + + + + + z z z z z x x x x x c c c c c v v v v v b b b b b n n n n n m m m m m M M M M M N N N N N B B B B B V V V V V C C C C C ",
"k k k k k u u u u u l l l l l + + + + + z z z z z x x x x x c c c c c v v v v v b b b b b n n n n n m m m m m M M M M M N N N N N B B B B B V V V V V C C C C C ",
"k k k k k u u u u u l l l l l + + + + + z z z z z x x x x x c c c c c v v v v v b b b b b n n n n n m m m m m M M M M M N N N N N B B B B B V V V V V C C C C C ",
"$ $ $ $ $ c c c c c Z Z Z Z Z A A A A A S S S S S D D D D D O O O O O F F F F F c c c c c k k k k k G G G G G H H H H H J J J J J 2 2 2 2 2 K K K K K L L L L L ",
"$ $ $ $ $ c c c c c Z Z Z Z Z A A A A A S S S S S D D D D D O O O O O F F F F F c c c c c k k k k k G G G G G H H H H H J J J J J 2 2 2 2 2 K K K K K L L L L L ",
"$ $ $ $ $ c c c c c Z Z Z Z Z A A A A A S S S S S D D D D D O O O O O F F F F F c c c c c k k k k k G G G G G H H H H H J J J J J 2 2 2 2 2 K K K K K L L L L L ",
"$ $ $ $ $ c c c c c Z Z Z Z Z A A A A A S S S S S D D D D D O O O O O F F F F F c c c c c k k k k k G G G G G H H H H H J J J J J 2 2 2 2 2 K K K K K L L L L L ",
"$ $ $ $ $ c c c c c Z Z Z Z Z A A A A A S S S S S D D D D D O O O O O F F F F F c c c c c k k k k k G G G G G H H H H H J J J J J 2 2 2 2 2 K K K K K L L L L L ",
"P P P P P I I I I I U U U U U Y Y Y Y Y T T T T T B B B B B u u u u u R R R R R E E E E E W W W W W o o o o o Q Q Q Q Q ! ! ! ! ! ~ ~ ~ ~ ~ f f f f f ^ ^ ^ ^ ^ ",
"P P P P P I I I I I U U U U U Y Y Y Y Y T T T T T B B B B B u u u u u R R R R R E E E E E W W W W W o o o o o Q Q Q Q Q ! ! ! ! ! ~ ~ ~ ~ ~ f f f f f ^ ^ ^ ^ ^ ",
"P P P P P I I I I I U U U U U Y Y Y Y Y T T T T T B B B B B u u u u u R R R R R E E E E E W W W W W o o o o o Q Q Q Q Q ! ! ! ! ! ~ ~ ~ ~ ~ f f f f f ^ ^ ^ ^ ^ ",
"P P P P P I I I I I U U U U U Y Y Y Y Y T T T T T B B B B B u u u u u R R R R R E E E E E W W W W W o o o o o Q Q Q Q Q ! ! ! ! ! ~ ~ ~ ~ ~ f f f f f ^ ^ ^ ^ ^ ",
"P P P P P I I I I I U U U U U Y Y Y Y Y T T T T T B B B B B u u u u u R R R R R E E E E E W W W W W o o o o o Q Q Q Q Q ! ! ! ! ! ~ ~ ~ ~ ~ f f f f f ^ ^ ^ ^ ^ ",
"/ / / / / ( ( ( ( ( ) ) ) ) ) % % % % % _ _ _ _ _ ` ` ` ` ` & & & & & ' ' ' ' ' : : : : : E E E E E ] ] ] ] ] [ [ [ [ [ I I I I I w w w w w { { { { { u u u u u ",
"/ / / / / ( ( ( ( ( ) ) ) ) ) % % % % % _ _ _ _ _ ` ` ` ` ` & & & & & ' ' ' ' ' : : : : : E E E E E ] ] ] ] ] [ [ [ [ [ I I I I I w w w w w { { { { { u u u u u ",
"/ / / / / ( ( ( ( ( ) ) ) ) ) % % % % % _ _ _ _ _ ` ` ` ` ` & & & & & ' ' ' ' ' : : : : : E E E E E ] ] ] ] ] [ [ [ [ [ I I I I I w w w w w { { { { { u u u u u ",
"/ / / / / ( ( ( ( ( ) ) ) ) ) % % % % % _ _ _ _ _ ` ` ` ` ` & & & & & ' ' ' ' ' : : : : : E E E E E ] ] ] ] ] [ [ [ [ [ I I I I I w w w w w { { { { { u u u u u ",
"/ / / / / ( ( ( ( ( ) ) ) ) ) % % % % % _ _ _ _ _ ` ` ` ` ` & & & & & ' ' ' ' ' : : : : : E E E E E ] ] ] ] ] [ [ [ [ [ I I I I I w w w w w { { { { { u u u u u ",
"< < < < < } } } } } | | | | | o o o o o  . . . . ...........| | | | | X.X.X.X.X.o o o o o G G G G G o.o.o.o.o.O.O.O.O.O.o o o o o $ $ $ $ $ +.+.+.+.+.@.@.@.@.@.",
"< < < < < } } } } } | | | | | o o o o o  . . . . ...........| | | | | X.X.X.X.X.o o o o o G G G G G o.o.o.o.o.O.O.O.O.O.o o o o o $ $ $ $ $ +.+.+.+.+.@.@.@.@.@.",
"< < < < < } } } } } | | | | | o o o o o  . . . . ...........| | | | | X.X.X.X.X.o o o o o G G G G G o.o.o.o.o.O.O.O.O.O.o o o o o $ $ $ $ $ +.+.+.+.+.@.@.@.@.@.",
"< < < < < } } } } } | | | | | o o o o o  . . . . ...........| | | | | X.X.X.X.X.o o o o o G G G G G o.o.o.o.o.O.O.O.O.O.o o o o o $ $ $ $ $ +.+.+.+.+.@.@.@.@.@.",
"< < < < < } } } } } | | | | | o o o o o  . . . . ...........| | | | | X.X.X.X.X.o o o o o G G G G G o.o.o.o.o.O.O.O.O.O.o o o o o $ $ $ $ $ +.+.+.+.+.@.@.@.@.@.",
"#.#.#.#.#.* * * * * $.$.$.$.$.%.%.%.%.%.% % % % % &.&.&.&.&.*.*.*.*.*.=.=.=.=.=.-.-.-.-.-.;.;.;.;.;.:.:.:.:.:.>.>.>.>.>.f f f f f ,.,.,.,.,.u u u u u <.<.<.<.<.",
"#.#.#.#.#.* * * * * $.$.$.$.$.%.%.%.%.%.% % % % % &.&.&.&.&.*.*.*.*.*.=.=.=.=.=.-.-.-.-.-.;.;.;.;.;.:.:.:.:.:.>.>.>.>.>.f f f f f ,.,.,.,.,.u u u u u <.<.<.<.<.",
"#.#.#.#.#.* * * * * $.$.$.$.$.%.%.%.%.%.% % % % % &.&.&.&.&.*.*.*.*.*.=.=.=.=.=.-.-.-.-.-.;.;.;.;.;.:.:.:.:.:.>.>.>.>.>.f f f f f ,.,.,.,.,.u u u u u <.<.<.<.<.",
"#.#.#.#.#.* * * * * $.$.$.$.$.%.%.%.%.%.% % % % % &.&.&.&.&.*.*.*.*.*.=.=.=.=.=.-.-.-.-.-.;.;.;.;.;.:.:.:.:.:.>.>.>.>.>.f f f f f ,.,.,.,.,.u u u u u <.<.<.<.<.",
"#.#.#.#.#.* * * * * $.$.$.$.$.%.%.%.%.%.% % % % % &.&.&.&.&.*.*.*.*.*.=.=.=.=.=.-.-.-.-.-.;.;.;.;.;.:.:.:.:.:.>.>.>.>.>.f f f f f ,.,.,.,.,.u u u u u <.<.<.<.<.",
"1.1.1.1.1.2.2.2.2.2.Z Z Z Z Z 3.3.3.3.3.4.4.4.4.4.I I I I I 5.5.5.5.5.O.O.O.O.O.6.6.6.6.6.I I I I I ,.,.,.,.,.7.7.7.7.7.& & & & & 8.8.8.8.8.9.9.9.9.9.N N N N N ",
"1.1.1.1.1.2.2.2.2.2.Z Z Z Z Z 3.3.3.3.3.4.4.4.4.4.I I I I I 5.5.5.5.5.O.O.O.O.O.6.6.6.6.6.I I I I I ,.,.,.,.,.7.7.7.7.7.& & & & & 8.8.8.8.8.9.9.9.9.9.N N N N N ",
"1.1.1.1.1.2.2.2.2.2.Z Z Z Z Z 3.3.3.3.3.4.4.4.4.4.I I I I I 5.5.5.5.5.O.O.O.O.O.6.6.6.6.6.I I I I I ,.,.,.,.,.7.7.7.7.7.& & & & & 8.8.8.8.8.9.9.9.9.9.N N N N N ",
"1.1.1.1.1.2.2.2.2.2.Z Z Z Z Z 3.3.3.3.3.4.4.4.4.4.I I I I I 5.5.5.5.5.O.O.O.O.O.6.6.6.6.6.I I I I I ,.,.,.,.,.7.7.7.7.7.& & & & & 8.8.8.8.8.9.9.9.9.9.N N N N N ",
"1.1.1.1.1.2.2.2.2.2.Z Z Z Z Z 3.3.3.3.3.4.4.4.4.4.I I I I I 5.5.5.5.5.O.O.O.O.O.6.6.6.6.6.I I I I I ,.,.,.,.,.7.7.7.7.7.& & & & & 8.8.8.8.8.9.9.9.9.9.N N N N N ",
"+ + + + + 0.0.0.0.0.q.q.q.q.q.w.w.w.w.w.e.e.e.e.e.r.r.r.r.r.t.t.t.t.t.y.y.y.y.y.u.u.u.u.u.i.i.i.i.i.s s s s s } } } } } : : : : : p.p.p.p.p.f f f f f o o o o o ",
"+ + + + + 0.0.0.0.0.q.q.q.q.q.w.w.w.w.w.e.e.e.e.e.r.r.r.r.r.t.t.t.t.t.y.y.y.y.y.u.u.u.u.u.i.i.i.i.i.s s s s s } } } } } : : : : : p.p.p.p.p.f f f f f o o o o o ",
"+ + + + + 0.0.0.0.0.q.q.q.q.q.w.w.w.w.w.e.e.e.e.e.r.r.r.r.r.t.t.t.t.t.y.y.y.y.y.u.u.u.u.u.i.i.i.i.i.s s s s s } } } } } : : : : : p.p.p.p.p.f f f f f o o o o o ",
"+ + + + + 0.0.0.0.0.q.q.q.q.q.w.w.w.w.w.e.e.e.e.e.r.r.r.r.r.t.t.t.t.t.y.y.y.y.y.u.u.u.u.u.i.i.i.i.i.s s s s s } } } } } : : : : : p.p.p.p.p.f f f f f o o o o o ",
"+ + + + + 0.0.0.0.0.q.q.q.q.q.w.w.w.w.w.e.e.e.e.e.r.r.r.r.r.t.t.t.t.t.y.y.y.y.y.u.u.u.u.u.i.i.i.i.i.s s s s s } } } } } : : : : : p.p.p.p.p.f f f f f o o o o o ",
"a.a.a.a.a.D D D D D s.s.s.s.s.d.d.d.d.d.i i i i i E E E E E { { { { { G G G G G a a a a a 9 9 9 9 9 o o o o o f.f.f.f.f.g.g.g.g.g.a.a.a.a.a...........h.h.h.h.h.",
"a.a.a.a.a.D D D D D s.s.s.s.s.d.d.d.d.d.i i i i i E E E E E { { { { { G G G G G a a a a a 9 9 9 9 9 o o o o o f.f.f.f.f.g.g.g.g.g.a.a.a.a.a...........h.h.h.h.h.",
"a.a.a.a.a.D D D D D s.s.s.s.s.d.d.d.d.d.i i i i i E E E E E { { { { { G G G G G a a a a a 9 9 9 9 9 o o o o o f.f.f.f.f.g.g.g.g.g.a.a.a.a.a...........h.h.h.h.h.",
"a.a.a.a.a.D D D D D s.s.s.s.s.d.d.d.d.d.i i i i i E E E E E { { { { { G G G G G a a a a a 9 9 9 9 9 o o o o o f.f.f.f.f.g.g.g.g.g.a.a.a.a.a...........h.h.h.h.h.",
"a.a.a.a.a.D D D D D s.s.s.s.s.d.d.d.d.d.i i i i i E E E E E { { { { { G G G G G a a a a a 9 9 9 9 9 o o o o o f.f.f.f.f.g.g.g.g.g.a.a.a.a.a...........h.h.h.h.h.",
"j.j.j.j.j.I I I I I k.k.k.k.k.l.l.l.l.l.z.z.z.z.z.x.x.x.x.x.c.c.c.c.c.v.v.v.v.v.b.b.b.b.b.% % % % % n.n.n.n.n.~ ~ ~ ~ ~ m.m.m.m.m.M.M.M.M.M.N.N.N.N.N.B.B.B.B.B.",
"j.j.j.j.j.I I I I I k.k.k.k.k.l.l.l.l.l.z.z.z.z.z.x.x.x.x.x.c.c.c.c.c.v.v.v.v.v.b.b.b.b.b.% % % % % n.n.n.n.n.~ ~ ~ ~ ~ m.m.m.m.m.M.M.M.M.M.N.N.N.N.N.B.B.B.B.B.",
"j.j.j.j.j.I I I I I k.k.k.k.k.l.l.l.l.l.z.z.z.z.z.x.x.x.x.x.c.c.c.c.c.v.v.v.v.v.b.b.b.b.b.% % % % % n.n.n.n.n.~ ~ ~ ~ ~ m.m.m.m.m.M.M.M.M.M.N.N.N.N.N.B.B.B.B.B.",
"j.j.j.j.j.I I I I I k.k.k.k.k.l.l.l.l.l.z.z.z.z.z.x.x.x.x.x.c.c.c.c.c.v.v.v.v.v.b.b.b.b.b.% % % % % n.n.n.n.n.~ ~ ~ ~ ~ m.m.m.m.m.M.M.M.M.M.N.N.N.N.N.B.B.B.B.B.",
"j.j.j.j.j.I I I I I k.k.k.k.k.l.l.l.l.l.z.z.z.z.z.x.x.x.x.x.c.c.c.c.c.v.v.v.v.v.b.b.b.b.b.% % % % % n.n.n.n.n.~ ~ ~ ~ ~ m.m.m.m.m.M.M.M.M.M.N.N.N.N.N.B.B.B.B.B.",
"c.c.c.c.c.V.V.V.V.V.C.C.C.C.C.Z.Z.Z.Z.Z.k.k.k.k.k.c c c c c A.A.A.A.A.S.S.S.S.S.=.=.=.=.=.W W W W W D.D.D.D.D.M M M M M e e e e e : : : : : F.F.F.F.F.: : : : : ",
"c.c.c.c.c.V.V.V.V.V.C.C.C.C.C.Z.Z.Z.Z.Z.k.k.k.k.k.c c c c c A.A.A.A.A.S.S.S.S.S.=.=.=.=.=.W W W W W D.D.D.D.D.M M M M M e e e e e : : : : : F.F.F.F.F.: : : : : ",
"c.c.c.c.c.V.V.V.V.V.C.C.C.C.C.Z.Z.Z.Z.Z.k.k.k.k.k.c c c c c A.A.A.A.A.S.S.S.S.S.=.=.=.=.=.W W W W W D.D.D.D.D.M M M M M e e e e e : : : : : F.F.F.F.F.: : : : : ",
"c.c.c.c.c.V.V.V.V.V.C.C.C.C.C.Z.Z.Z.Z.Z.k.k.k.k.k.c c c c c A.A.A.A.A.S.S.S.S.S.=.=.=.=.=.W W W W W D.D.D.D.D.M M M M M e e e e e : : : : : F.F.F.F.F.: : : : : ",
"c.c.c.c.c.V.V.V.V.V.C.C.C.C.C.Z.Z.Z.Z.Z.k.k.k.k.k.c c c c c A.A.A.A.A.S.S.S.S.S.=.=.=.=.=.W W W W W D.D.D.D.D.M M M M M e e e e e : : : : : F.F.F.F.F.: : : : : ",
"G.G.G.G.G.f f f f f H.H.H.H.H.J.J.J.J.J.K.K.K.K.K.L.L.L.L.L.P.P.P.P.P.e e e e e I.I.I.I.I.I I I I I U.U.U.U.U.Y.Y.Y.Y.Y.N N N N N T.T.T.T.T.R.R.R.R.R.E.E.E.E.E.",
"G.G.G.G.G.f f f f f H.H.H.H.H.J.J.J.J.J.K.K.K.K.K.L.L.L.L.L.P.P.P.P.P.e e e e e I.I.I.I.I.I I I I I U.U.U.U.U.Y.Y.Y.Y.Y.N N N N N T.T.T.T.T.R.R.R.R.R.E.E.E.E.E.",
"G.G.G.G.G.f f f f f H.H.H.H.H.J.J.J.J.J.K.K.K.K.K.L.L.L.L.L.P.P.P.P.P.e e e e e I.I.I.I.I.I I I I I U.U.U.U.U.Y.Y.Y.Y.Y.N N N N N T.T.T.T.T.R.R.R.R.R.E.E.E.E.E.",
"G.G.G.G.G.f f f f f H.H.H.H.H.J.J.J.J.J.K.K.K.K.K.L.L.L.L.L.P.P.P.P.P.e e e e e I.I.I.I.I.I I I I I U.U.U.U.U.Y.Y.Y.Y.Y.N N N N N T.T.T.T.T.R.R.R.R.R.E.E.E.E.E.",
"G.G.G.G.G.f f f f f H.H.H.H.H.J.J.J.J.J.K.K.K.K.K.L.L.L.L.L.P.P.P.P.P.e e e e e I.I.I.I.I.I I I I I U.U.U.U.U.Y.Y.Y.Y.Y.N N N N N T.T.T.T.T.R.R.R.R.R.E.E.E.E.E.",
"f f f f f W.W.W.W.W.Q.Q.Q.Q.Q.^ ^ ^ ^ ^ !.!.!.!.!.% % % % % ~.~.~.~.~.^.^.^.^.^.6.6.6.6.6./././././.(.(.(.(.(.q q q q q ).).).).).a a a a a } } } } } _._._._._.",
"f f f f f W.W.W.W.W.Q.Q.Q.Q.Q.^ ^ ^ ^ ^ !.!.!.!.!.% % % % % ~.~.~.~.~.^.^.^.^.^.6.6.6.6.6./././././.(.(.(.(.(.q q q q q ).).).).).a a a a a } } } } } _._._._._.",
"f f f f f W.W.W.W.W.Q.Q.Q.Q.Q.^ ^ ^ ^ ^ !.!.!.!.!.% % % % % ~.~.~.~.~.^.^.^.^.^.6.6.6.6.6./././././.(.(.(.(.(.q q q q q ).).).).).a a a a a } } } } } _._._._._.",
"f f f f f W.W.W.W.W.Q.Q.Q.Q.Q.^ ^ ^ ^ ^ !.!.!.!.!.% % % % % ~.~.~.~.~.^.^.^.^.^.6.6.6.6.6./././././.(.(.(.(.(.q q q q q ).).).).).a a a a a } } } } } _._._._._.",
"f f f f f W.W.W.W.W.Q.Q.Q.Q.Q.^ ^ ^ ^ ^ !.!.!.!.!.% % % % % ~.~.~.~.~.^.^.^.^.^.6.6.6.6.6./././././.(.(.(.(.(.q q q q q ).).).).).a a a a a } } } } } _._._._._."
};
