/* XPM */
static char *trapdoor41717786984[] = {
/* columns rows colors chars-per-pixel */
"80 80 173 2 ",
"   c #625029",
".  c #8B7141",
"X  c #9C794A",
"o  c #4A3C20",
"O  c #6C8626",
"+  c #62782B",
"@  c #5B6F32",
"#  c #627730",
"$  c #5F7625",
"%  c #647D28",
"&  c #627928",
"*  c #6D8923",
"=  c #68802C",
"-  c #68802B",
";  c #6E8630",
":  c #60772D",
">  c #5D6F32",
",  c #6C8623",
"<  c #5F7330",
"1  c #698229",
"2  c #5F7332",
"3  c #627832",
"4  c #647934",
"5  c #5E722F",
"6  c #5F732D",
"7  c #5B6E30",
"8  c #698325",
"9  c #5F762D",
"0  c #62792C",
"q  c #6C8628",
"w  c #607632",
"e  c #5E732D",
"r  c #5F7629",
"t  c #6C8823",
"y  c #688030",
"u  c #5B6F2C",
"i  c #647C29",
"p  c #688026",
"a  c #596C2F",
"s  c #647D29",
"d  c #5B6E2F",
"f  c #5A6D32",
"g  c #576D26",
"h  c #5F772B",
"j  c #62792B",
"k  c #688028",
"l  c #5F7333",
"z  c #607432",
"x  c #637C2B",
"c  c #637C23",
"v  c #5E7133",
"b  c #607730",
"n  c #60782B",
"m  c #69822B",
"M  c #63792F",
"N  c #5F7234",
"B  c #657C2D",
"V  c #5A6D2F",
"C  c #677F2C",
"Z  c #63792B",
"A  c #677D2D",
"S  c #5F7628",
"D  c #5B6E2D",
"F  c #5E7230",
"G  c #637A26",
"H  c #6D8533",
"J  c #627929",
"K  c #63792C",
"L  c #5B6F2F",
"P  c #627634",
"I  c #5D7130",
"U  c #5F7626",
"Y  c #5E722B",
"T  c #698323",
"R  c #596D2B",
"E  c #576C2B",
"W  c #657E2B",
"Q  c #576B2F",
"!  c #56692C",
"~  c #62792D",
"^  c #5D6F30",
"/  c #5D712D",
"(  c #6B8428",
")  c #6D852F",
"_  c #5F742F",
"`  c #5F742C",
"'  c #607630",
"]  c #5E7132",
"[  c #596B2F",
"{  c #718B2B",
"}  c #637C29",
"|  c #5E742C",
" . c #657C33",
".. c #657E2C",
"X. c #688226",
"o. c #657E29",
"O. c #677E2D",
"+. c #5D7133",
"@. c #677F25",
"#. c #62792F",
"$. c #6E8926",
"%. c #687F25",
"&. c #677C37",
"*. c #56682D",
"=. c #647C2B",
"-. c #677F28",
";. c #5A6D30",
":. c #5D7228",
">. c #60742C",
",. c #60762C",
"<. c #596C30",
"1. c #5B712C",
"2. c #688325",
"3. c #637732",
"4. c #5A6D33",
"5. c #6C8525",
"6. c #688228",
"7. c #505F2C",
"8. c #718C26",
"9. c #57692D",
"0. c #607433",
"q. c #5D712F",
"w. c #596C33",
"e. c #6F8929",
"r. c #637733",
"t. c #799729",
"y. c #607729",
"u. c #62782F",
"i. c #596C2D",
"p. c #6B832F",
"a. c #637C28",
"s. c #53642D",
"d. c #657C2F",
"f. c #5D722C",
"g. c #657D2F",
"h. c #5F7430",
"j. c #677E25",
"k. c #60762F",
"l. c #56692B",
"z. c #678223",
"x. c #637A2B",
"c. c #647D2B",
"v. c #5D6F33",
"b. c #688223",
"n. c #6E8A23",
"m. c #698329",
"M. c #5E7429",
"N. c #52642B",
"B. c #5E732C",
"V. c #637833",
"C. c #63782F",
"Z. c #688029",
"A. c #5B6F33",
"S. c #677E26",
"D. c #5B6F2D",
"F. c #637A2C",
"G. c #5E712F",
"H. c #6F8B25",
"J. c #627925",
"K. c #657F22",
"L. c #6B8525",
"P. c #607728",
"I. c #6B8623",
"U. c #5E7430",
"Y. c #677F29",
"T. c #698025",
"R. c #657939",
"E. c #5D7329",
"W. c #647A2F",
"Q. c #6E8829",
"!. c #576B30",
"~. c #6F8C25",
"^. c #637A25",
/* pixels */
"          . . . . . X X X X X X X X X X X X X X X X X X X X . . . . . X X X X X . . . . . X X X X X X X X X X X X X X X X X X X X X X X X X . . . . .           ",
"          . . . . . X X X X X X X X X X X X X X X X X X X X . . . . . X X X X X . . . . . X X X X X X X X X X X X X X X X X X X X X X X X X . . . . .           ",
"          . . . . . X X X X X X X X X X X X X X X X X X X X . . . . . X X X X X . . . . . X X X X X X X X X X X X X X X X X X X X X X X X X . . . . .           ",
"o o o o o o o o o o o o o o o o o o o o o o o o o o o o o o o o o o o o o o o o o o o o o o o o o o o o o o o o o o o o o o o o o o o o o o o o o o o o o o o o ",
"o o o o o o o o o o o o o o o o o o o o o o o o o o o o o o o o o o o o o o o o o o o o o o o o o o o o o o o o o o o o o o o o o o o o o o o o o o o o o o o o ",
"o o o o o o o o o o o o o o o o o o o o o o o o o o o o o o o o o o o o o o o o o o o o o o o o o o o o o o o o o o o o o o o o o o o o o o o o o o o o o o o o ",
"o o o o o o o o o o o o o o o o o o o o o o o o o o o o o o o o o o o o o o o o o o o o o o o o o o o o o o o o o o o o o o o o o o o o o o o o o o o o o o o o ",
"o o o o o o o o o o o o o o o o o o o o o o o o o o o o o o o o o o o o o o o o o o o o o o o o o o o o o o o o o o o o o o o o o o o o o o o o o o o o o o o o ",
"O O O O O + + + + + @ @ @ @ @ # # # # # $ $ $ $ $ % % % % % & & & & & * * * * * = = = = = - - - - - ; ; ; ; ; : : : : : > > > > > , , , , , < < < < < 1 1 1 1 1 ",
"O O O O O + + + + + @ @ @ @ @ # # # # # $ $ $ $ $ % % % % % & & & & & * * * * * = = = = = - - - - - ; ; ; ; ; : : : : : > > > > > , , , , , < < < < < 1 1 1 1 1 ",
"2 2 2 2 2 3 3 3 3 3 4 4 4 4 4 5 5 5 5 5 6 6 6 6 6 7 7 7 7 7 8 8 8 8 8 9 9 9 9 9 0 0 0 0 0 q q q q q # # # # # w w w w w e e e e e r r r r r t t t t t y y y y y ",
"2 2 2 2 2 3 3 3 3 3 4 4 4 4 4 5 5 5 5 5 6 6 6 6 6 7 7 7 7 7 8 8 8 8 8 9 9 9 9 9 0 0 0 0 0 q q q q q # # # # # w w w w w e e e e e r r r r r t t t t t y y y y y ",
"2 2 2 2 2 3 3 3 3 3 4 4 4 4 4 5 5 5 5 5 6 6 6 6 6 7 7 7 7 7 8 8 8 8 8 9 9 9 9 9 0 0 0 0 0 q q q q q # # # # # w w w w w e e e e e r r r r r t t t t t y y y y y ",
"2 2 2 2 2 3 3 3 3 3 4 4 4 4 4 5 5 5 5 5 6 6 6 6 6 7 7 7 7 7 8 8 8 8 8 9 9 9 9 9 0 0 0 0 0 q q q q q # # # # # w w w w w e e e e e r r r r r t t t t t y y y y y ",
"2 2 2 2 2 3 3 3 3 3 4 4 4 4 4 5 5 5 5 5 6 6 6 6 6 7 7 7 7 7 8 8 8 8 8 9 9 9 9 9 0 0 0 0 0 q q q q q # # # # # w w w w w e e e e e r r r r r t t t t t y y y y y ",
"u u u u u 7 7 7 7 7 i i i i i p p p p p a a a a a s s s s s d d d d d f f f f f g g g g g h h h h h j j j j j k k k k k l l l l l z z z z z x x x x x c c c c c ",
"u u u u u 7 7 7 7 7 i i i i i p p p p p a a a a a s s s s s d d d d d f f f f f g g g g g h h h h h j j j j j k k k k k l l l l l z z z z z x x x x x c c c c c ",
"u u u u u 7 7 7 7 7 i i i i i p p p p p a a a a a s s s s s d d d d d f f f f f g g g g g h h h h h j j j j j k k k k k l l l l l z z z z z x x x x x c c c c c ",
"u u u u u 7 7 7 7 7 i i i i i p p p p p a a a a a s s s s s d d d d d f f f f f g g g g g h h h h h j j j j j k k k k k l l l l l z z z z z x x x x x c c c c c ",
"u u u u u 7 7 7 7 7 i i i i i p p p p p a a a a a s s s s s d d d d d f f f f f g g g g g h h h h h j j j j j k k k k k l l l l l z z z z z x x x x x c c c c c ",
"v v v v v d d d d d b b b b b n n n n n m m m m m M M M M M N N N N N B B B B B d d d d d u u u u u V V V V V C C C C C Z Z Z Z Z $ $ $ $ $ A A A A A S S S S S ",
"v v v v v d d d d d b b b b b n n n n n m m m m m M M M M M N N N N N B B B B B d d d d d u u u u u V V V V V C C C C C Z Z Z Z Z $ $ $ $ $ A A A A A S S S S S ",
"v v v v v d d d d d b b b b b n n n n n m m m m m M M M M M N N N N N B B B B B d d d d d u u u u u V V V V V C C C C C Z Z Z Z Z $ $ $ $ $ A A A A A S S S S S ",
"v v v v v d d d d d b b b b b n n n n n m m m m m M M M M M N N N N N B B B B B d d d d d u u u u u V V V V V C C C C C Z Z Z Z Z $ $ $ $ $ A A A A A S S S S S ",
"v v v v v d d d d d b b b b b n n n n n m m m m m M M M M M N N N N N B B B B B d d d d d u u u u u V V V V V C C C C C Z Z Z Z Z $ $ $ $ $ A A A A A S S S S S ",
"D D D D D F F F F F G G G G G H H H H H J J J J J z z z z z 7 7 7 7 7 K K K K K L L L L L P P P P P I I I I I U U U U U Y Y Y Y Y T T T T T e e e e e R R R R R ",
"D D D D D F F F F F G G G G G H H H H H J J J J J z z z z z 7 7 7 7 7 K K K K K L L L L L P P P P P I I I I I U U U U U Y Y Y Y Y T T T T T e e e e e R R R R R ",
"D D D D D F F F F F G G G G G H H H H H J J J J J z z z z z 7 7 7 7 7 K K K K K L L L L L P P P P P I I I I I U U U U U Y Y Y Y Y T T T T T e e e e e R R R R R ",
"D D D D D F F F F F G G G G G H H H H H J J J J J z z z z z 7 7 7 7 7 K K K K K L L L L L P P P P P I I I I I U U U U U Y Y Y Y Y T T T T T e e e e e R R R R R ",
"D D D D D F F F F F G G G G G H H H H H J J J J J z z z z z 7 7 7 7 7 K K K K K L L L L L P P P P P I I I I I U U U U U Y Y Y Y Y T T T T T e e e e e R R R R R ",
"E E E E E W W W W W Q Q Q Q Q > > > > > ! ! ! ! ! ~ ~ ~ ~ ~ ^ ^ ^ ^ ^ / / / / / 5 5 5 5 5 L L L L L ( ( ( ( ( ) ) ) ) ) F F F F F 1 1 1 1 1 _ _ _ _ _ 7 7 7 7 7 ",
"E E E E E W W W W W Q Q Q Q Q > > > > > ! ! ! ! ! ~ ~ ~ ~ ~ ^ ^ ^ ^ ^ / / / / / 5 5 5 5 5 L L L L L ( ( ( ( ( ) ) ) ) ) F F F F F 1 1 1 1 1 _ _ _ _ _ 7 7 7 7 7 ",
"E E E E E W W W W W Q Q Q Q Q > > > > > ! ! ! ! ! ~ ~ ~ ~ ~ ^ ^ ^ ^ ^ / / / / / 5 5 5 5 5 L L L L L ( ( ( ( ( ) ) ) ) ) F F F F F 1 1 1 1 1 _ _ _ _ _ 7 7 7 7 7 ",
"E E E E E W W W W W Q Q Q Q Q > > > > > ! ! ! ! ! ~ ~ ~ ~ ~ ^ ^ ^ ^ ^ / / / / / 5 5 5 5 5 L L L L L ( ( ( ( ( ) ) ) ) ) F F F F F 1 1 1 1 1 _ _ _ _ _ 7 7 7 7 7 ",
"E E E E E W W W W W Q Q Q Q Q > > > > > ! ! ! ! ! ~ ~ ~ ~ ~ ^ ^ ^ ^ ^ / / / / / 5 5 5 5 5 L L L L L ( ( ( ( ( ) ) ) ) ) F F F F F 1 1 1 1 1 _ _ _ _ _ 7 7 7 7 7 ",
"@ @ @ @ @ ` ` ` ` ` ' ' ' ' ' I I I I I ] ] ] ] ] [ [ [ [ [ ' ' ' ' ' { { { { { I I I I I V V V V V } } } } } | | | | | I I I I I v v v v v  . . . . ...........",
"@ @ @ @ @ ` ` ` ` ` ' ' ' ' ' I I I I I ] ] ] ] ] [ [ [ [ [ ' ' ' ' ' { { { { { I I I I I V V V V V } } } } } | | | | | I I I I I v v v v v  . . . . ...........",
"@ @ @ @ @ ` ` ` ` ` ' ' ' ' ' I I I I I ] ] ] ] ] [ [ [ [ [ ' ' ' ' ' { { { { { I I I I I V V V V V } } } } } | | | | | I I I I I v v v v v  . . . . ...........",
"@ @ @ @ @ ` ` ` ` ` ' ' ' ' ' I I I I I ] ] ] ] ] [ [ [ [ [ ' ' ' ' ' { { { { { I I I I I V V V V V } } } } } | | | | | I I I I I v v v v v  . . . . ...........",
"@ @ @ @ @ ` ` ` ` ` ' ' ' ' ' I I I I I ] ] ] ] ] [ [ [ [ [ ' ' ' ' ' { { { { { I I I I I V V V V V } } } } } | | | | | I I I I I v v v v v  . . . . ...........",
"X.X.X.X.X.o.o.o.o.o.O.O.O.O.O.+.+.+.+.+.> > > > > @.@.@.@.@.#.#.#.#.#.$.$.$.$.$.%.%.%.%.%.&.&.&.&.&.*.*.*.*.*.=.=.=.=.=.e e e e e -.-.-.-.-.7 7 7 7 7 ;.;.;.;.;.",
"X.X.X.X.X.o.o.o.o.o.O.O.O.O.O.+.+.+.+.+.> > > > > @.@.@.@.@.#.#.#.#.#.$.$.$.$.$.%.%.%.%.%.&.&.&.&.&.*.*.*.*.*.=.=.=.=.=.e e e e e -.-.-.-.-.7 7 7 7 7 ;.;.;.;.;.",
"X.X.X.X.X.o.o.o.o.o.O.O.O.O.O.+.+.+.+.+.> > > > > @.@.@.@.@.#.#.#.#.#.$.$.$.$.$.%.%.%.%.%.&.&.&.&.&.*.*.*.*.*.=.=.=.=.=.e e e e e -.-.-.-.-.7 7 7 7 7 ;.;.;.;.;.",
"X.X.X.X.X.o.o.o.o.o.O.O.O.O.O.+.+.+.+.+.> > > > > @.@.@.@.@.#.#.#.#.#.$.$.$.$.$.%.%.%.%.%.&.&.&.&.&.*.*.*.*.*.=.=.=.=.=.e e e e e -.-.-.-.-.7 7 7 7 7 ;.;.;.;.;.",
"X.X.X.X.X.o.o.o.o.o.O.O.O.O.O.+.+.+.+.+.> > > > > @.@.@.@.@.#.#.#.#.#.$.$.$.$.$.%.%.%.%.%.&.&.&.&.&.*.*.*.*.*.=.=.=.=.=.e e e e e -.-.-.-.-.7 7 7 7 7 ;.;.;.;.;.",
":.:.:.:.:.>.>.>.>.>.b b b b b ,.,.,.,.,.<.<.<.<.<.F F F F F 1.1.1.1.1.| | | | | 2.2.2.2.2.F F F F F -.-.-.-.-.3.3.3.3.3.^ ^ ^ ^ ^ 4.4.4.4.4.5.5.5.5.5.l l l l l ",
":.:.:.:.:.>.>.>.>.>.b b b b b ,.,.,.,.,.<.<.<.<.<.F F F F F 1.1.1.1.1.| | | | | 2.2.2.2.2.F F F F F -.-.-.-.-.3.3.3.3.3.^ ^ ^ ^ ^ 4.4.4.4.4.5.5.5.5.5.l l l l l ",
":.:.:.:.:.>.>.>.>.>.b b b b b ,.,.,.,.,.<.<.<.<.<.F F F F F 1.1.1.1.1.| | | | | 2.2.2.2.2.F F F F F -.-.-.-.-.3.3.3.3.3.^ ^ ^ ^ ^ 4.4.4.4.4.5.5.5.5.5.l l l l l ",
":.:.:.:.:.>.>.>.>.>.b b b b b ,.,.,.,.,.<.<.<.<.<.F F F F F 1.1.1.1.1.| | | | | 2.2.2.2.2.F F F F F -.-.-.-.-.3.3.3.3.3.^ ^ ^ ^ ^ 4.4.4.4.4.5.5.5.5.5.l l l l l ",
":.:.:.:.:.>.>.>.>.>.b b b b b ,.,.,.,.,.<.<.<.<.<.F F F F F 1.1.1.1.1.| | | | | 2.2.2.2.2.F F F F F -.-.-.-.-.3.3.3.3.3.^ ^ ^ ^ ^ 4.4.4.4.4.5.5.5.5.5.l l l l l ",
"p p p p p 6.6.6.6.6.7.7.7.7.7.8.8.8.8.8.9.9.9.9.9.0.0.0.0.0.q.q.q.q.q.w.w.w.w.w.e.e.e.e.e.r.r.r.r.r.q q q q q ` ` ` ` ` 5 5 5 5 5 t.t.t.t.t.e e e e e I I I I I ",
"p p p p p 6.6.6.6.6.7.7.7.7.7.8.8.8.8.8.9.9.9.9.9.0.0.0.0.0.q.q.q.q.q.w.w.w.w.w.e.e.e.e.e.r.r.r.r.r.q q q q q ` ` ` ` ` 5 5 5 5 5 t.t.t.t.t.e e e e e I I I I I ",
"p p p p p 6.6.6.6.6.7.7.7.7.7.8.8.8.8.8.9.9.9.9.9.0.0.0.0.0.q.q.q.q.q.w.w.w.w.w.e.e.e.e.e.r.r.r.r.r.q q q q q ` ` ` ` ` 5 5 5 5 5 t.t.t.t.t.e e e e e I I I I I ",
"p p p p p 6.6.6.6.6.7.7.7.7.7.8.8.8.8.8.9.9.9.9.9.0.0.0.0.0.q.q.q.q.q.w.w.w.w.w.e.e.e.e.e.r.r.r.r.r.q q q q q ` ` ` ` ` 5 5 5 5 5 t.t.t.t.t.e e e e e I I I I I ",
"p p p p p 6.6.6.6.6.7.7.7.7.7.8.8.8.8.8.9.9.9.9.9.0.0.0.0.0.q.q.q.q.q.w.w.w.w.w.e.e.e.e.e.r.r.r.r.r.q q q q q ` ` ` ` ` 5 5 5 5 5 t.t.t.t.t.e e e e e I I I I I ",
"y.y.y.y.y.M M M M M u.u.u.u.u.i.i.i.i.i.8 8 8 8 8 L L L L L _ _ _ _ _ V V V V V 0 0 0 0 0 : : : : : I I I I I p.p.p.p.p.a.a.a.a.a.y.y.y.y.y.[ [ [ [ [ s.s.s.s.s.",
"y.y.y.y.y.M M M M M u.u.u.u.u.i.i.i.i.i.8 8 8 8 8 L L L L L _ _ _ _ _ V V V V V 0 0 0 0 0 : : : : : I I I I I p.p.p.p.p.a.a.a.a.a.y.y.y.y.y.[ [ [ [ [ s.s.s.s.s.",
"y.y.y.y.y.M M M M M u.u.u.u.u.i.i.i.i.i.8 8 8 8 8 L L L L L _ _ _ _ _ V V V V V 0 0 0 0 0 : : : : : I I I I I p.p.p.p.p.a.a.a.a.a.y.y.y.y.y.[ [ [ [ [ s.s.s.s.s.",
"y.y.y.y.y.M M M M M u.u.u.u.u.i.i.i.i.i.8 8 8 8 8 L L L L L _ _ _ _ _ V V V V V 0 0 0 0 0 : : : : : I I I I I p.p.p.p.p.a.a.a.a.a.y.y.y.y.y.[ [ [ [ [ s.s.s.s.s.",
"y.y.y.y.y.M M M M M u.u.u.u.u.i.i.i.i.i.8 8 8 8 8 L L L L L _ _ _ _ _ V V V V V 0 0 0 0 0 : : : : : I I I I I p.p.p.p.p.a.a.a.a.a.y.y.y.y.y.[ [ [ [ [ s.s.s.s.s.",
"d.d.d.d.d.F F F F F f.f.f.f.f.g.g.g.g.g.h.h.h.h.h.j.j.j.j.j.k.k.k.k.k.l.l.l.l.l.z.z.z.z.z.> > > > > x.x.x.x.x.T T T T T c.c.c.c.c.v.v.v.v.v.b.b.b.b.b.n.n.n.n.n.",
"d.d.d.d.d.F F F F F f.f.f.f.f.g.g.g.g.g.h.h.h.h.h.j.j.j.j.j.k.k.k.k.k.l.l.l.l.l.z.z.z.z.z.> > > > > x.x.x.x.x.T T T T T c.c.c.c.c.v.v.v.v.v.b.b.b.b.b.n.n.n.n.n.",
"d.d.d.d.d.F F F F F f.f.f.f.f.g.g.g.g.g.h.h.h.h.h.j.j.j.j.j.k.k.k.k.k.l.l.l.l.l.z.z.z.z.z.> > > > > x.x.x.x.x.T T T T T c.c.c.c.c.v.v.v.v.v.b.b.b.b.b.n.n.n.n.n.",
"d.d.d.d.d.F F F F F f.f.f.f.f.g.g.g.g.g.h.h.h.h.h.j.j.j.j.j.k.k.k.k.k.l.l.l.l.l.z.z.z.z.z.> > > > > x.x.x.x.x.T T T T T c.c.c.c.c.v.v.v.v.v.b.b.b.b.b.n.n.n.n.n.",
"d.d.d.d.d.F F F F F f.f.f.f.f.g.g.g.g.g.h.h.h.h.h.j.j.j.j.j.k.k.k.k.k.l.l.l.l.l.z.z.z.z.z.> > > > > x.x.x.x.x.T T T T T c.c.c.c.c.v.v.v.v.v.b.b.b.b.b.n.n.n.n.n.",
"k.k.k.k.k.m.m.m.m.m.M.M.M.M.M.N.N.N.N.N.f.f.f.f.f.d d d d d B.B.B.B.B.V.V.V.V.V.$.$.$.$.$.P P P P P C.C.C.C.C.k k k k k 2 2 2 2 2 5 5 5 5 5 Z.Z.Z.Z.Z.5 5 5 5 5 ",
"k.k.k.k.k.m.m.m.m.m.M.M.M.M.M.N.N.N.N.N.f.f.f.f.f.d d d d d B.B.B.B.B.V.V.V.V.V.$.$.$.$.$.P P P P P C.C.C.C.C.k k k k k 2 2 2 2 2 5 5 5 5 5 Z.Z.Z.Z.Z.5 5 5 5 5 ",
"k.k.k.k.k.m.m.m.m.m.M.M.M.M.M.N.N.N.N.N.f.f.f.f.f.d d d d d B.B.B.B.B.V.V.V.V.V.$.$.$.$.$.P P P P P C.C.C.C.C.k k k k k 2 2 2 2 2 5 5 5 5 5 Z.Z.Z.Z.Z.5 5 5 5 5 ",
"k.k.k.k.k.m.m.m.m.m.M.M.M.M.M.N.N.N.N.N.f.f.f.f.f.d d d d d B.B.B.B.B.V.V.V.V.V.$.$.$.$.$.P P P P P C.C.C.C.C.k k k k k 2 2 2 2 2 5 5 5 5 5 Z.Z.Z.Z.Z.5 5 5 5 5 ",
"k.k.k.k.k.m.m.m.m.m.M.M.M.M.M.N.N.N.N.N.f.f.f.f.f.d d d d d B.B.B.B.B.V.V.V.V.V.$.$.$.$.$.P P P P P C.C.C.C.C.k k k k k 2 2 2 2 2 5 5 5 5 5 Z.Z.Z.Z.Z.5 5 5 5 5 ",
"A.A.A.A.A.e e e e e S.S.S.S.S.D.D.D.D.D.F.F.F.F.F.G.G.G.G.G.H.H.H.H.H.2 2 2 2 2 J.J.J.J.J.F F F F F K.K.K.K.K.L.L.L.L.L.l l l l l P.P.P.P.P.I.I.I.I.I.U.U.U.U.U.",
"A.A.A.A.A.e e e e e S.S.S.S.S.D.D.D.D.D.F.F.F.F.F.G.G.G.G.G.H.H.H.H.H.2 2 2 2 2 J.J.J.J.J.F F F F F K.K.K.K.K.L.L.L.L.L.l l l l l P.P.P.P.P.I.I.I.I.I.U.U.U.U.U.",
"A.A.A.A.A.e e e e e S.S.S.S.S.D.D.D.D.D.F.F.F.F.F.G.G.G.G.G.H.H.H.H.H.2 2 2 2 2 J.J.J.J.J.F F F F F K.K.K.K.K.L.L.L.L.L.l l l l l P.P.P.P.P.I.I.I.I.I.U.U.U.U.U.",
"A.A.A.A.A.e e e e e S.S.S.S.S.D.D.D.D.D.F.F.F.F.F.G.G.G.G.G.H.H.H.H.H.2 2 2 2 2 J.J.J.J.J.F F F F F K.K.K.K.K.L.L.L.L.L.l l l l l P.P.P.P.P.I.I.I.I.I.U.U.U.U.U.",
"A.A.A.A.A.e e e e e S.S.S.S.S.D.D.D.D.D.F.F.F.F.F.G.G.G.G.G.H.H.H.H.H.2 2 2 2 2 J.J.J.J.J.F F F F F K.K.K.K.K.L.L.L.L.L.l l l l l P.P.P.P.P.I.I.I.I.I.U.U.U.U.U.",
"e e e e e Y.Y.Y.Y.Y.T.T.T.T.T.R R R R R R.R.R.R.R.> > > > > E.E.E.E.E.W.W.W.W.W.2.2.2.2.2.Q.Q.Q.Q.Q.!.!.!.!.!.< < < < < ~.~.~.~.~.0 0 0 0 0 ` ` ` ` ` ^.^.^.^.^.",
"e e e e e Y.Y.Y.Y.Y.T.T.T.T.T.R R R R R R.R.R.R.R.> > > > > E.E.E.E.E.W.W.W.W.W.2.2.2.2.2.Q.Q.Q.Q.Q.!.!.!.!.!.< < < < < ~.~.~.~.~.0 0 0 0 0 ` ` ` ` ` ^.^.^.^.^.",
"e e e e e Y.Y.Y.Y.Y.T.T.T.T.T.R R R R R R.R.R.R.R.> > > > > E.E.E.E.E.W.W.W.W.W.2.2.2.2.2.Q.Q.Q.Q.Q.!.!.!.!.!.< < < < < ~.~.~.~.~.0 0 0 0 0 ` ` ` ` ` ^.^.^.^.^.",
"e e e e e Y.Y.Y.Y.Y.T.T.T.T.T.R R R R R R.R.R.R.R.> > > > > E.E.E.E.E.W.W.W.W.W.2.2.2.2.2.Q.Q.Q.Q.Q.!.!.!.!.!.< < < < < ~.~.~.~.~.0 0 0 0 0 ` ` ` ` ` ^.^.^.^.^.",
"e e e e e Y.Y.Y.Y.Y.T.T.T.T.T.R R R R R R.R.R.R.R.> > > > > E.E.E.E.E.W.W.W.W.W.2.2.2.2.2.Q.Q.Q.Q.Q.!.!.!.!.!.< < < < < ~.~.~.~.~.0 0 0 0 0 ` ` ` ` ` ^.^.^.^.^."
};
