/* XPM */
static char *trapdoor31717786984[] = {
/* columns rows colors chars-per-pixel */
"80 80 146 2 ",
"   c #625029",
".  c #9C794A",
"X  c #5D7130",
"o  c #5F7234",
"O  c #688026",
"+  c #B38C51",
"@  c #5D6F30",
"#  c #657E29",
"$  c #657E28",
"%  c #4A3C20",
"&  c #8B7141",
"*  c #627730",
"=  c #5F7625",
"-  c #647D28",
";  c #6E8630",
":  c #60772D",
">  c #5D6F32",
",  c #5E722F",
"<  c #5F732D",
"1  c #5B6E30",
"2  c #607632",
"3  c #5E732D",
"4  c #735D31",
"5  c #5B6E2D",
"6  c #5E7230",
"7  c #637A26",
"8  c #6D8533",
"9  c #627929",
"0  c #607432",
"q  c #63792C",
"w  c #5B6F2F",
"e  c #627634",
"r  c #5F7626",
"t  c #5E722B",
"y  c #698323",
"u  c #596D2B",
"i  c #576C2B",
"p  c #657E2B",
"a  c #576B2F",
"s  c #56692C",
"d  c #62792D",
"f  c #5D712D",
"g  c #6B8428",
"h  c #6D852F",
"j  c #698229",
"k  c #5F742F",
"l  c #5B6F32",
"z  c #5F742C",
"x  c #607630",
"c  c #5E7132",
"v  c #596B2F",
"b  c #718B2B",
"n  c #5A6D2F",
"m  c #637C29",
"M  c #5E742C",
"N  c #5E7133",
"B  c #657C33",
"V  c #657E2C",
"C  c #688226",
"Z  c #677E2D",
"A  c #5D7133",
"S  c #677F25",
"D  c #62792F",
"F  c #6E8926",
"G  c #687F25",
"H  c #677C37",
"J  c #56682D",
"K  c #647C2B",
"L  c #677F28",
"P  c #5A6D30",
"I  c #5D7228",
"U  c #60742C",
"Y  c #607730",
"T  c #60762C",
"R  c #596C30",
"E  c #5B712C",
"W  c #688325",
"Q  c #637732",
"!  c #5A6D33",
"~  c #6C8525",
"^  c #5F7333",
"/  c #688228",
"(  c #505F2C",
")  c #718C26",
"_  c #57692D",
"`  c #607433",
"'  c #5D712F",
"]  c #596C33",
"[  c #6F8929",
"{  c #637733",
"}  c #6C8628",
"|  c #799729",
" . c #607729",
".. c #63792F",
"X. c #62782F",
"o. c #596C2D",
"O. c #698325",
"+. c #62792C",
"@. c #6B832F",
"#. c #637C28",
"$. c #53642D",
"%. c #657C2F",
"&. c #5D722C",
"*. c #657D2F",
"=. c #5F7430",
"-. c #677E25",
";. c #60762F",
":. c #56692B",
">. c #678223",
",. c #637A2B",
"<. c #647D2B",
"1. c #5D6F33",
"2. c #688223",
"3. c #6E8A23",
"4. c #698329",
"5. c #5E7429",
"6. c #52642B",
"7. c #5B6E2F",
"8. c #5E732C",
"9. c #637833",
"0. c #63782F",
"q. c #688028",
"w. c #5F7332",
"e. c #688029",
"r. c #5B6F33",
"t. c #677E26",
"y. c #5B6F2D",
"u. c #637A2C",
"i. c #5E712F",
"p. c #6F8B25",
"a. c #627925",
"s. c #657F22",
"d. c #6B8525",
"f. c #607728",
"g. c #6B8623",
"h. c #5E7430",
"j. c #677F29",
"k. c #698025",
"l. c #657939",
"z. c #5D7329",
"x. c #647A2F",
"c. c #6E8829",
"v. c #576B30",
"b. c #5F7330",
"n. c #6F8C25",
"m. c #637A25",
/* pixels */
"          . . . . .           X X X X X o o o o o O O O O O + + + + + . . . . . . . . . .           @ @ @ @ @ # # # # # $ $ $ $ $ + + + + + . . . . .           ",
"% % % % % & & & & & % % % % % X X X X X o o o o o O O O O O . . . . . . . . . . & & & & &           @ @ @ @ @ # # # # # $ $ $ $ $ . . . . . & & & & & % % % % % ",
"% % % % % & & & & & % % % % % X X X X X o o o o o O O O O O . . . . . . . . . . & & & & &           @ @ @ @ @ # # # # # $ $ $ $ $ . . . . . & & & & & % % % % % ",
"% % % % % & & & & & % % % % % X X X X X o o o o o O O O O O . . . . . . . . . . & & & & &           @ @ @ @ @ # # # # # $ $ $ $ $ . . . . . & & & & & % % % % % ",
"% % % % % & & & & & % % % % % X X X X X o o o o o O O O O O . . . . . . . . . . & & & & &           @ @ @ @ @ # # # # # $ $ $ $ $ . . . . . & & & & & % % % % % ",
"% % % % % & & & & & % % % % % * * * * * = = = = = - - - - - . . . . . . . . . . & & & & &           ; ; ; ; ; : : : : : > > > > > . . . . . & & & & & % % % % % ",
"          & & & & &           * * * * * = = = = = - - - - - + + + + + . . . . . & & & & &           ; ; ; ; ; : : : : : > > > > > + + + + + . . . . .           ",
"          & & & & &           * * * * * = = = = = - - - - - + + + + + . . . . . & & & & &           ; ; ; ; ; : : : : : > > > > > + + + + + . . . . .           ",
"          & & & & &           * * * * * = = = = = - - - - - + + + + + . . . . . & & & & &           ; ; ; ; ; : : : : : > > > > > + + + + + . . . . .           ",
"          & & & & &           * * * * * = = = = = - - - - - + + + + + . . . . . & & & & &           ; ; ; ; ; : : : : : > > > > > + + + + + . . . . .           ",
"          & & & & &           , , , , , < < < < < 1 1 1 1 1 + + + + + . . . . . & & & & &           * * * * * 2 2 2 2 2 3 3 3 3 3 + + + + + . . . . .           ",
"          . . . . . 4 4 4 4 4 . . . . . + + + + + + + + + + . . . . . . . . . . & & & & & 4 4 4 4 4 . . . . . + + + + + + + + + + + + + + + & & & & &           ",
"          . . . . . 4 4 4 4 4 . . . . . + + + + + + + + + + . . . . . . . . . . & & & & & 4 4 4 4 4 . . . . . + + + + + + + + + + + + + + + & & & & &           ",
"          . . . . . 4 4 4 4 4 . . . . . + + + + + + + + + + . . . . . . . . . . & & & & & 4 4 4 4 4 . . . . . + + + + + + + + + + + + + + + & & & & &           ",
"          . . . . . 4 4 4 4 4 . . . . . + + + + + + + + + + . . . . . . . . . . & & & & & 4 4 4 4 4 . . . . . + + + + + + + + + + + + + + + & & & & &           ",
"          . . . . . 4 4 4 4 4 . . . . . + + + + + + + + + + . . . . . . . . . . & & & & & 4 4 4 4 4 . . . . . + + + + + + + + + + + + + + + & & & & &           ",
"          & & & & & . . . . . . . . . . . . . . . . . . . . & & & & & . . . . . & & & & & . . . . . . . . . . . . . . . . . . . . . . . . . & & & & &           ",
"          & & & & & . . . . . . . . . . . . . . . . . . . . & & & & & . . . . . & & & & & . . . . . . . . . . . . . . . . . . . . . . . . . & & & & &           ",
"          & & & & & . . . . . . . . . . . . . . . . . . . . & & & & & . . . . . & & & & & . . . . . . . . . . . . . . . . . . . . . . . . . & & & & &           ",
"          & & & & & . . . . . . . . . . . . . . . . . . . . & & & & & . . . . . & & & & & . . . . . . . . . . . . . . . . . . . . . . . . . & & & & &           ",
"          & & & & & . . . . . . . . . . . . . . . . . . . . & & & & & . . . . . & & & & & . . . . . . . . . . . . . . . . . . . . . . . . . & & & & &           ",
"% % % % % % % % % % % % % % % % % % % % % % % % % % % % % % % % % % % % % % % % % % % % % % % % % % % % % % % % % % % % % % % % % % % % % % % % % % % % % % % % ",
"% % % % % % % % % % % % % % % % % % % % % % % % % % % % % % % % % % % % % % % % % % % % % % % % % % % % % % % % % % % % % % % % % % % % % % % % % % % % % % % % ",
"% % % % % % % % % % % % % % % % % % % % % % % % % % % % % % % % % % % % % % % % % % % % % % % % % % % % % % % % % % % % % % % % % % % % % % % % % % % % % % % % ",
"% % % % % % % % % % % % % % % % % % % % % % % % % % % % % % % % % % % % % % % % % % % % % % % % % % % % % % % % % % % % % % % % % % % % % % % % % % % % % % % % ",
"% % % % % % % % % % % % % % % % % % % % % % % % % % % % % % % % % % % % % % % % % % % % % % % % % % % % % % % % % % % % % % % % % % % % % % % % % % % % % % % % ",
"5 5 5 5 5 6 6 6 6 6 7 7 7 7 7 8 8 8 8 8 9 9 9 9 9 0 0 0 0 0 1 1 1 1 1 q q q q q w w w w w e e e e e X X X X X r r r r r t t t t t y y y y y 3 3 3 3 3 u u u u u ",
"5 5 5 5 5 6 6 6 6 6 7 7 7 7 7 8 8 8 8 8 9 9 9 9 9 0 0 0 0 0 1 1 1 1 1 q q q q q w w w w w e e e e e X X X X X r r r r r t t t t t y y y y y 3 3 3 3 3 u u u u u ",
"5 5 5 5 5 6 6 6 6 6 7 7 7 7 7 8 8 8 8 8 9 9 9 9 9 0 0 0 0 0 1 1 1 1 1 q q q q q w w w w w e e e e e X X X X X r r r r r t t t t t y y y y y 3 3 3 3 3 u u u u u ",
"5 5 5 5 5 6 6 6 6 6 7 7 7 7 7 8 8 8 8 8 9 9 9 9 9 0 0 0 0 0 1 1 1 1 1 q q q q q w w w w w e e e e e X X X X X r r r r r t t t t t y y y y y 3 3 3 3 3 u u u u u ",
"i i i i i p p p p p a a a a a > > > > > s s s s s d d d d d @ @ @ @ @ f f f f f , , , , , w w w w w g g g g g h h h h h 6 6 6 6 6 j j j j j k k k k k 1 1 1 1 1 ",
"i i i i i p p p p p a a a a a > > > > > s s s s s d d d d d @ @ @ @ @ f f f f f , , , , , w w w w w g g g g g h h h h h 6 6 6 6 6 j j j j j k k k k k 1 1 1 1 1 ",
"i i i i i p p p p p a a a a a > > > > > s s s s s d d d d d @ @ @ @ @ f f f f f , , , , , w w w w w g g g g g h h h h h 6 6 6 6 6 j j j j j k k k k k 1 1 1 1 1 ",
"i i i i i p p p p p a a a a a > > > > > s s s s s d d d d d @ @ @ @ @ f f f f f , , , , , w w w w w g g g g g h h h h h 6 6 6 6 6 j j j j j k k k k k 1 1 1 1 1 ",
"i i i i i p p p p p a a a a a > > > > > s s s s s d d d d d @ @ @ @ @ f f f f f , , , , , w w w w w g g g g g h h h h h 6 6 6 6 6 j j j j j k k k k k 1 1 1 1 1 ",
"l l l l l z z z z z x x x x x X X X X X c c c c c v v v v v x x x x x b b b b b X X X X X n n n n n m m m m m M M M M M X X X X X N N N N N B B B B B V V V V V ",
"l l l l l z z z z z x x x x x X X X X X c c c c c v v v v v x x x x x b b b b b X X X X X n n n n n m m m m m M M M M M X X X X X N N N N N B B B B B V V V V V ",
"l l l l l z z z z z x x x x x X X X X X c c c c c v v v v v x x x x x b b b b b X X X X X n n n n n m m m m m M M M M M X X X X X N N N N N B B B B B V V V V V ",
"l l l l l z z z z z x x x x x X X X X X c c c c c v v v v v x x x x x b b b b b X X X X X n n n n n m m m m m M M M M M X X X X X N N N N N B B B B B V V V V V ",
"l l l l l z z z z z x x x x x X X X X X c c c c c v v v v v x x x x x b b b b b X X X X X n n n n n m m m m m M M M M M X X X X X N N N N N B B B B B V V V V V ",
"C C C C C # # # # # Z Z Z Z Z A A A A A > > > > > S S S S S D D D D D F F F F F G G G G G H H H H H J J J J J K K K K K 3 3 3 3 3 L L L L L 1 1 1 1 1 P P P P P ",
"C C C C C # # # # # Z Z Z Z Z A A A A A > > > > > S S S S S D D D D D F F F F F G G G G G H H H H H J J J J J K K K K K 3 3 3 3 3 L L L L L 1 1 1 1 1 P P P P P ",
"C C C C C # # # # # Z Z Z Z Z A A A A A > > > > > S S S S S D D D D D F F F F F G G G G G H H H H H J J J J J K K K K K 3 3 3 3 3 L L L L L 1 1 1 1 1 P P P P P ",
"C C C C C # # # # # Z Z Z Z Z A A A A A > > > > > S S S S S D D D D D F F F F F G G G G G H H H H H J J J J J K K K K K 3 3 3 3 3 L L L L L 1 1 1 1 1 P P P P P ",
"C C C C C # # # # # Z Z Z Z Z A A A A A > > > > > S S S S S D D D D D F F F F F G G G G G H H H H H J J J J J K K K K K 3 3 3 3 3 L L L L L 1 1 1 1 1 P P P P P ",
"I I I I I U U U U U Y Y Y Y Y T T T T T R R R R R 6 6 6 6 6 E E E E E M M M M M W W W W W 6 6 6 6 6 L L L L L Q Q Q Q Q @ @ @ @ @ ! ! ! ! ! ~ ~ ~ ~ ~ ^ ^ ^ ^ ^ ",
"I I I I I U U U U U Y Y Y Y Y T T T T T R R R R R 6 6 6 6 6 E E E E E M M M M M W W W W W 6 6 6 6 6 L L L L L Q Q Q Q Q @ @ @ @ @ ! ! ! ! ! ~ ~ ~ ~ ~ ^ ^ ^ ^ ^ ",
"I I I I I U U U U U Y Y Y Y Y T T T T T R R R R R 6 6 6 6 6 E E E E E M M M M M W W W W W 6 6 6 6 6 L L L L L Q Q Q Q Q @ @ @ @ @ ! ! ! ! ! ~ ~ ~ ~ ~ ^ ^ ^ ^ ^ ",
"I I I I I U U U U U Y Y Y Y Y T T T T T R R R R R 6 6 6 6 6 E E E E E M M M M M W W W W W 6 6 6 6 6 L L L L L Q Q Q Q Q @ @ @ @ @ ! ! ! ! ! ~ ~ ~ ~ ~ ^ ^ ^ ^ ^ ",
"I I I I I U U U U U Y Y Y Y Y T T T T T R R R R R 6 6 6 6 6 E E E E E M M M M M W W W W W 6 6 6 6 6 L L L L L Q Q Q Q Q @ @ @ @ @ ! ! ! ! ! ~ ~ ~ ~ ~ ^ ^ ^ ^ ^ ",
"O O O O O / / / / / ( ( ( ( ( ) ) ) ) ) _ _ _ _ _ ` ` ` ` ` ' ' ' ' ' ] ] ] ] ] [ [ [ [ [ { { { { { } } } } } z z z z z , , , , , | | | | | 3 3 3 3 3 X X X X X ",
"O O O O O / / / / / ( ( ( ( ( ) ) ) ) ) _ _ _ _ _ ` ` ` ` ` ' ' ' ' ' ] ] ] ] ] [ [ [ [ [ { { { { { } } } } } z z z z z , , , , , | | | | | 3 3 3 3 3 X X X X X ",
"O O O O O / / / / / ( ( ( ( ( ) ) ) ) ) _ _ _ _ _ ` ` ` ` ` ' ' ' ' ' ] ] ] ] ] [ [ [ [ [ { { { { { } } } } } z z z z z , , , , , | | | | | 3 3 3 3 3 X X X X X ",
"O O O O O / / / / / ( ( ( ( ( ) ) ) ) ) _ _ _ _ _ ` ` ` ` ` ' ' ' ' ' ] ] ] ] ] [ [ [ [ [ { { { { { } } } } } z z z z z , , , , , | | | | | 3 3 3 3 3 X X X X X ",
"O O O O O / / / / / ( ( ( ( ( ) ) ) ) ) _ _ _ _ _ ` ` ` ` ` ' ' ' ' ' ] ] ] ] ] [ [ [ [ [ { { { { { } } } } } z z z z z , , , , , | | | | | 3 3 3 3 3 X X X X X ",
" . . . . ...........X.X.X.X.X.o.o.o.o.o.O.O.O.O.O.w w w w w k k k k k n n n n n +.+.+.+.+.: : : : : X X X X X @.@.@.@.@.#.#.#.#.#. . . . . .v v v v v $.$.$.$.$.",
" . . . . ...........X.X.X.X.X.o.o.o.o.o.O.O.O.O.O.w w w w w k k k k k n n n n n +.+.+.+.+.: : : : : X X X X X @.@.@.@.@.#.#.#.#.#. . . . . .v v v v v $.$.$.$.$.",
" . . . . ...........X.X.X.X.X.o.o.o.o.o.O.O.O.O.O.w w w w w k k k k k n n n n n +.+.+.+.+.: : : : : X X X X X @.@.@.@.@.#.#.#.#.#. . . . . .v v v v v $.$.$.$.$.",
" . . . . ...........X.X.X.X.X.o.o.o.o.o.O.O.O.O.O.w w w w w k k k k k n n n n n +.+.+.+.+.: : : : : X X X X X @.@.@.@.@.#.#.#.#.#. . . . . .v v v v v $.$.$.$.$.",
" . . . . ...........X.X.X.X.X.o.o.o.o.o.O.O.O.O.O.w w w w w k k k k k n n n n n +.+.+.+.+.: : : : : X X X X X @.@.@.@.@.#.#.#.#.#. . . . . .v v v v v $.$.$.$.$.",
"%.%.%.%.%.6 6 6 6 6 &.&.&.&.&.*.*.*.*.*.=.=.=.=.=.-.-.-.-.-.;.;.;.;.;.:.:.:.:.:.>.>.>.>.>.> > > > > ,.,.,.,.,.y y y y y <.<.<.<.<.1.1.1.1.1.2.2.2.2.2.3.3.3.3.3.",
"%.%.%.%.%.6 6 6 6 6 &.&.&.&.&.*.*.*.*.*.=.=.=.=.=.-.-.-.-.-.;.;.;.;.;.:.:.:.:.:.>.>.>.>.>.> > > > > ,.,.,.,.,.y y y y y <.<.<.<.<.1.1.1.1.1.2.2.2.2.2.3.3.3.3.3.",
"%.%.%.%.%.6 6 6 6 6 &.&.&.&.&.*.*.*.*.*.=.=.=.=.=.-.-.-.-.-.;.;.;.;.;.:.:.:.:.:.>.>.>.>.>.> > > > > ,.,.,.,.,.y y y y y <.<.<.<.<.1.1.1.1.1.2.2.2.2.2.3.3.3.3.3.",
"%.%.%.%.%.6 6 6 6 6 &.&.&.&.&.*.*.*.*.*.=.=.=.=.=.-.-.-.-.-.;.;.;.;.;.:.:.:.:.:.>.>.>.>.>.> > > > > ,.,.,.,.,.y y y y y <.<.<.<.<.1.1.1.1.1.2.2.2.2.2.3.3.3.3.3.",
"%.%.%.%.%.6 6 6 6 6 &.&.&.&.&.*.*.*.*.*.=.=.=.=.=.-.-.-.-.-.;.;.;.;.;.:.:.:.:.:.>.>.>.>.>.> > > > > ,.,.,.,.,.y y y y y <.<.<.<.<.1.1.1.1.1.2.2.2.2.2.3.3.3.3.3.",
";.;.;.;.;.4.4.4.4.4.5.5.5.5.5.6.6.6.6.6.&.&.&.&.&.7.7.7.7.7.8.8.8.8.8.9.9.9.9.9.F F F F F e e e e e 0.0.0.0.0.q.q.q.q.q.w.w.w.w.w., , , , , e.e.e.e.e., , , , , ",
";.;.;.;.;.4.4.4.4.4.5.5.5.5.5.6.6.6.6.6.&.&.&.&.&.7.7.7.7.7.8.8.8.8.8.9.9.9.9.9.F F F F F e e e e e 0.0.0.0.0.q.q.q.q.q.w.w.w.w.w., , , , , e.e.e.e.e., , , , , ",
";.;.;.;.;.4.4.4.4.4.5.5.5.5.5.6.6.6.6.6.&.&.&.&.&.7.7.7.7.7.8.8.8.8.8.9.9.9.9.9.F F F F F e e e e e 0.0.0.0.0.q.q.q.q.q.w.w.w.w.w., , , , , e.e.e.e.e., , , , , ",
";.;.;.;.;.4.4.4.4.4.5.5.5.5.5.6.6.6.6.6.&.&.&.&.&.7.7.7.7.7.8.8.8.8.8.9.9.9.9.9.F F F F F e e e e e 0.0.0.0.0.q.q.q.q.q.w.w.w.w.w., , , , , e.e.e.e.e., , , , , ",
";.;.;.;.;.4.4.4.4.4.5.5.5.5.5.6.6.6.6.6.&.&.&.&.&.7.7.7.7.7.8.8.8.8.8.9.9.9.9.9.F F F F F e e e e e 0.0.0.0.0.q.q.q.q.q.w.w.w.w.w., , , , , e.e.e.e.e., , , , , ",
"r.r.r.r.r.3 3 3 3 3 t.t.t.t.t.y.y.y.y.y.u.u.u.u.u.i.i.i.i.i.p.p.p.p.p.w.w.w.w.w.a.a.a.a.a.6 6 6 6 6 s.s.s.s.s.d.d.d.d.d.^ ^ ^ ^ ^ f.f.f.f.f.g.g.g.g.g.h.h.h.h.h.",
"r.r.r.r.r.3 3 3 3 3 t.t.t.t.t.y.y.y.y.y.u.u.u.u.u.i.i.i.i.i.p.p.p.p.p.w.w.w.w.w.a.a.a.a.a.6 6 6 6 6 s.s.s.s.s.d.d.d.d.d.^ ^ ^ ^ ^ f.f.f.f.f.g.g.g.g.g.h.h.h.h.h.",
"r.r.r.r.r.3 3 3 3 3 t.t.t.t.t.y.y.y.y.y.u.u.u.u.u.i.i.i.i.i.p.p.p.p.p.w.w.w.w.w.a.a.a.a.a.6 6 6 6 6 s.s.s.s.s.d.d.d.d.d.^ ^ ^ ^ ^ f.f.f.f.f.g.g.g.g.g.h.h.h.h.h.",
"r.r.r.r.r.3 3 3 3 3 t.t.t.t.t.y.y.y.y.y.u.u.u.u.u.i.i.i.i.i.p.p.p.p.p.w.w.w.w.w.a.a.a.a.a.6 6 6 6 6 s.s.s.s.s.d.d.d.d.d.^ ^ ^ ^ ^ f.f.f.f.f.g.g.g.g.g.h.h.h.h.h.",
"r.r.r.r.r.3 3 3 3 3 t.t.t.t.t.y.y.y.y.y.u.u.u.u.u.i.i.i.i.i.p.p.p.p.p.w.w.w.w.w.a.a.a.a.a.6 6 6 6 6 s.s.s.s.s.d.d.d.d.d.^ ^ ^ ^ ^ f.f.f.f.f.g.g.g.g.g.h.h.h.h.h.",
"3 3 3 3 3 j.j.j.j.j.k.k.k.k.k.u u u u u l.l.l.l.l.> > > > > z.z.z.z.z.x.x.x.x.x.W W W W W c.c.c.c.c.v.v.v.v.v.b.b.b.b.b.n.n.n.n.n.+.+.+.+.+.z z z z z m.m.m.m.m.",
"3 3 3 3 3 j.j.j.j.j.k.k.k.k.k.u u u u u l.l.l.l.l.> > > > > z.z.z.z.z.x.x.x.x.x.W W W W W c.c.c.c.c.v.v.v.v.v.b.b.b.b.b.n.n.n.n.n.+.+.+.+.+.z z z z z m.m.m.m.m.",
"3 3 3 3 3 j.j.j.j.j.k.k.k.k.k.u u u u u l.l.l.l.l.> > > > > z.z.z.z.z.x.x.x.x.x.W W W W W c.c.c.c.c.v.v.v.v.v.b.b.b.b.b.n.n.n.n.n.+.+.+.+.+.z z z z z m.m.m.m.m.",
"3 3 3 3 3 j.j.j.j.j.k.k.k.k.k.u u u u u l.l.l.l.l.> > > > > z.z.z.z.z.x.x.x.x.x.W W W W W c.c.c.c.c.v.v.v.v.v.b.b.b.b.b.n.n.n.n.n.+.+.+.+.+.z z z z z m.m.m.m.m.",
"3 3 3 3 3 j.j.j.j.j.k.k.k.k.k.u u u u u l.l.l.l.l.> > > > > z.z.z.z.z.x.x.x.x.x.W W W W W c.c.c.c.c.v.v.v.v.v.b.b.b.b.b.n.n.n.n.n.+.+.+.+.+.z z z z z m.m.m.m.m."
};
