/* XPM */
static char *trapdoor11717786984[] = {
/* columns rows colors chars-per-pixel */
"80 80 93 2 ",
"   c #625029",
".  c #9C794A",
"X  c #5D7130",
"o  c #5F7234",
"O  c #688026",
"+  c #B38C51",
"@  c #8B7141",
"#  c #5D6F30",
"$  c #657E29",
"%  c #657E28",
"&  c #627730",
"*  c #5F7625",
"=  c #647D28",
"-  c #6E8630",
";  c #60772D",
":  c #5D6F32",
">  c #5E722F",
",  c #5F732D",
"<  c #5B6E30",
"1  c #607632",
"2  c #5E732D",
"3  c #4A3C20",
"4  c #735D31",
"5  c #56692C",
"6  c #62792D",
"7  c #6B8428",
"8  c #6D852F",
"9  c #5E7230",
"0  c #5E7132",
"q  c #596B2F",
"w  c #637C29",
"e  c #5E742C",
"r  c #5D7133",
"t  c #677F25",
"y  c #56682D",
"u  c #647C2B",
"i  c #60762C",
"p  c #596C30",
"a  c #677F28",
"s  c #637732",
"d  c #657C2F",
"f  c #5D722C",
"g  c #657D2F",
"h  c #5F7430",
"j  c #677E25",
"k  c #60762F",
"l  c #56692B",
"z  c #678223",
"x  c #637A2B",
"c  c #698323",
"v  c #647D2B",
"b  c #5D6F33",
"n  c #688223",
"m  c #6E8A23",
"M  c #698329",
"N  c #5E7429",
"B  c #52642B",
"V  c #5B6E2F",
"C  c #5E732C",
"Z  c #637833",
"A  c #6E8926",
"S  c #627634",
"D  c #63782F",
"F  c #688028",
"G  c #5F7332",
"H  c #688029",
"J  c #5B6F33",
"K  c #677E26",
"L  c #5B6F2D",
"P  c #637A2C",
"I  c #5E712F",
"U  c #6F8B25",
"Y  c #627925",
"T  c #657F22",
"R  c #6B8525",
"E  c #5F7333",
"W  c #607728",
"Q  c #6B8623",
"!  c #5E7430",
"~  c #677F29",
"^  c #698025",
"/  c #596D2B",
"(  c #657939",
")  c #5D7329",
"_  c #647A2F",
"`  c #688325",
"'  c #6E8829",
"]  c #576B30",
"[  c #5F7330",
"{  c #6F8C25",
"}  c #62792C",
"|  c #5F742C",
" . c #637A25",
/* pixels */
"          . . . . .           X X X X X o o o o o O O O O O + + + + + . . . . . @ @ @ @ @           # # # # # $ $ $ $ $ % % % % % + + + + + @ @ @ @ @           ",
"          . . . . .           X X X X X o o o o o O O O O O + + + + + . . . . . @ @ @ @ @           # # # # # $ $ $ $ $ % % % % % + + + + + @ @ @ @ @           ",
"          @ @ @ @ @           X X X X X o o o o o O O O O O + + + + + . . . . . @ @ @ @ @           # # # # # $ $ $ $ $ % % % % % + + + + + @ @ @ @ @           ",
"          @ @ @ @ @           X X X X X o o o o o O O O O O + + + + + . . . . . @ @ @ @ @           # # # # # $ $ $ $ $ % % % % % + + + + + @ @ @ @ @           ",
"          @ @ @ @ @           X X X X X o o o o o O O O O O + + + + + . . . . . @ @ @ @ @           # # # # # $ $ $ $ $ % % % % % + + + + + @ @ @ @ @           ",
"          @ @ @ @ @           & & & & & * * * * * = = = = = + + + + + . . . . . @ @ @ @ @           - - - - - ; ; ; ; ; : : : : : + + + + + @ @ @ @ @           ",
"          @ @ @ @ @           & & & & & * * * * * = = = = = + + + + + . . . . . @ @ @ @ @           - - - - - ; ; ; ; ; : : : : : + + + + + @ @ @ @ @           ",
"          @ @ @ @ @           & & & & & * * * * * = = = = = + + + + + . . . . . @ @ @ @ @           - - - - - ; ; ; ; ; : : : : : + + + + + . . . . .           ",
"          @ @ @ @ @           & & & & & * * * * * = = = = = + + + + + . . . . . @ @ @ @ @           - - - - - ; ; ; ; ; : : : : : + + + + + . . . . .           ",
"          @ @ @ @ @           & & & & & * * * * * = = = = = + + + + + . . . . . @ @ @ @ @           - - - - - ; ; ; ; ; : : : : : + + + + + . . . . .           ",
"          @ @ @ @ @           > > > > > , , , , , < < < < < + + + + + . . . . . @ @ @ @ @           & & & & & 1 1 1 1 1 2 2 2 2 2 + + + + + . . . . .           ",
"          @ @ @ @ @           > > > > > , , , , , < < < < < + + + + + . . . . . @ @ @ @ @           & & & & & 1 1 1 1 1 2 2 2 2 2 + + + + + . . . . .           ",
"3 3 3 3 3           4 4 4 4 4 + + + + + . . . . . + + + + + . . . . . . . . . . @ @ @ @ @ 4 4 4 4 4 + + + + + + + + + + + + + + + @ @ @ @ @           3 3 3 3 3 ",
"3 3 3 3 3           4 4 4 4 4 + + + + + . . . . . + + + + + . . . . . . . . . . @ @ @ @ @ 4 4 4 4 4 + + + + + + + + + + + + + + + @ @ @ @ @           3 3 3 3 3 ",
"3 3 3 3 3           4 4 4 4 4 + + + + + . . . . . + + + + + . . . . . . . . . . @ @ @ @ @ 4 4 4 4 4 + + + + + + + + + + + + + + + @ @ @ @ @           3 3 3 3 3 ",
"3 3 3 3 3           4 4 4 4 4 + + + + + . . . . . + + + + + . . . . . . . . . . @ @ @ @ @ 4 4 4 4 4 + + + + + + + + + + + + + + + @ @ @ @ @           3 3 3 3 3 ",
"3 3 3 3 3           4 4 4 4 4 + + + + + . . . . . + + + + + . . . . . . . . . . @ @ @ @ @ 4 4 4 4 4 + + + + + + + + + + + + + + + @ @ @ @ @           3 3 3 3 3 ",
"          . . . . . @ @ @ @ @ . . . . . . . . . . . . . . . @ @ @ @ @ . . . . . @ @ @ @ @ . . . . . . . . . . . . . . . . . . . . . . . . . . . . . .           ",
"          . . . . . @ @ @ @ @ . . . . . . . . . . . . . . . @ @ @ @ @ . . . . . @ @ @ @ @ . . . . . . . . . . . . . . . . . . . . . . . . . . . . . .           ",
"          . . . . . @ @ @ @ @ . . . . . . . . . . . . . . . @ @ @ @ @ . . . . . @ @ @ @ @ . . . . . . . . . . . . . . . . . . . . . . . . . . . . . .           ",
"          . . . . . @ @ @ @ @ . . . . . . . . . . . . . . . @ @ @ @ @ . . . . . @ @ @ @ @ . . . . . . . . . . . . . . . . . . . . . . . . . . . . . .           ",
"          . . . . . @ @ @ @ @ . . . . . . . . . . . . . . . @ @ @ @ @ . . . . . @ @ @ @ @ . . . . . . . . . . . . . . . . . . . . . . . . . . . . . .           ",
"          . . . . . . . . . . . . . . . @ @ @ @ @ @ @ @ @ @ @ @ @ @ @ . . . . . . . . . . @ @ @ @ @ . . . . . @ @ @ @ @ . . . . . @ @ @ @ @ @ @ @ @ @           ",
"          . . . . . . . . . . . . . . . @ @ @ @ @ @ @ @ @ @ @ @ @ @ @ . . . . . . . . . . @ @ @ @ @ . . . . . @ @ @ @ @ . . . . . @ @ @ @ @ @ @ @ @ @           ",
"          . . . . . . . . . . . . . . . @ @ @ @ @ @ @ @ @ @ @ @ @ @ @ . . . . . . . . . . @ @ @ @ @ . . . . . @ @ @ @ @ . . . . . @ @ @ @ @ @ @ @ @ @           ",
"          . . . . . . . . . . . . . . . @ @ @ @ @ @ @ @ @ @ @ @ @ @ @ . . . . . . . . . . @ @ @ @ @ . . . . . @ @ @ @ @ . . . . . @ @ @ @ @ @ @ @ @ @           ",
"          . . . . . . . . . . . . . . . @ @ @ @ @ @ @ @ @ @ @ @ @ @ @ . . . . . . . . . . @ @ @ @ @ . . . . . @ @ @ @ @ . . . . . @ @ @ @ @ @ @ @ @ @           ",
"          @ @ @ @ @ 3 3 3 3 3                               4 4 4 4 4 . . . . . @ @ @ @ @ 3 3 3 3 3                               4 4 4 4 4 . . . . .           ",
"          @ @ @ @ @ 3 3 3 3 3                               4 4 4 4 4 . . . . . @ @ @ @ @ 3 3 3 3 3                               4 4 4 4 4 . . . . .           ",
"          @ @ @ @ @ 3 3 3 3 3                               4 4 4 4 4 . . . . . @ @ @ @ @ 3 3 3 3 3                               4 4 4 4 4 . . . . .           ",
"          @ @ @ @ @ 3 3 3 3 3                               4 4 4 4 4 . . . . . @ @ @ @ @ 3 3 3 3 3                               4 4 4 4 4 . . . . .           ",
"          @ @ @ @ @ 3 3 3 3 3                               4 4 4 4 4 . . . . . @ @ @ @ @ 3 3 3 3 3                               4 4 4 4 4 . . . . .           ",
"          . . . . .           : : : : : 5 5 5 5 5 6 6 6 6 6 + + + + + . . . . . . . . . .           7 7 7 7 7 8 8 8 8 8 9 9 9 9 9 + + + + + . . . . .           ",
"          . . . . .           : : : : : 5 5 5 5 5 6 6 6 6 6 + + + + + . . . . . . . . . .           7 7 7 7 7 8 8 8 8 8 9 9 9 9 9 + + + + + . . . . .           ",
"          . . . . .           : : : : : 5 5 5 5 5 6 6 6 6 6 + + + + + . . . . . . . . . .           7 7 7 7 7 8 8 8 8 8 9 9 9 9 9 + + + + + . . . . .           ",
"          . . . . .           X X X X X 0 0 0 0 0 q q q q q + + + + + . . . . . . . . . .           w w w w w e e e e e X X X X X + + + + + . . . . .           ",
"          . . . . .           X X X X X 0 0 0 0 0 q q q q q + + + + + . . . . . . . . . .           w w w w w e e e e e X X X X X + + + + + . . . . .           ",
"3 3 3 3 3 @ @ @ @ @ 3 3 3 3 3 X X X X X 0 0 0 0 0 q q q q q . . . . . . . . . . @ @ @ @ @           w w w w w e e e e e X X X X X . . . . . @ @ @ @ @ 3 3 3 3 3 ",
"3 3 3 3 3 @ @ @ @ @ 3 3 3 3 3 X X X X X 0 0 0 0 0 q q q q q . . . . . . . . . . @ @ @ @ @           w w w w w e e e e e X X X X X . . . . . @ @ @ @ @ 3 3 3 3 3 ",
"3 3 3 3 3 @ @ @ @ @ 3 3 3 3 3 X X X X X 0 0 0 0 0 q q q q q . . . . . . . . . . @ @ @ @ @           w w w w w e e e e e X X X X X . . . . . @ @ @ @ @ 3 3 3 3 3 ",
"3 3 3 3 3 @ @ @ @ @ 3 3 3 3 3 r r r r r : : : : : t t t t t . . . . . . . . . . @ @ @ @ @           y y y y y u u u u u 2 2 2 2 2 . . . . . @ @ @ @ @ 3 3 3 3 3 ",
"3 3 3 3 3 @ @ @ @ @ 3 3 3 3 3 r r r r r : : : : : t t t t t . . . . . . . . . . @ @ @ @ @           y y y y y u u u u u 2 2 2 2 2 . . . . . @ @ @ @ @ 3 3 3 3 3 ",
"          @ @ @ @ @           r r r r r : : : : : t t t t t + + + + + . . . . . @ @ @ @ @           y y y y y u u u u u 2 2 2 2 2 + + + + + . . . . .           ",
"          @ @ @ @ @           r r r r r : : : : : t t t t t + + + + + . . . . . @ @ @ @ @           y y y y y u u u u u 2 2 2 2 2 + + + + + . . . . .           ",
"          @ @ @ @ @           r r r r r : : : : : t t t t t + + + + + . . . . . @ @ @ @ @           y y y y y u u u u u 2 2 2 2 2 + + + + + . . . . .           ",
"          @ @ @ @ @           i i i i i p p p p p 9 9 9 9 9 + + + + + . . . . . @ @ @ @ @           a a a a a s s s s s # # # # # + + + + + . . . . .           ",
"          @ @ @ @ @           i i i i i p p p p p 9 9 9 9 9 + + + + + . . . . . @ @ @ @ @           a a a a a s s s s s # # # # # + + + + + . . . . .           ",
"          . . . . . 4 4 4 4 4 . . . . . + + + + + + + + + + . . . . . . . . . . @ @ @ @ @ 4 4 4 4 4 . . . . . + + + + + + + + + + + + + + + @ @ @ @ @           ",
"          . . . . . 4 4 4 4 4 . . . . . + + + + + + + + + + . . . . . . . . . . @ @ @ @ @ 4 4 4 4 4 . . . . . + + + + + + + + + + + + + + + @ @ @ @ @           ",
"          . . . . . 4 4 4 4 4 . . . . . + + + + + + + + + + . . . . . . . . . . @ @ @ @ @ 4 4 4 4 4 . . . . . + + + + + + + + + + + + + + + @ @ @ @ @           ",
"          . . . . . 4 4 4 4 4 . . . . . + + + + + + + + + + . . . . . . . . . . @ @ @ @ @ 4 4 4 4 4 . . . . . + + + + + + + + + + + + + + + @ @ @ @ @           ",
"          . . . . . 4 4 4 4 4 . . . . . + + + + + + + + + + . . . . . . . . . . @ @ @ @ @ 4 4 4 4 4 . . . . . + + + + + + + + + + + + + + + @ @ @ @ @           ",
"          @ @ @ @ @ . . . . . . . . . . . . . . . . . . . . @ @ @ @ @ . . . . . @ @ @ @ @ . . . . . . . . . . . . . . . . . . . . . . . . . @ @ @ @ @           ",
"          @ @ @ @ @ . . . . . . . . . . . . . . . . . . . . @ @ @ @ @ . . . . . @ @ @ @ @ . . . . . . . . . . . . . . . . . . . . . . . . . @ @ @ @ @           ",
"          @ @ @ @ @ . . . . . . . . . . . . . . . . . . . . @ @ @ @ @ . . . . . @ @ @ @ @ . . . . . . . . . . . . . . . . . . . . . . . . . @ @ @ @ @           ",
"          @ @ @ @ @ . . . . . . . . . . . . . . . . . . . . @ @ @ @ @ . . . . . @ @ @ @ @ . . . . . . . . . . . . . . . . . . . . . . . . . @ @ @ @ @           ",
"          @ @ @ @ @ . . . . . . . . . . . . . . . . . . . . @ @ @ @ @ . . . . . @ @ @ @ @ . . . . . . . . . . . . . . . . . . . . . . . . . @ @ @ @ @           ",
"3 3 3 3 3 3 3 3 3 3 3 3 3 3 3 3 3 3 3 3 3 3 3 3 3 3 3 3 3 3 3 3 3 3 3 3 3 3 3 3 3 3 3 3 3 3 3 3 3 3 3 3 3 3 3 3 3 3 3 3 3 3 3 3 3 3 3 3 3 3 3 3 3 3 3 3 3 3 3 3 ",
"3 3 3 3 3 3 3 3 3 3 3 3 3 3 3 3 3 3 3 3 3 3 3 3 3 3 3 3 3 3 3 3 3 3 3 3 3 3 3 3 3 3 3 3 3 3 3 3 3 3 3 3 3 3 3 3 3 3 3 3 3 3 3 3 3 3 3 3 3 3 3 3 3 3 3 3 3 3 3 3 ",
"3 3 3 3 3 3 3 3 3 3 3 3 3 3 3 3 3 3 3 3 3 3 3 3 3 3 3 3 3 3 3 3 3 3 3 3 3 3 3 3 3 3 3 3 3 3 3 3 3 3 3 3 3 3 3 3 3 3 3 3 3 3 3 3 3 3 3 3 3 3 3 3 3 3 3 3 3 3 3 3 ",
"3 3 3 3 3 3 3 3 3 3 3 3 3 3 3 3 3 3 3 3 3 3 3 3 3 3 3 3 3 3 3 3 3 3 3 3 3 3 3 3 3 3 3 3 3 3 3 3 3 3 3 3 3 3 3 3 3 3 3 3 3 3 3 3 3 3 3 3 3 3 3 3 3 3 3 3 3 3 3 3 ",
"3 3 3 3 3 3 3 3 3 3 3 3 3 3 3 3 3 3 3 3 3 3 3 3 3 3 3 3 3 3 3 3 3 3 3 3 3 3 3 3 3 3 3 3 3 3 3 3 3 3 3 3 3 3 3 3 3 3 3 3 3 3 3 3 3 3 3 3 3 3 3 3 3 3 3 3 3 3 3 3 ",
"d d d d d 9 9 9 9 9 f f f f f g g g g g h h h h h j j j j j k k k k k l l l l l z z z z z : : : : : x x x x x c c c c c v v v v v b b b b b n n n n n m m m m m ",
"d d d d d 9 9 9 9 9 f f f f f g g g g g h h h h h j j j j j k k k k k l l l l l z z z z z : : : : : x x x x x c c c c c v v v v v b b b b b n n n n n m m m m m ",
"d d d d d 9 9 9 9 9 f f f f f g g g g g h h h h h j j j j j k k k k k l l l l l z z z z z : : : : : x x x x x c c c c c v v v v v b b b b b n n n n n m m m m m ",
"k k k k k M M M M M N N N N N B B B B B f f f f f V V V V V C C C C C Z Z Z Z Z A A A A A S S S S S D D D D D F F F F F G G G G G > > > > > H H H H H > > > > > ",
"k k k k k M M M M M N N N N N B B B B B f f f f f V V V V V C C C C C Z Z Z Z Z A A A A A S S S S S D D D D D F F F F F G G G G G > > > > > H H H H H > > > > > ",
"k k k k k M M M M M N N N N N B B B B B f f f f f V V V V V C C C C C Z Z Z Z Z A A A A A S S S S S D D D D D F F F F F G G G G G > > > > > H H H H H > > > > > ",
"k k k k k M M M M M N N N N N B B B B B f f f f f V V V V V C C C C C Z Z Z Z Z A A A A A S S S S S D D D D D F F F F F G G G G G > > > > > H H H H H > > > > > ",
"k k k k k M M M M M N N N N N B B B B B f f f f f V V V V V C C C C C Z Z Z Z Z A A A A A S S S S S D D D D D F F F F F G G G G G > > > > > H H H H H > > > > > ",
"J J J J J 2 2 2 2 2 K K K K K L L L L L P P P P P I I I I I U U U U U G G G G G Y Y Y Y Y 9 9 9 9 9 T T T T T R R R R R E E E E E W W W W W Q Q Q Q Q ! ! ! ! ! ",
"J J J J J 2 2 2 2 2 K K K K K L L L L L P P P P P I I I I I U U U U U G G G G G Y Y Y Y Y 9 9 9 9 9 T T T T T R R R R R E E E E E W W W W W Q Q Q Q Q ! ! ! ! ! ",
"J J J J J 2 2 2 2 2 K K K K K L L L L L P P P P P I I I I I U U U U U G G G G G Y Y Y Y Y 9 9 9 9 9 T T T T T R R R R R E E E E E W W W W W Q Q Q Q Q ! ! ! ! ! ",
"J J J J J 2 2 2 2 2 K K K K K L L L L L P P P P P I I I I I U U U U U G G G G G Y Y Y Y Y 9 9 9 9 9 T T T T T R R R R R E E E E E W W W W W Q Q Q Q Q ! ! ! ! ! ",
"J J J J J 2 2 2 2 2 K K K K K L L L L L P P P P P I I I I I U U U U U G G G G G Y Y Y Y Y 9 9 9 9 9 T T T T T R R R R R E E E E E W W W W W Q Q Q Q Q ! ! ! ! ! ",
"2 2 2 2 2 ~ ~ ~ ~ ~ ^ ^ ^ ^ ^ / / / / / ( ( ( ( ( : : : : : ) ) ) ) ) _ _ _ _ _ ` ` ` ` ` ' ' ' ' ' ] ] ] ] ] [ [ [ [ [ { { { { { } } } } } | | | | |  . . . . .",
"2 2 2 2 2 ~ ~ ~ ~ ~ ^ ^ ^ ^ ^ / / / / / ( ( ( ( ( : : : : : ) ) ) ) ) _ _ _ _ _ ` ` ` ` ` ' ' ' ' ' ] ] ] ] ] [ [ [ [ [ { { { { { } } } } } | | | | |  . . . . .",
"2 2 2 2 2 ~ ~ ~ ~ ~ ^ ^ ^ ^ ^ / / / / / ( ( ( ( ( : : : : : ) ) ) ) ) _ _ _ _ _ ` ` ` ` ` ' ' ' ' ' ] ] ] ] ] [ [ [ [ [ { { { { { } } } } } | | | | |  . . . . .",
"2 2 2 2 2 ~ ~ ~ ~ ~ ^ ^ ^ ^ ^ / / / / / ( ( ( ( ( : : : : : ) ) ) ) ) _ _ _ _ _ ` ` ` ` ` ' ' ' ' ' ] ] ] ] ] [ [ [ [ [ { { { { { } } } } } | | | | |  . . . . .",
"2 2 2 2 2 ~ ~ ~ ~ ~ ^ ^ ^ ^ ^ / / / / / ( ( ( ( ( : : : : : ) ) ) ) ) _ _ _ _ _ ` ` ` ` ` ' ' ' ' ' ] ] ] ] ] [ [ [ [ [ { { { { { } } } } } | | | | |  . . . . ."
};
