/* XPM */
static char *trapdoor21717786984[] = {
/* columns rows colors chars-per-pixel */
"80 80 128 2 ",
"   c #625029",
".  c #9C794A",
"X  c #8B7141",
"o  c #4A3C20",
"O  c #735D31",
"+  c #5E722F",
"@  c #5F732D",
"#  c #5B6E30",
"$  c #B38C51",
"%  c #627730",
"&  c #607632",
"*  c #5E732D",
"=  c #688026",
"-  c #596C2F",
";  c #647D29",
":  c #62792B",
">  c #688028",
",  c #5F7333",
"<  c #60782B",
"1  c #69822B",
"2  c #63792F",
"3  c #5A6D2F",
"4  c #677F2C",
"5  c #63792B",
"6  c #6D8533",
"7  c #627929",
"8  c #607432",
"9  c #5D7130",
"0  c #5F7626",
"q  c #5E722B",
"w  c #688226",
"e  c #657E29",
"r  c #677E2D",
"t  c #5D7133",
"y  c #5D6F32",
"u  c #677F25",
"i  c #62792F",
"p  c #6E8926",
"a  c #687F25",
"s  c #677C37",
"d  c #56682D",
"f  c #647C2B",
"g  c #677F28",
"h  c #5A6D30",
"j  c #5D7228",
"k  c #60742C",
"l  c #607730",
"z  c #60762C",
"x  c #596C30",
"c  c #5E7230",
"v  c #5B712C",
"b  c #5E742C",
"n  c #688325",
"m  c #637732",
"M  c #5D6F30",
"N  c #5A6D33",
"B  c #6C8525",
"V  c #688228",
"C  c #505F2C",
"Z  c #718C26",
"A  c #57692D",
"S  c #607433",
"D  c #5D712F",
"F  c #596C33",
"G  c #6F8929",
"H  c #637733",
"J  c #6C8628",
"K  c #5F742C",
"L  c #799729",
"P  c #607729",
"I  c #62782F",
"U  c #596C2D",
"Y  c #698325",
"T  c #5B6F2F",
"R  c #5F742F",
"E  c #62792C",
"W  c #60772D",
"Q  c #6B832F",
"!  c #637C28",
"~  c #596B2F",
"^  c #53642D",
"/  c #657C2F",
"(  c #5D722C",
")  c #657D2F",
"_  c #5F7430",
"`  c #677E25",
"'  c #60762F",
"]  c #56692B",
"[  c #678223",
"{  c #637A2B",
"}  c #698323",
"|  c #647D2B",
" . c #5D6F33",
".. c #688223",
"X. c #6E8A23",
"o. c #698329",
"O. c #5E7429",
"+. c #52642B",
"@. c #5B6E2F",
"#. c #5E732C",
"$. c #637833",
"%. c #627634",
"&. c #63782F",
"*. c #5F7332",
"=. c #688029",
"-. c #5B6F33",
";. c #677E26",
":. c #5B6F2D",
">. c #637A2C",
",. c #5E712F",
"<. c #6F8B25",
"1. c #627925",
"2. c #657F22",
"3. c #6B8525",
"4. c #607728",
"5. c #6B8623",
"6. c #5E7430",
"7. c #677F29",
"8. c #698025",
"9. c #596D2B",
"0. c #657939",
"q. c #5D7329",
"w. c #647A2F",
"e. c #6E8829",
"r. c #576B30",
"t. c #5F7330",
"y. c #6F8C25",
"u. c #637A25",
/* pixels */
"          . . . . . X X X X X . . . . . . . . . . . . . . . X X X X X . . . . . X X X X X . . . . . . . . . . . . . . . . . . . . . . . . . . . . . .           ",
"          . . . . . X X X X X . . . . . . . . . . . . . . . X X X X X . . . . . X X X X X . . . . . . . . . . . . . . . . . . . . . . . . . . . . . .           ",
"          . . . . . X X X X X . . . . . . . . . . . . . . . X X X X X . . . . . X X X X X . . . . . . . . . . . . . . . . . . . . . . . . . . . . . .           ",
"          . . . . . X X X X X . . . . . . . . . . . . . . . X X X X X . . . . . X X X X X . . . . . . . . . . . . . . . . . . . . . . . . . . . . . .           ",
"          . . . . . . . . . . . . . . . X X X X X X X X X X X X X X X . . . . . . . . . . X X X X X . . . . . X X X X X . . . . . X X X X X X X X X X           ",
"          . . . . . . . . . . . . . . . X X X X X X X X X X X X X X X . . . . . . . . . . X X X X X . . . . . X X X X X . . . . . X X X X X X X X X X           ",
"          . . . . . . . . . . . . . . . X X X X X X X X X X X X X X X . . . . . . . . . . X X X X X . . . . . X X X X X . . . . . X X X X X X X X X X           ",
"          . . . . . . . . . . . . . . . X X X X X X X X X X X X X X X . . . . . . . . . . X X X X X . . . . . X X X X X . . . . . X X X X X X X X X X           ",
"          . . . . . . . . . . . . . . . X X X X X X X X X X X X X X X . . . . . . . . . . X X X X X . . . . . X X X X X . . . . . X X X X X X X X X X           ",
"          X X X X X o o o o o                               O O O O O . . . . . X X X X X o o o o o                               O O O O O . . . . .           ",
"          X X X X X o o o o o                               O O O O O . . . . . X X X X X o o o o o                               O O O O O . . . . .           ",
"          X X X X X o o o o o                               O O O O O . . . . . X X X X X o o o o o                               O O O O O . . . . .           ",
"          X X X X X o o o o o                               O O O O O . . . . . X X X X X o o o o o                               O O O O O . . . . .           ",
"          X X X X X o o o o o                               O O O O O . . . . . X X X X X o o o o o                               O O O O O . . . . .           ",
"          . . . . .           + + + + + @ @ @ @ @ # # # # # $ $ $ $ $ . . . . . . . . . .           % % % % % & & & & & * * * * * $ $ $ $ $ . . . . .           ",
"          . . . . .           = = = = = - - - - - ; ; ; ; ; $ $ $ $ $ . . . . . . . . . .           : : : : : > > > > > , , , , , $ $ $ $ $ . . . . .           ",
"          . . . . .           = = = = = - - - - - ; ; ; ; ; $ $ $ $ $ . . . . . . . . . .           : : : : : > > > > > , , , , , $ $ $ $ $ . . . . .           ",
"          . . . . .           = = = = = - - - - - ; ; ; ; ; $ $ $ $ $ . . . . . . . . . .           : : : : : > > > > > , , , , , $ $ $ $ $ . . . . .           ",
"          . . . . .           = = = = = - - - - - ; ; ; ; ; $ $ $ $ $ . . . . . . . . . .           : : : : : > > > > > , , , , , $ $ $ $ $ . . . . .           ",
"o o o o o X X X X X o o o o o = = = = = - - - - - ; ; ; ; ; . . . . . . . . . . X X X X X           : : : : : > > > > > , , , , , . . . . . X X X X X o o o o o ",
"o o o o o X X X X X o o o o o < < < < < 1 1 1 1 1 2 2 2 2 2 . . . . . . . . . . X X X X X           3 3 3 3 3 4 4 4 4 4 5 5 5 5 5 . . . . . X X X X X o o o o o ",
"o o o o o X X X X X o o o o o < < < < < 1 1 1 1 1 2 2 2 2 2 . . . . . . . . . . X X X X X           3 3 3 3 3 4 4 4 4 4 5 5 5 5 5 . . . . . X X X X X o o o o o ",
"o o o o o X X X X X o o o o o < < < < < 1 1 1 1 1 2 2 2 2 2 . . . . . . . . . . X X X X X           3 3 3 3 3 4 4 4 4 4 5 5 5 5 5 . . . . . X X X X X o o o o o ",
"o o o o o X X X X X o o o o o < < < < < 1 1 1 1 1 2 2 2 2 2 . . . . . . . . . . X X X X X           3 3 3 3 3 4 4 4 4 4 5 5 5 5 5 . . . . . X X X X X o o o o o ",
"          X X X X X           < < < < < 1 1 1 1 1 2 2 2 2 2 $ $ $ $ $ . . . . . X X X X X           3 3 3 3 3 4 4 4 4 4 5 5 5 5 5 $ $ $ $ $ . . . . .           ",
"          X X X X X           6 6 6 6 6 7 7 7 7 7 8 8 8 8 8 $ $ $ $ $ . . . . . X X X X X           9 9 9 9 9 0 0 0 0 0 q q q q q $ $ $ $ $ . . . . .           ",
"          X X X X X           6 6 6 6 6 7 7 7 7 7 8 8 8 8 8 $ $ $ $ $ . . . . . X X X X X           9 9 9 9 9 0 0 0 0 0 q q q q q $ $ $ $ $ . . . . .           ",
"          X X X X X           6 6 6 6 6 7 7 7 7 7 8 8 8 8 8 $ $ $ $ $ . . . . . X X X X X           9 9 9 9 9 0 0 0 0 0 q q q q q $ $ $ $ $ . . . . .           ",
"          X X X X X           6 6 6 6 6 7 7 7 7 7 8 8 8 8 8 $ $ $ $ $ . . . . . X X X X X           9 9 9 9 9 0 0 0 0 0 q q q q q $ $ $ $ $ . . . . .           ",
"          . . . . . O O O O O . . . . . $ $ $ $ $ $ $ $ $ $ . . . . . . . . . . X X X X X O O O O O . . . . . $ $ $ $ $ $ $ $ $ $ $ $ $ $ $ X X X X X           ",
"          . . . . . O O O O O . . . . . $ $ $ $ $ $ $ $ $ $ . . . . . . . . . . X X X X X O O O O O . . . . . $ $ $ $ $ $ $ $ $ $ $ $ $ $ $ X X X X X           ",
"          . . . . . O O O O O . . . . . $ $ $ $ $ $ $ $ $ $ . . . . . . . . . . X X X X X O O O O O . . . . . $ $ $ $ $ $ $ $ $ $ $ $ $ $ $ X X X X X           ",
"          . . . . . O O O O O . . . . . $ $ $ $ $ $ $ $ $ $ . . . . . . . . . . X X X X X O O O O O . . . . . $ $ $ $ $ $ $ $ $ $ $ $ $ $ $ X X X X X           ",
"          . . . . . O O O O O . . . . . $ $ $ $ $ $ $ $ $ $ . . . . . . . . . . X X X X X O O O O O . . . . . $ $ $ $ $ $ $ $ $ $ $ $ $ $ $ X X X X X           ",
"          X X X X X . . . . . . . . . . . . . . . . . . . . X X X X X . . . . . X X X X X . . . . . . . . . . . . . . . . . . . . . . . . . X X X X X           ",
"          X X X X X . . . . . . . . . . . . . . . . . . . . X X X X X . . . . . X X X X X . . . . . . . . . . . . . . . . . . . . . . . . . X X X X X           ",
"          X X X X X . . . . . . . . . . . . . . . . . . . . X X X X X . . . . . X X X X X . . . . . . . . . . . . . . . . . . . . . . . . . X X X X X           ",
"          X X X X X . . . . . . . . . . . . . . . . . . . . X X X X X . . . . . X X X X X . . . . . . . . . . . . . . . . . . . . . . . . . X X X X X           ",
"          X X X X X . . . . . . . . . . . . . . . . . . . . X X X X X . . . . . X X X X X . . . . . . . . . . . . . . . . . . . . . . . . . X X X X X           ",
"o o o o o o o o o o o o o o o o o o o o o o o o o o o o o o o o o o o o o o o o o o o o o o o o o o o o o o o o o o o o o o o o o o o o o o o o o o o o o o o o ",
"o o o o o o o o o o o o o o o o o o o o o o o o o o o o o o o o o o o o o o o o o o o o o o o o o o o o o o o o o o o o o o o o o o o o o o o o o o o o o o o o ",
"o o o o o o o o o o o o o o o o o o o o o o o o o o o o o o o o o o o o o o o o o o o o o o o o o o o o o o o o o o o o o o o o o o o o o o o o o o o o o o o o ",
"o o o o o o o o o o o o o o o o o o o o o o o o o o o o o o o o o o o o o o o o o o o o o o o o o o o o o o o o o o o o o o o o o o o o o o o o o o o o o o o o ",
"o o o o o o o o o o o o o o o o o o o o o o o o o o o o o o o o o o o o o o o o o o o o o o o o o o o o o o o o o o o o o o o o o o o o o o o o o o o o o o o o ",
"w w w w w e e e e e r r r r r t t t t t y y y y y u u u u u i i i i i p p p p p a a a a a s s s s s d d d d d f f f f f * * * * * g g g g g # # # # # h h h h h ",
"j j j j j k k k k k l l l l l z z z z z x x x x x c c c c c v v v v v b b b b b n n n n n c c c c c g g g g g m m m m m M M M M M N N N N N B B B B B , , , , , ",
"j j j j j k k k k k l l l l l z z z z z x x x x x c c c c c v v v v v b b b b b n n n n n c c c c c g g g g g m m m m m M M M M M N N N N N B B B B B , , , , , ",
"j j j j j k k k k k l l l l l z z z z z x x x x x c c c c c v v v v v b b b b b n n n n n c c c c c g g g g g m m m m m M M M M M N N N N N B B B B B , , , , , ",
"j j j j j k k k k k l l l l l z z z z z x x x x x c c c c c v v v v v b b b b b n n n n n c c c c c g g g g g m m m m m M M M M M N N N N N B B B B B , , , , , ",
"j j j j j k k k k k l l l l l z z z z z x x x x x c c c c c v v v v v b b b b b n n n n n c c c c c g g g g g m m m m m M M M M M N N N N N B B B B B , , , , , ",
"= = = = = V V V V V C C C C C Z Z Z Z Z A A A A A S S S S S D D D D D F F F F F G G G G G H H H H H J J J J J K K K K K + + + + + L L L L L * * * * * 9 9 9 9 9 ",
"= = = = = V V V V V C C C C C Z Z Z Z Z A A A A A S S S S S D D D D D F F F F F G G G G G H H H H H J J J J J K K K K K + + + + + L L L L L * * * * * 9 9 9 9 9 ",
"= = = = = V V V V V C C C C C Z Z Z Z Z A A A A A S S S S S D D D D D F F F F F G G G G G H H H H H J J J J J K K K K K + + + + + L L L L L * * * * * 9 9 9 9 9 ",
"= = = = = V V V V V C C C C C Z Z Z Z Z A A A A A S S S S S D D D D D F F F F F G G G G G H H H H H J J J J J K K K K K + + + + + L L L L L * * * * * 9 9 9 9 9 ",
"= = = = = V V V V V C C C C C Z Z Z Z Z A A A A A S S S S S D D D D D F F F F F G G G G G H H H H H J J J J J K K K K K + + + + + L L L L L * * * * * 9 9 9 9 9 ",
"P P P P P 2 2 2 2 2 I I I I I U U U U U Y Y Y Y Y T T T T T R R R R R 3 3 3 3 3 E E E E E W W W W W 9 9 9 9 9 Q Q Q Q Q ! ! ! ! ! P P P P P ~ ~ ~ ~ ~ ^ ^ ^ ^ ^ ",
"P P P P P 2 2 2 2 2 I I I I I U U U U U Y Y Y Y Y T T T T T R R R R R 3 3 3 3 3 E E E E E W W W W W 9 9 9 9 9 Q Q Q Q Q ! ! ! ! ! P P P P P ~ ~ ~ ~ ~ ^ ^ ^ ^ ^ ",
"P P P P P 2 2 2 2 2 I I I I I U U U U U Y Y Y Y Y T T T T T R R R R R 3 3 3 3 3 E E E E E W W W W W 9 9 9 9 9 Q Q Q Q Q ! ! ! ! ! P P P P P ~ ~ ~ ~ ~ ^ ^ ^ ^ ^ ",
"P P P P P 2 2 2 2 2 I I I I I U U U U U Y Y Y Y Y T T T T T R R R R R 3 3 3 3 3 E E E E E W W W W W 9 9 9 9 9 Q Q Q Q Q ! ! ! ! ! P P P P P ~ ~ ~ ~ ~ ^ ^ ^ ^ ^ ",
"P P P P P 2 2 2 2 2 I I I I I U U U U U Y Y Y Y Y T T T T T R R R R R 3 3 3 3 3 E E E E E W W W W W 9 9 9 9 9 Q Q Q Q Q ! ! ! ! ! P P P P P ~ ~ ~ ~ ~ ^ ^ ^ ^ ^ ",
"/ / / / / c c c c c ( ( ( ( ( ) ) ) ) ) _ _ _ _ _ ` ` ` ` ` ' ' ' ' ' ] ] ] ] ] [ [ [ [ [ y y y y y { { { { { } } } } } | | | | |  . . . . ...........X.X.X.X.X.",
"/ / / / / c c c c c ( ( ( ( ( ) ) ) ) ) _ _ _ _ _ ` ` ` ` ` ' ' ' ' ' ] ] ] ] ] [ [ [ [ [ y y y y y { { { { { } } } } } | | | | |  . . . . ...........X.X.X.X.X.",
"/ / / / / c c c c c ( ( ( ( ( ) ) ) ) ) _ _ _ _ _ ` ` ` ` ` ' ' ' ' ' ] ] ] ] ] [ [ [ [ [ y y y y y { { { { { } } } } } | | | | |  . . . . ...........X.X.X.X.X.",
"/ / / / / c c c c c ( ( ( ( ( ) ) ) ) ) _ _ _ _ _ ` ` ` ` ` ' ' ' ' ' ] ] ] ] ] [ [ [ [ [ y y y y y { { { { { } } } } } | | | | |  . . . . ...........X.X.X.X.X.",
"/ / / / / c c c c c ( ( ( ( ( ) ) ) ) ) _ _ _ _ _ ` ` ` ` ` ' ' ' ' ' ] ] ] ] ] [ [ [ [ [ y y y y y { { { { { } } } } } | | | | |  . . . . ...........X.X.X.X.X.",
"' ' ' ' ' o.o.o.o.o.O.O.O.O.O.+.+.+.+.+.( ( ( ( ( @.@.@.@.@.#.#.#.#.#.$.$.$.$.$.p p p p p %.%.%.%.%.&.&.&.&.&.> > > > > *.*.*.*.*.+ + + + + =.=.=.=.=.+ + + + + ",
"' ' ' ' ' o.o.o.o.o.O.O.O.O.O.+.+.+.+.+.( ( ( ( ( @.@.@.@.@.#.#.#.#.#.$.$.$.$.$.p p p p p %.%.%.%.%.&.&.&.&.&.> > > > > *.*.*.*.*.+ + + + + =.=.=.=.=.+ + + + + ",
"' ' ' ' ' o.o.o.o.o.O.O.O.O.O.+.+.+.+.+.( ( ( ( ( @.@.@.@.@.#.#.#.#.#.$.$.$.$.$.p p p p p %.%.%.%.%.&.&.&.&.&.> > > > > *.*.*.*.*.+ + + + + =.=.=.=.=.+ + + + + ",
"' ' ' ' ' o.o.o.o.o.O.O.O.O.O.+.+.+.+.+.( ( ( ( ( @.@.@.@.@.#.#.#.#.#.$.$.$.$.$.p p p p p %.%.%.%.%.&.&.&.&.&.> > > > > *.*.*.*.*.+ + + + + =.=.=.=.=.+ + + + + ",
"' ' ' ' ' o.o.o.o.o.O.O.O.O.O.+.+.+.+.+.( ( ( ( ( @.@.@.@.@.#.#.#.#.#.$.$.$.$.$.p p p p p %.%.%.%.%.&.&.&.&.&.> > > > > *.*.*.*.*.+ + + + + =.=.=.=.=.+ + + + + ",
"-.-.-.-.-.* * * * * ;.;.;.;.;.:.:.:.:.:.>.>.>.>.>.,.,.,.,.,.<.<.<.<.<.*.*.*.*.*.1.1.1.1.1.c c c c c 2.2.2.2.2.3.3.3.3.3., , , , , 4.4.4.4.4.5.5.5.5.5.6.6.6.6.6.",
"-.-.-.-.-.* * * * * ;.;.;.;.;.:.:.:.:.:.>.>.>.>.>.,.,.,.,.,.<.<.<.<.<.*.*.*.*.*.1.1.1.1.1.c c c c c 2.2.2.2.2.3.3.3.3.3., , , , , 4.4.4.4.4.5.5.5.5.5.6.6.6.6.6.",
"-.-.-.-.-.* * * * * ;.;.;.;.;.:.:.:.:.:.>.>.>.>.>.,.,.,.,.,.<.<.<.<.<.*.*.*.*.*.1.1.1.1.1.c c c c c 2.2.2.2.2.3.3.3.3.3., , , , , 4.4.4.4.4.5.5.5.5.5.6.6.6.6.6.",
"-.-.-.-.-.* * * * * ;.;.;.;.;.:.:.:.:.:.>.>.>.>.>.,.,.,.,.,.<.<.<.<.<.*.*.*.*.*.1.1.1.1.1.c c c c c 2.2.2.2.2.3.3.3.3.3., , , , , 4.4.4.4.4.5.5.5.5.5.6.6.6.6.6.",
"-.-.-.-.-.* * * * * ;.;.;.;.;.:.:.:.:.:.>.>.>.>.>.,.,.,.,.,.<.<.<.<.<.*.*.*.*.*.1.1.1.1.1.c c c c c 2.2.2.2.2.3.3.3.3.3., , , , , 4.4.4.4.4.5.5.5.5.5.6.6.6.6.6.",
"* * * * * 7.7.7.7.7.8.8.8.8.8.9.9.9.9.9.0.0.0.0.0.y y y y y q.q.q.q.q.w.w.w.w.w.n n n n n e.e.e.e.e.r.r.r.r.r.t.t.t.t.t.y.y.y.y.y.E E E E E K K K K K u.u.u.u.u.",
"* * * * * 7.7.7.7.7.8.8.8.8.8.9.9.9.9.9.0.0.0.0.0.y y y y y q.q.q.q.q.w.w.w.w.w.n n n n n e.e.e.e.e.r.r.r.r.r.t.t.t.t.t.y.y.y.y.y.E E E E E K K K K K u.u.u.u.u.",
"* * * * * 7.7.7.7.7.8.8.8.8.8.9.9.9.9.9.0.0.0.0.0.y y y y y q.q.q.q.q.w.w.w.w.w.n n n n n e.e.e.e.e.r.r.r.r.r.t.t.t.t.t.y.y.y.y.y.E E E E E K K K K K u.u.u.u.u.",
"* * * * * 7.7.7.7.7.8.8.8.8.8.9.9.9.9.9.0.0.0.0.0.y y y y y q.q.q.q.q.w.w.w.w.w.n n n n n e.e.e.e.e.r.r.r.r.r.t.t.t.t.t.y.y.y.y.y.E E E E E K K K K K u.u.u.u.u.",
"* * * * * 7.7.7.7.7.8.8.8.8.8.9.9.9.9.9.0.0.0.0.0.y y y y y q.q.q.q.q.w.w.w.w.w.n n n n n e.e.e.e.e.r.r.r.r.r.t.t.t.t.t.y.y.y.y.y.E E E E E K K K K K u.u.u.u.u."
};
