/* XPM */
static char *steve11717786984[] = {
/* columns rows colors chars-per-pixel */
"80 80 149 2 ",
"   c #5F7726",
".  c #60782F",
"X  c #5E7232",
"o  c #722325",
"O  c #722326",
"+  c #712325",
"@  c #722426",
"#  c #657A34",
"$  c #607828",
"%  c #5E722F",
"&  c #6C8626",
"*  c #62782B",
"=  c #5B6F32",
"-  c #6C8623",
";  c #5F7330",
":  c #698229",
">  c #FEB184",
",  c #FEB185",
"<  c #FFB285",
"1  c #FEB285",
"2  c #5F7332",
"3  c #627832",
"4  c #647934",
"5  c #5F7629",
"6  c #6C8823",
"7  c #688030",
"8  c #5B6F2C",
"9  c #5B6E30",
"0  c #647C29",
"q  c #607432",
"w  c #637C2B",
"e  c #637C23",
"r  c #EB785E",
"t  c #EA785D",
"y  c #EA775D",
"u  c #EB785D",
"i  c #5E7133",
"p  c #5B6E2F",
"a  c #607730",
"s  c #5F7625",
"d  c #677D2D",
"f  c #5F7628",
"g  c #F3DFD7",
"h  c #F3DED6",
"j  c #000F8B",
"k  c #000E8B",
"l  c #000E8A",
"z  c #F3DFD6",
"x  c #F4DFD7",
"c  c #5B6E2D",
"v  c #5E7230",
"b  c #637A26",
"n  c #698323",
"m  c #5E732D",
"M  c #596D2B",
"N  c #BE5240",
"B  c #BF5341",
"V  c #BF5240",
"C  c #576C2B",
"Z  c #657E2B",
"A  c #576B2F",
"S  c #5F742F",
"D  c #D20000",
"F  c #5F742C",
"G  c #607630",
"H  c #657C33",
"J  c #657E2C",
"K  c #D10000",
"L  c #688226",
"P  c #657E29",
"I  c #677E2D",
"U  c #677F28",
"Y  c #5A6D30",
"T  c #5D7133",
"R  c #006C82",
"E  c #006D82",
"W  c #006C81",
"Q  c #5D7228",
"!  c #60742C",
"~  c #60762C",
"^  c #5D6F30",
"/  c #5A6D33",
"(  c #6C8525",
")  c #5F7333",
"_  c #006967",
"`  c #00B0AA",
"'  c #00B1AB",
"]  c #00B1AA",
"[  c #006A68",
"{  c #006A67",
"}  c #688026",
"|  c #688228",
" . c #505F2C",
".. c #718C26",
"X. c #799729",
"o. c #5D7130",
"O. c #607729",
"+. c #63792F",
"@. c #62782F",
"#. c #596C2D",
"$. c #637C28",
"%. c #596B2F",
"&. c #53642D",
"*. c #657C2F",
"=. c #5D722C",
"-. c #657D2F",
";. c #647D2B",
":. c #5D6F33",
">. c #688223",
",. c #6E8A23",
"<. c #002C73",
"1. c #002C74",
"2. c #004DA1",
"3. c #004CA0",
"4. c #120F72",
"5. c #131073",
"6. c #130F72",
"7. c #002D74",
"8. c #004CA1",
"9. c #5F7430",
"0. c #60762F",
"q. c #698329",
"w. c #5E7429",
"e. c #52642B",
"r. c #130F73",
"t. c #688028",
"y. c #688029",
"u. c #5B6F33",
"i. c #677E26",
"p. c #5B6F2D",
"a. c #637A2C",
"s. c #6B8525",
"d. c #607728",
"f. c #6B8623",
"g. c #5E7430",
"h. c #6B7473",
"j. c #6C7574",
"k. c #A4ADB0",
"l. c #A4AEB0",
"z. c #A3ADAF",
"x. c #677F29",
"c. c #698025",
"v. c #657939",
"b. c #6C7473",
"n. c #6C7573",
"m. c #6F8C25",
"M. c #62792C",
"N. c #637A25",
"B. c #A4ADAF",
/* pixels */
"          . . . . . X X X o O O O + + @ + O o O O + O + @ o + @ @ O + @ + O O O o + O o O @ @ O o @ o o O O O o o O o O @ @ o o @ o @ # # # $ $ $ $ $ % % % % % ",
"          . . . . . X X X @ o @ o O O O O o O @ + + @ o + O O o O O @ o O O o O O o o @ + @ o O O O @ O O O O @ + + o O o + O O O @ + # # # $ $ $ $ $ % % % % % ",
"          . . . . . X X X o o O O @ o + O + O O + @ O O @ o @ O o O O o @ @ o @ O O o O o @ @ o @ + @ @ O o O O O @ @ o o O @ o @ o O # # # $ $ $ $ $ % % % % % ",
"          . . . . . X X X o @ O @ @ o + + @ O @ O o @ O @ o + + O + o @ O @ + O O @ @ + @ + o o @ + @ O + O o + @ o O O o o o o + + o # # # $ $ $ $ $ % % % % % ",
"          . . . . . X X X o O o O O O O O O @ o @ O @ O o @ @ @ o O O o + @ + O o o @ @ O @ O O + O + @ O O O @ @ O o @ O O o o o @ o # # # $ $ $ $ $ % % % % % ",
"& & & & & * * * * * = = = o O @ O O @ o O O O O + @ O O o O @ @ O + o + O @ o O + O O + O + @ O o o + O O @ + + @ O O o O @ O @ O O O - - - ; ; ; ; ; : : : : : ",
"& & & & & * * * * * = = = + O O o @ + o O o @ o + O O @ o O + @ @ O o O O o @ o o O O o O o + o @ @ o @ O O O + O @ @ @ O o O O O @ @ - - - ; ; ; ; ; : : : : : ",
"& & & & & * * * * * = = = o O O O O O O @ O + @ + O @ o O + @ o o @ O O O o o O o O O + O o O + @ @ o + @ o O O o O o @ o o O @ O + @ - - - ; ; ; ; ; : : : : : ",
"& & & & & * * * * * = = = O o O o O @ O O + + O o o o + O O O @ @ O + O O O O o O + + o + O o O O @ @ o o O + o o o @ + o O @ o O o O - - - ; ; ; ; ; : : : : : ",
"& & & & & * * * * * = = = @ @ @ O + O o + + + @ O O @ O @ O o > , , < 1 , , < 1 1 < , , , < , 1 < < 1 , , > 1 , , < < > , + O o O + O - - - ; ; ; ; ; : : : : : ",
"2 2 2 2 2 3 3 3 3 3 4 4 4 o @ o + @ o O O o + O O @ O O o O @ 1 , , < < , > 1 , , > 1 1 , , , , 1 , , , 1 < < , 1 , , < , O O O O + o 5 5 5 6 6 6 6 6 7 7 7 7 7 ",
"2 2 2 2 2 3 3 3 3 3 4 4 4 + o @ + o O O + @ + o + + + o @ O o 1 < , , , 1 < < 1 , 1 1 , , < , 1 , 1 1 , , 1 < < 1 1 , < 1 O + @ o + O 5 5 5 6 6 6 6 6 7 7 7 7 7 ",
"2 2 2 2 2 3 3 3 3 3 4 4 4 @ O O O O @ O + o o O O O + O O + @ < > , , > < , , , > 1 1 , , , , , , , 1 1 1 , < , 1 1 , 1 , @ O o @ + @ 5 5 5 6 6 6 6 6 7 7 7 7 7 ",
"2 2 2 2 2 3 3 3 3 3 4 4 4 O O O O O o O O o + o @ O @ o O O O , < , , > 1 , < > 1 < < < , , 1 < < , , > < < < < , , 1 , < o O @ O O + 5 5 5 6 6 6 6 6 7 7 7 7 7 ",
"2 2 2 2 2 3 3 3 3 3 4 4 4 o O @ O @ O @ @ o o o + @ + + @ o O < 1 1 < , 1 , < 1 , 1 , 1 > 1 , , 1 1 < , 1 < , , 1 , , , < o + O O O O 5 5 5 6 6 6 6 6 7 7 7 7 7 ",
"8 8 8 8 8 9 9 9 9 9 0 0 0 O @ O o O + O @ o O O , , 1 1 < , < 1 , , < , , , < , 1 < , < , 1 , , , 1 < , 1 , < 1 1 , 1 < , < , > < , 1 q q q w w w w w e e e e e ",
"8 8 8 8 8 9 9 9 9 9 0 0 0 o O @ o @ O o + O @ @ , , , , , < , 1 , < , 1 , , 1 > , 1 , 1 < 1 , , < 1 , 1 , , , < , , > , > , 1 > , , 1 q q q w w w w w e e e e e ",
"8 8 8 8 8 9 9 9 9 9 0 0 0 @ o O O o + @ O O o o 1 1 < > , , 1 1 , < 1 , < , < 1 , , , , , < , , 1 > , < < , , < , < > , , 1 < < 1 , < q q q w w w w w e e e e e ",
"8 8 8 8 8 9 9 9 9 9 0 0 0 o @ O r t y r r u y t , , , , > 1 , 1 , , , 1 < < , 1 , > , , < , 1 1 , 1 , , , < 1 > < 1 1 < , 1 , < , , < q q q w w w w w e e e e e ",
"8 8 8 8 8 9 9 9 9 9 0 0 0 + + + r u u r r r y r , < , 1 < , < 1 , 1 , , < , , < 1 , , 1 1 , < 1 , , 1 , 1 < < , 1 < , 1 , , 1 < 1 < 1 q q q w w w w w e e e e e ",
"i i i i i p p p p p a a a + O O r r r r r r y r , < 1 , , < , , < , > > , 1 , , , < < , < < , < , 1 1 < 1 , < < , , < , < , 1 < , > > s s s d d d d d f f f f f ",
"i i i i i p p p p p a a a @ + + r r u r r r r r < 1 , , , < , g g h g h g j k j k j j , 1 , 1 > , , , , j k l k j j g g g g z g , , < s s s d d d d d f f f f f ",
"i i i i i p p p p p a a a @ + o y y u r y r r r , , < , < < , g g g g g g k j l k j j 1 , , 1 1 < , < < l j j j j j z h g z g g , , 1 s s s d d d d d f f f f f ",
"i i i i i p p p p p a a a o O + y r r r t r r r , > < , , < 1 z g g g g g l l k j j k , , 1 , 1 < , < 1 k j j j l k g x g g g g , , < s s s d d d d d f f f f f ",
"i i i i i p p p p p a a a O o @ + + O @ o r r r , , , , , , 1 x g g g g g j j k k j j , 1 , 1 1 1 , < , l l k j k j g g g g g g 1 , , s s s d d d d d f f f f f ",
"c c c c c v v v v v b b b @ @ @ + O o o + r y r < 1 , , , , 1 g g g g g x j k k j l j < , < , < < < 1 , j l k j l j h x z g g g , , , n n n m m m m m M M M M M ",
"c c c c c v v v v v b b b O o o + O O O o y r r , < , , < 1 < g x g g z g k k k j j j , , < 1 1 , < , < k l k j l j z z h g g x 1 > , n n n m m m m m M M M M M ",
"c c c c c v v v v v b b b O o o O O O o o r r u 1 < , , , < > < , < , < 1 1 , 1 , , , N N B N V N N B N < < , > , , 1 , , > , 1 , , > n n n m m m m m M M M M M ",
"c c c c c v v v v v b b b @ O O @ o @ + + r r y 1 < , < , 1 , 1 1 , , 1 , , 1 < > , 1 N N N V B N N N N , 1 < , , < 1 < , 1 1 , 1 > , n n n m m m m m M M M M M ",
"c c c c c v v v v v b b b O O O + + + @ @ r t y , , 1 , , 1 , 1 < , < , < > < < 1 1 , N N N N N N N V V 1 > > < , 1 1 > 1 < , < , < 1 n n n m m m m m M M M M M ",
"C C C C C Z Z Z Z Z A A A @ O @ @ @ O o + y y r , 1 1 1 , , 1 1 1 1 , , , < < , < , < B N N N V N V N N , , , 1 1 < 1 1 , , < 1 1 1 , : : : S S S S S 9 9 9 9 9 ",
"C C C C C Z Z Z Z Z A A A r r u r r r t y u t y , < , 1 , 1 1 , 1 , 1 > , 1 1 , , 1 1 N N V N B N V V N 1 1 , > , < < > 1 , , , , > 1 : : : S S S S S 9 9 9 9 9 ",
"C C C C C Z Z Z Z Z A A A t y r y t r r r r r t , 1 < , < , , , 1 1 < < < 1 , , , < , N B N N V N B N N < , , 1 , 1 1 , < , 1 1 < , , : : : S S S S S 9 9 9 9 9 ",
"C C C C C Z Z Z Z Z A A A t y t t y y r r y y t , , , 1 < , < < 1 , , , , < 1 , , 1 1 B N B V V N N N N , , 1 , 1 , < < , > 1 , , , > : : : S S S S S 9 9 9 9 9 ",
"C C C C C Z Z Z Z Z A A A r y t y y r r y r y u , > > < , , , > 1 < 1 1 , D D < 1 , , > < , 1 1 , , < , , , , 1 D D , < , 1 , , < , < : : : S S S S S 9 9 9 9 9 ",
"= = = = = F F F F F G G G r y y t r r y y y y r , , 1 , 1 1 , , < , 1 , , D D < 1 , 1 < < , > 1 < 1 1 , 1 , , 1 D D 1 < , , < < < 1 , i i i H H H H H J J J J J ",
"= = = = = F F F F F G G G r u y y r r r r r r y 1 < , , 1 1 < < , , , , < D K D K D K K D D K K D K K D D K D K D D , < , < < 1 1 < , i i i H H H H H J J J J J ",
"= = = = = F F F F F G G G u r r r r r r r r y r , 1 < , 1 , < < < < 1 1 , K D K D K D D D K D D D D K K D K D D D K , > < > 1 1 , , 1 i i i H H H H H J J J J J ",
"= = = = = F F F F F G G G r u r r t r r r y r r , > < 1 < 1 1 , , 1 1 , , D K K K D D K K D K D K K K D K K D D D K , 1 1 < , < , , , i i i H H H H H J J J J J ",
"= = = = = F F F F F G G G r r y y y r u t r r r , 1 1 < , < 1 , , 1 > , , 1 , , 1 > , , < , < , < , < , , > < , < , , < , , , , , , , i i i H H H H H J J J J J ",
"L L L L L P P P P P I I I r r y u y t r u u r r , , < < , 1 , 1 , 1 1 , < , , 1 < , , < , 1 < , , < < , , , , < < , 1 < < 1 , 1 < , 1 U U U 9 9 9 9 9 Y Y Y Y Y ",
"L L L L L P P P P P I I I r r y r u r r r r r y , < , , < < < > , , 1 < , < 1 , , > < 1 1 , < > , , , 1 , < 1 1 1 < , 1 > , 1 , < , > U U U 9 9 9 9 9 Y Y Y Y Y ",
"L L L L L P P P P P I I I r y r y u u u r r r r , < , < , , > , < , 1 , , 1 , , , 1 , < , < , < 1 < < 1 < , , < > , , , , > < 1 , , , U U U 9 9 9 9 9 Y Y Y Y Y ",
"L L L L L P P P P P I I I I I T R E R W E W R R W R W R E E W R E R E E R E R W E E E W E E W R R R R R R R R W R E R R E E R R m U U U U U 9 9 9 9 9 Y Y Y Y Y ",
"L L L L L P P P P P I I I I I T R E E R E E R R W W E E R R R E E R R E W E E E W R E R R E R R E R E R R E W W E W E W E W R R m U U U U U 9 9 9 9 9 Y Y Y Y Y ",
"Q Q Q Q Q ! ! ! ! ! a a a a a ~ R R E R R E R E R E R W R W E E E E E R W E W R R E E E E R E R W W E W E R E R R R E W E W E R ^ / / / / / ( ( ( ( ( ) ) ) ) ) ",
"Q Q Q Q Q ! ! ! ! ! a a a a a ~ _ _ _ _ _ ` ` ' ` ` ` ` ` ` ' _ _ _ ` ` ` ' ` ] ] ] ] ` ` ] ` ' ` ] ` ` ' ' ] _ _ _ ` ` ` ' ] ` ^ / / / / / ( ( ( ( ( ) ) ) ) ) ",
"Q Q Q Q Q ! ! ! ! ! a a a a a ~ _ _ [ { _ ] ` ` ] ' ` ' ` ] ` _ _ _ ` ` ` ] ` ` ] ` ` ` ] ] ' ` ' ] ` ` ` ` ] _ { _ ' ] ` ` ' ' ^ / / / / / ( ( ( ( ( ) ) ) ) ) ",
"Q Q Q Q Q ! ! ! ! ! a a a a a ~ { _ _ { _ ] ` ] ` ] ` ] ` ` ' _ [ [ ' ` ` ` ` ' ` ` ' ` ` ` ` ' ] ` ` ' ` ] ' { _ _ ` ` ' ` ` ` ^ / / / / / ( ( ( ( ( ) ) ) ) ) ",
"Q Q Q Q Q ! ! ! ! ! a a a a a ~ [ _ _ _ _ ' ` ` ` ] ` ` ` ] ] _ { _ ` ` ] ' ' ] ` ' ` ` ` ` ` ` ] ' ' ' ` ` ` _ _ _ ` ' ] ` ] ] ^ / / / / / ( ( ( ( ( ) ) ) ) ) ",
"} } } } } | | | | |  . . . . ...{ _ _ [ [ ' ' ] ] ` ` ] ' ' ` _ _ _ ` ] ` ' ] ` ] ' ` ] ' ] ] ` ' ` ] ' ] ] ] _ [ _ ' ] ` ] ' ` % X.X.X.X.X.m m m m m o.o.o.o.o.",
"} } } } } | | | | |  . . . . ..._ _ _ _ { ` ' ' ] ] ' ` ] ` ` _ { _ ` ] ` ` ` ] ` ' ' ` ` ' ` ] ` ' ` ] ` ` ] { _ _ ] ' ] ] ' ] % X.X.X.X.X.m m m m m o.o.o.o.o.",
"} } } } } | | | | |  . . . . ...r y y r r 1 , 1 > > 1 > , < , _ _ [ ] ` ] ` ' ' ] ] ` ` ` ' ] ' ` ' ' ] ` ' ] r r y < , , 1 , 1 % X.X.X.X.X.m m m m m o.o.o.o.o.",
"} } } } } | | | | |  . . . . ...t r r r y 1 , 1 1 , , 1 < , , _ _ _ ` ` ] ` ` ` ` ` ] ` ] ` ` ] ` ` ` ] ' ` ' r y r 1 1 > < , < % X.X.X.X.X.m m m m m o.o.o.o.o.",
"} } } } } | | | | |  . . . . ...t r u r r 1 < 1 < 1 , , , , < _ { [ ] ] ` ` ' ] ` ` ` ` ' ] ' ] ] ] ' ` ` ` ` r u r , 1 , , < , % X.X.X.X.X.m m m m m o.o.o.o.o.",
"O.O.O.O.O.+.+.+.+.+.@.@.@.@.@.#.r r r r r 1 < < , , 1 1 , , , _ { _ ] ` ` ' ' ` ` ` ] ' ` ] ` ' ' ` ' ] ] ' ' u t r > , , < < < $.O.O.O.O.O.%.%.%.%.%.&.&.&.&.&.",
"O.O.O.O.O.+.+.+.+.+.@.@.@.@.@.#.y u r y r < , 1 < , , , , < , _ { _ ] ` ] ' ' ] ` ` ] ] ' ' ' ` ] ` ] ' ` ` ` r y r < 1 < > , 1 $.O.O.O.O.O.%.%.%.%.%.&.&.&.&.&.",
"O.O.O.O.O.+.+.+.+.+.@.@.@.@.@.#.r u t r t , , 1 < , , 1 , , 1 _ { _ ` ` ] ' ] ] ` ] ' ` ] ` ' ' ` ' ] ` ` ` ] r r r 1 < , 1 1 < $.O.O.O.O.O.%.%.%.%.%.&.&.&.&.&.",
"O.O.O.O.O.+.+.+.+.+.@.@.@.@.@.#.r y r r y , , , , , , , 1 , , { _ _ ] ] ` ] ' ` ` ` ` ] ` ` ] ' ] ` ` ] ] ' ] y r r < , < 1 < , $.O.O.O.O.O.%.%.%.%.%.&.&.&.&.&.",
"O.O.O.O.O.+.+.+.+.+.@.@.@.@.@.#.r r y y u 1 , < , , , , > < , _ _ _ ' ' ` ' ] ] ] ' ` ' ` ' ] ] ] ` ` ] ' ` ' r y r 1 1 , 1 < > $.O.O.O.O.O.%.%.%.%.%.&.&.&.&.&.",
"*.*.*.*.*.v v v v v =.=.=.=.=.-.r r r y r < 1 , , < > 1 1 , < _ _ _ ' ` ' ' ` ] ] ] ' ] ` ` ` ] ` ' ` ` ` ] ] r r u 1 < < , 1 1 ;.:.:.:.:.:.>.>.>.>.>.,.,.,.,.,.",
"*.*.*.*.*.v v v v v =.=.=.=.=.-.r r r t r , , 1 , > , , , , 1 <.<.1.2.3.2.2.2.2.2.2.3.4.5.6.2.3.2.2.3.2.2.2.2.t r y 1 < , , , < ;.:.:.:.:.:.>.>.>.>.>.,.,.,.,.,.",
"*.*.*.*.*.v v v v v =.=.=.=.=.-.y t r r r 1 1 , 1 , 1 , , , 1 <.7.<.3.2.2.2.8.2.2.2.2.6.5.4.2.2.2.2.3.2.2.2.3.y u r , < < 1 , , ;.:.:.:.:.:.>.>.>.>.>.,.,.,.,.,.",
"*.*.*.*.*.v v v v v =.=.=.=.=.-.r u t r r , 1 < , , 1 < 1 1 , 7.7.7.2.2.2.2.2.2.2.2.2.5.5.5.2.2.2.2.2.2.2.2.2.r u r < 1 , < , 1 ;.:.:.:.:.:.>.>.>.>.>.,.,.,.,.,.",
"*.*.*.*.*.v v v v v =.=.=.=.=.-.-.-.-.-.9.6.5.6.6.5.4.<.1.<.<.7.<.<.3.2.2.2.2.2.2.2.2.5.5.5.2.2.2.2.2.2.2.2.2.n n n n n ;.;.;.;.;.:.:.:.:.:.>.>.>.>.>.,.,.,.,.,.",
"0.0.0.0.0.q.q.q.q.q.w.w.w.w.w.e.e.e.e.e.=.5.5.r.r.6.5.7.<.7.<.<.<.<.2.2.3.2.3.2.2.2.2.5.5.5.2.2.2.2.2.2.2.2.2.t.t.t.t.t.2 2 2 2 2 % % % % % y.y.y.y.y.% % % % % ",
"0.0.0.0.0.q.q.q.q.q.w.w.w.w.w.e.e.e.e.e.=.5.5.r.5.6.5.<.<.7.<.1.<.7.2.2.2.2.2.2.2.2.2.r.5.5.3.2.2.3.2.3.2.8.2.t.t.t.t.t.2 2 2 2 2 % % % % % y.y.y.y.y.% % % % % ",
"0.0.0.0.0.q.q.q.q.q.w.w.w.w.w.e.e.e.e.e.=.6.5.r.5.4.5.2.8.2.2.3.2.2.3.2.2.3.2.2.2.3.2.5.r.5.2.2.3.8.2.2.2.2.2.t.t.t.t.t.2 2 2 2 2 % % % % % y.y.y.y.y.% % % % % ",
"0.0.0.0.0.q.q.q.q.q.w.w.w.w.w.e.e.e.e.e.=.4.r.r.5.5.6.2.2.2.2.2.2.2.2.2.2.2.2.2.2.2.3.5.5.4.2.2.2.2.2.8.2.2.2.t.t.t.t.t.2 2 2 2 2 % % % % % y.y.y.y.y.% % % % % ",
"0.0.0.0.0.q.q.q.q.q.w.w.w.w.w.e.e.e.e.e.=.5.4.6.4.4.5.3.3.2.2.2.3.2.2.2.2.2.2.2.2.2.8.5.4.6.2.2.2.2.2.2.2.2.3.t.t.t.t.t.2 2 2 2 2 % % % % % y.y.y.y.y.% % % % % ",
"u.u.u.u.u.m m m m m i.i.i.i.i.p.p.p.p.p.a.5.5.6.5.r.5.2.2.2.2.2.2.2.2.2.3.2.2.2.2.2.2.5.r.5.2.2.2.2.2.2.2.2.3.s.s.s.s.s.) ) ) ) ) d.d.d.d.d.f.f.f.f.f.g.g.g.g.g.",
"u.u.u.u.u.m m m m m i.i.i.i.i.p.p.p.p.p.a.5.5.5.5.5.5.2.2.2.2.2.8.2.2.2.2.2.2.2.2.2.2.5.5.5.2.3.2.2.2.3.3.2.2.s.s.s.s.s.) ) ) ) ) d.d.d.d.d.f.f.f.f.f.g.g.g.g.g.",
"u.u.u.u.u.m m m m m i.i.i.i.i.p.p.p.p.p.a.5.4.5.6.5.5.2.3.2.2.2.2.2.2.2.8.8.2.2.2.2.2.5.6.4.2.2.2.3.3.2.2.2.2.s.s.s.s.s.) ) ) ) ) d.d.d.d.d.f.f.f.f.f.g.g.g.g.g.",
"u.u.u.u.u.m m m m m i.i.i.i.i.p.p.p.p.p.a.5.r.6.5.5.6.2.2.2.2.8.3.2.2.2.8.2.3.3.2.2.2.5.5.5.2.2.2.2.2.3.2.2.2.s.s.s.s.s.) ) ) ) ) d.d.d.d.d.f.f.f.f.f.g.g.g.g.g.",
"u.u.u.u.u.m m m m m i.i.i.i.i.p.p.p.p.p.a.h.j.h.j.j.h.k.l.l.l.l.z.z.z.z.l.z.z.l.l.l.k.j.j.j.k.z.k.l.l.z.k.l.l.s.s.s.s.s.) ) ) ) ) d.d.d.d.d.f.f.f.f.f.g.g.g.g.g.",
"m m m m m x.x.x.x.x.c.c.c.c.c.M M M M M v.j.j.b.h.j.b.l.l.k.k.z.z.z.z.l.l.k.l.l.l.l.l.b.n.j.l.z.l.z.z.z.z.z.z.; ; ; ; ; m.m.m.m.m.M.M.M.M.M.F F F F F N.N.N.N.N.",
"m m m m m x.x.x.x.x.c.c.c.c.c.M M M M M v.j.j.b.j.j.n.z.l.l.z.z.k.B.l.l.l.l.z.l.l.l.l.h.b.h.z.z.l.l.l.l.l.l.l.; ; ; ; ; m.m.m.m.m.M.M.M.M.M.F F F F F N.N.N.N.N.",
"m m m m m x.x.x.x.x.c.c.c.c.c.M M M M M v.j.j.j.j.b.j.z.l.z.l.z.z.k.l.l.z.l.z.l.z.l.l.b.h.j.z.l.z.z.z.l.l.l.z.; ; ; ; ; m.m.m.m.m.M.M.M.M.M.F F F F F N.N.N.N.N.",
"m m m m m x.x.x.x.x.c.c.c.c.c.M M M M M v.b.j.j.j.j.b.k.z.l.z.l.l.l.l.l.l.z.l.l.z.z.l.j.j.b.l.k.z.z.l.z.z.z.l.; ; ; ; ; m.m.m.m.m.M.M.M.M.M.F F F F F N.N.N.N.N.",
"m m m m m x.x.x.x.x.c.c.c.c.c.M M M M M v.j.j.j.j.j.j.l.z.z.l.l.z.l.l.l.k.l.k.l.l.l.z.j.j.b.l.l.l.l.k.k.z.z.z.; ; ; ; ; m.m.m.m.m.M.M.M.M.M.F F F F F N.N.N.N.N."
};
