/* XPM */
static char *trapdoor1717787379[] = {
/* columns rows colors chars-per-pixel */
"80 80 41 1 ",
"  c #4A3C20",
". c #625029",
"X c #8B7141",
"o c #9C794A",
"O c #735D31",
"+ c #688026",
"@ c #596C2F",
"# c #647D29",
"$ c #B38C51",
"% c #62792B",
"& c #688028",
"* c #5F7333",
"= c #60782B",
"- c #69822B",
"; c #63792F",
": c #5A6D2F",
"> c #677F2C",
", c #63792B",
"< c #6D8533",
"1 c #627929",
"2 c #607432",
"3 c #5D7130",
"4 c #5F7626",
"5 c #5E722B",
"6 c #718C26",
"7 c #57692D",
"8 c #607433",
"9 c #6C8628",
"0 c #5F742C",
"q c #5E722F",
"w c #596C2D",
"e c #698325",
"r c #5B6F2F",
"t c #6B832F",
"y c #637C28",
"u c #657D2F",
"i c #5F7430",
"p c #677E25",
"a c #637A2B",
"s c #698323",
"d c #647D2B",
/* pixels */
"                                                                                ",
"                                                                                ",
"                                                                                ",
"                                                                                ",
"                                                                                ",
".....XXXXXoooooXXXXXXXXXXoooooooooooooooXXXXXoooooXXXXXXXXXXoooooXXXXXooooo.....",
".....XXXXXoooooXXXXXXXXXXoooooooooooooooXXXXXoooooXXXXXXXXXXoooooXXXXXooooo.....",
".....XXXXXoooooXXXXXXXXXXoooooooooooooooXXXXXoooooXXXXXXXXXXoooooXXXXXooooo.....",
".....XXXXXoooooXXXXXXXXXXoooooooooooooooXXXXXoooooXXXXXXXXXXoooooXXXXXooooo.....",
".....XXXXXoooooXXXXXXXXXXoooooooooooooooXXXXXoooooXXXXXXXXXXoooooXXXXXooooo.....",
"     OOOOO     ...............OOOOOoooooooooo     ...............OOOOOXXXXX     ",
"     OOOOO     ...............OOOOOoooooooooo     ...............OOOOOXXXXX     ",
"     OOOOO     ...............OOOOOoooooooooo     ...............OOOOOXXXXX     ",
"     OOOOO     ...............OOOOOoooooooooo     ...............OOOOOXXXXX     ",
"     OOOOO     ...............OOOOOoooooooooo     ...............OOOOOXXXXX     ",
".....ooooo.....+++++@@@@@#####$$$$$oooooXXXXX.....%%%%%&&&&&*****$$$$$XXXXX.....",
".....ooooo.....+++++@@@@@#####$$$$$oooooXXXXX.....%%%%%&&&&&*****$$$$$XXXXX.....",
".....ooooo.....+++++@@@@@#####$$$$$oooooXXXXX.....%%%%%&&&&&*****$$$$$XXXXX.....",
".....ooooo.....+++++@@@@@#####$$$$$oooooXXXXX.....%%%%%&&&&&*****$$$$$XXXXX.....",
".....ooooo.....+++++@@@@@#####$$$$$oooooXXXXX.....%%%%%&&&&&*****$$$$$XXXXX.....",
".....XXXXX.....=====-----;;;;;$$$$$oooooXXXXX.....:::::>>>>>,,,,,$$$$$XXXXX.....",
".....XXXXX.....=====-----;;;;;$$$$$oooooXXXXX.....:::::>>>>>,,,,,$$$$$XXXXX.....",
".....XXXXX.....=====-----;;;;;$$$$$oooooXXXXX.....:::::>>>>>,,,,,$$$$$XXXXX.....",
".....XXXXX.....=====-----;;;;;$$$$$oooooXXXXX.....:::::>>>>>,,,,,$$$$$XXXXX.....",
".....XXXXX.....=====-----;;;;;$$$$$oooooXXXXX.....:::::>>>>>,,,,,$$$$$XXXXX.....",
".....XXXXX.....<<<<<1111122222$$$$$oooooXXXXX.....333334444455555$$$$$ooooo.....",
".....XXXXX.....<<<<<1111122222$$$$$oooooXXXXX.....333334444455555$$$$$ooooo.....",
".....XXXXX.....<<<<<1111122222$$$$$oooooXXXXX.....333334444455555$$$$$ooooo.....",
".....XXXXX.....<<<<<1111122222$$$$$oooooXXXXX.....333334444455555$$$$$ooooo.....",
".....XXXXX.....<<<<<1111122222$$$$$oooooXXXXX.....333334444455555$$$$$ooooo.....",
"     .....OOOOO$$$$$ooooo$$$$$ooooooooooXXXXXOOOOO$$$$$$$$$$$$$$$XXXXX.....     ",
"     .....OOOOO$$$$$ooooo$$$$$ooooooooooXXXXXOOOOO$$$$$$$$$$$$$$$XXXXX.....     ",
"     .....OOOOO$$$$$ooooo$$$$$ooooooooooXXXXXOOOOO$$$$$$$$$$$$$$$XXXXX.....     ",
"     .....OOOOO$$$$$ooooo$$$$$ooooooooooXXXXXOOOOO$$$$$$$$$$$$$$$XXXXX.....     ",
"     .....OOOOO$$$$$ooooo$$$$$ooooooooooXXXXXOOOOO$$$$$$$$$$$$$$$XXXXX.....     ",
".....oooooXXXXXoooooooooooooooXXXXXoooooXXXXXoooooooooooooooooooooooooooooo.....",
".....oooooXXXXXoooooooooooooooXXXXXoooooXXXXXoooooooooooooooooooooooooooooo.....",
".....oooooXXXXXoooooooooooooooXXXXXoooooXXXXXoooooooooooooooooooooooooooooo.....",
".....oooooXXXXXoooooooooooooooXXXXXoooooXXXXXoooooooooooooooooooooooooooooo.....",
".....oooooXXXXXoooooooooooooooXXXXXoooooXXXXXoooooooooooooooooooooooooooooo.....",
".....oooooooooooooooXXXXXXXXXXXXXXXooooooooooXXXXXoooooXXXXXoooooXXXXXXXXXX.....",
".....oooooooooooooooXXXXXXXXXXXXXXXooooooooooXXXXXoooooXXXXXoooooXXXXXXXXXX.....",
".....oooooooooooooooXXXXXXXXXXXXXXXooooooooooXXXXXoooooXXXXXoooooXXXXXXXXXX.....",
".....oooooooooooooooXXXXXXXXXXXXXXXooooooooooXXXXXoooooXXXXXoooooXXXXXXXXXX.....",
".....oooooooooooooooXXXXXXXXXXXXXXXooooooooooXXXXXoooooXXXXXoooooXXXXXXXXXX.....",
".....XXXXX     ...............OOOOOoooooXXXXX     ...............OOOOOooooo.....",
".....XXXXX     ...............OOOOOoooooXXXXX     ...............OOOOOooooo.....",
".....XXXXX     ...............OOOOOoooooXXXXX     ...............OOOOOooooo.....",
".....XXXXX     ...............OOOOOoooooXXXXX     ...............OOOOOooooo.....",
".....XXXXX     ...............OOOOOoooooXXXXX     ...............OOOOOooooo.....",
".....ooooo.....666667777788888$$$$$oooooooooo.....9999900000qqqqq$$$$$ooooo.....",
".....ooooo.....666667777788888$$$$$oooooooooo.....9999900000qqqqq$$$$$ooooo.....",
".....ooooo.....666667777788888$$$$$oooooooooo.....9999900000qqqqq$$$$$ooooo.....",
".....ooooo.....666667777788888$$$$$oooooooooo.....9999900000qqqqq$$$$$ooooo.....",
".....ooooo.....666667777788888$$$$$oooooooooo.....9999900000qqqqq$$$$$ooooo.....",
"     XXXXX     wwwwweeeeerrrrrooooooooooXXXXX.....33333tttttyyyyyoooooXXXXX     ",
"     XXXXX     wwwwweeeeerrrrrooooooooooXXXXX.....33333tttttyyyyyoooooXXXXX     ",
"     XXXXX     wwwwweeeeerrrrrooooooooooXXXXX.....33333tttttyyyyyoooooXXXXX     ",
"     XXXXX     wwwwweeeeerrrrrooooooooooXXXXX.....33333tttttyyyyyoooooXXXXX     ",
"     XXXXX     wwwwweeeeerrrrrooooooooooXXXXX.....33333tttttyyyyyoooooXXXXX     ",
".....XXXXX.....uuuuuiiiiippppp$$$$$oooooXXXXX.....aaaaasssssddddd$$$$$ooooo.....",
".....XXXXX.....uuuuuiiiiippppp$$$$$oooooXXXXX.....aaaaasssssddddd$$$$$ooooo.....",
".....XXXXX.....uuuuuiiiiippppp$$$$$oooooXXXXX.....aaaaasssssddddd$$$$$ooooo.....",
".....XXXXX.....uuuuuiiiiippppp$$$$$oooooXXXXX.....aaaaasssssddddd$$$$$ooooo.....",
".....XXXXX.....uuuuuiiiiippppp$$$$$oooooXXXXX.....aaaaasssssddddd$$$$$ooooo.....",
".....oooooOOOOOooooo$$$$$$$$$$ooooooooooXXXXXOOOOOooooo$$$$$$$$$$$$$$$XXXXX.....",
".....oooooOOOOOooooo$$$$$$$$$$ooooooooooXXXXXOOOOOooooo$$$$$$$$$$$$$$$XXXXX.....",
".....oooooOOOOOooooo$$$$$$$$$$ooooooooooXXXXXOOOOOooooo$$$$$$$$$$$$$$$XXXXX.....",
".....oooooOOOOOooooo$$$$$$$$$$ooooooooooXXXXXOOOOOooooo$$$$$$$$$$$$$$$XXXXX.....",
".....oooooOOOOOooooo$$$$$$$$$$ooooooooooXXXXXOOOOOooooo$$$$$$$$$$$$$$$XXXXX.....",
".....XXXXXooooooooooooooooooooXXXXXoooooXXXXXoooooooooooooooooooooooooXXXXX.....",
".....XXXXXooooooooooooooooooooXXXXXoooooXXXXXoooooooooooooooooooooooooXXXXX.....",
".....XXXXXooooooooooooooooooooXXXXXoooooXXXXXoooooooooooooooooooooooooXXXXX.....",
".....XXXXXooooooooooooooooooooXXXXXoooooXXXXXoooooooooooooooooooooooooXXXXX.....",
".....XXXXXooooooooooooooooooooXXXXXoooooXXXXXoooooooooooooooooooooooooXXXXX.....",
"                                                                                ",
"                                                                                ",
"                                                                                ",
"                                                                                ",
"                                                                                "
};
