/* XPM */
static char *stone_brick1717786984[] = {
/* columns rows colors chars-per-pixel */
"80 80 7 1 ",
"  c #8B898B",
". c #9C999C",
"X c #5A595A",
"o c gray50",
"O c #787678",
"+ c #6A6D6A",
"@ c gray39",
/* pixels */
"     .......................................................               XXXXX",
"     .......................................................               XXXXX",
"     .......................................................               XXXXX",
"     .......................................................               XXXXX",
"     .......................................................               XXXXX",
".....ooooo     ooooo                         ooooooooooooooooooooooooo     XXXXX",
".....ooooo     ooooo                         ooooooooooooooooooooooooo     XXXXX",
".....ooooo     ooooo                         ooooooooooooooooooooooooo     XXXXX",
".....ooooo     ooooo                         ooooooooooooooooooooooooo     XXXXX",
".....ooooo     ooooo                         ooooooooooooooooooooooooo     XXXXX",
".....     ooooo     oooooooooooooooooooooooooooooo          OOOOOooooooooooXXXXX",
".....     ooooo     oooooooooooooooooooooooooooooo          OOOOOooooooooooXXXXX",
".....     ooooo     oooooooooooooooooooooooooooooo          OOOOOooooooooooXXXXX",
".....     ooooo     oooooooooooooooooooooooooooooo          OOOOOooooooooooXXXXX",
".....     ooooo     oooooooooooooooooooooooooooooo          OOOOOooooooooooXXXXX",
".....oooooOOOOOooooo          oooooOOOOOooooo     oooooOOOOOoooooOOOOOOOOOOXXXXX",
".....oooooOOOOOooooo          oooooOOOOOooooo     oooooOOOOOoooooOOOOOOOOOOXXXXX",
".....oooooOOOOOooooo          oooooOOOOOooooo     oooooOOOOOoooooOOOOOOOOOOXXXXX",
".....oooooOOOOOooooo          oooooOOOOOooooo     oooooOOOOOoooooOOOOOOOOOOXXXXX",
".....oooooOOOOOooooo          oooooOOOOOooooo     oooooOOOOOoooooOOOOOOOOOOXXXXX",
".....OOOOO+++++OOOOOOOOOOooooo     ooooooooooOOOOOOOOOOoooooOOOOO+++++oooooXXXXX",
".....OOOOO+++++OOOOOOOOOOooooo     ooooooooooOOOOOOOOOOoooooOOOOO+++++oooooXXXXX",
".....OOOOO+++++OOOOOOOOOOooooo     ooooooooooOOOOOOOOOOoooooOOOOO+++++oooooXXXXX",
".....OOOOO+++++OOOOOOOOOOooooo     ooooooooooOOOOOOOOOOoooooOOOOO+++++oooooXXXXX",
".....OOOOO+++++OOOOOOOOOOooooo     ooooooooooOOOOOOOOOOoooooOOOOO+++++oooooXXXXX",
"     OOOOO+++++ooooooooooOOOOOOOOOOOOOOOOOOOOooooo     OOOOO+++++oooooOOOOOXXXXX",
"     OOOOO+++++ooooooooooOOOOOOOOOOOOOOOOOOOOooooo     OOOOO+++++oooooOOOOOXXXXX",
"     OOOOO+++++ooooooooooOOOOOOOOOOOOOOOOOOOOooooo     OOOOO+++++oooooOOOOOXXXXX",
"     OOOOO+++++ooooooooooOOOOOOOOOOOOOOOOOOOOooooo     OOOOO+++++oooooOOOOOXXXXX",
"     OOOOO+++++ooooooooooOOOOOOOOOOOOOOOOOOOOooooo     OOOOO+++++oooooOOOOOXXXXX",
"+++++++++++++++++++++++++++++++++++++++++++++++++++++++++++++++++++++++++++XXXXX",
"+++++++++++++++++++++++++++++++++++++++++++++++++++++++++++++++++++++++++++XXXXX",
"+++++++++++++++++++++++++++++++++++++++++++++++++++++++++++++++++++++++++++XXXXX",
"+++++++++++++++++++++++++++++++++++++++++++++++++++++++++++++++++++++++++++XXXXX",
"+++++++++++++++++++++++++++++++++++++++++++++++++++++++++++++++++++++++++++XXXXX",
"@@@@@@@@@@XXXXXXXXXX@@@@@@@@@@XXXXXXXXXXXXXXX@@@@@@@@@@@@@@@@@@@@@@@@@@@@@@@@@@@",
"@@@@@@@@@@XXXXXXXXXX@@@@@@@@@@XXXXXXXXXXXXXXX@@@@@@@@@@@@@@@@@@@@@@@@@@@@@@@@@@@",
"@@@@@@@@@@XXXXXXXXXX@@@@@@@@@@XXXXXXXXXXXXXXX@@@@@@@@@@@@@@@@@@@@@@@@@@@@@@@@@@@",
"@@@@@@@@@@XXXXXXXXXX@@@@@@@@@@XXXXXXXXXXXXXXX@@@@@@@@@@@@@@@@@@@@@@@@@@@@@@@@@@@",
"@@@@@@@@@@XXXXXXXXXX@@@@@@@@@@XXXXXXXXXXXXXXX@@@@@@@@@@@@@@@@@@@@@@@@@@@@@@@@@@@",
"..............................     XXXXX     ...................................",
"..............................     XXXXX     ...................................",
"..............................     XXXXX     ...................................",
"..............................     XXXXX     ...................................",
"..............................     XXXXX     ...................................",
"OOOOO                    ooooooooooXXXXX.....     ooooo                    ooooo",
"OOOOO                    ooooooooooXXXXX.....     ooooo                    ooooo",
"OOOOO                    ooooooooooXXXXX.....     ooooo                    ooooo",
"OOOOO                    ooooooooooXXXXX.....     ooooo                    ooooo",
"OOOOO                    ooooooooooXXXXX.....     ooooo                    ooooo",
"     oooooooooo     ooooooooooOOOOOXXXXX.....oooooOOOOO     OOOOO     oooooooooo",
"     oooooooooo     ooooooooooOOOOOXXXXX.....oooooOOOOO     OOOOO     oooooooooo",
"     oooooooooo     ooooooooooOOOOOXXXXX.....oooooOOOOO     OOOOO     oooooooooo",
"     oooooooooo     ooooooooooOOOOOXXXXX.....oooooOOOOO     OOOOO     oooooooooo",
"     oooooooooo     ooooooooooOOOOOXXXXX.....oooooOOOOO     OOOOO     oooooooooo",
"ooooo          ooooooooooOOOOO+++++XXXXX.....OOOOOoooooOOOOOooooooooooooooo     ",
"ooooo          ooooooooooOOOOO+++++XXXXX.....OOOOOoooooOOOOOooooooooooooooo     ",
"ooooo          ooooooooooOOOOO+++++XXXXX.....OOOOOoooooOOOOOooooooooooooooo     ",
"ooooo          ooooooooooOOOOO+++++XXXXX.....OOOOOoooooOOOOOooooooooooooooo     ",
"ooooo          ooooooooooOOOOO+++++XXXXX.....OOOOOoooooOOOOOooooooooooooooo     ",
"ooooooooooooooooooooOOOOOoooooOOOOOXXXXX     OOOOOOOOOOooooo     oooooOOOOOOOOOO",
"ooooooooooooooooooooOOOOOoooooOOOOOXXXXX     OOOOOOOOOOooooo     oooooOOOOOOOOOO",
"ooooooooooooooooooooOOOOOoooooOOOOOXXXXX     OOOOOOOOOOooooo     oooooOOOOOOOOOO",
"ooooooooooooooooooooOOOOOoooooOOOOOXXXXX     OOOOOOOOOOooooo     oooooOOOOOOOOOO",
"ooooooooooooooooooooOOOOOoooooOOOOOXXXXX     OOOOOOOOOOooooo     oooooOOOOOOOOOO",
"OOOOOOOOOO+++++OOOOO++++++++++OOOOOXXXXX     ooooooooooOOOOOOOOOOooooooooooOOOOO",
"OOOOOOOOOO+++++OOOOO++++++++++OOOOOXXXXX     ooooooooooOOOOOOOOOOooooooooooOOOOO",
"OOOOOOOOOO+++++OOOOO++++++++++OOOOOXXXXX     ooooooooooOOOOOOOOOOooooooooooOOOOO",
"OOOOOOOOOO+++++OOOOO++++++++++OOOOOXXXXX     ooooooooooOOOOOOOOOOooooooooooOOOOO",
"OOOOOOOOOO+++++OOOOO++++++++++OOOOOXXXXX     ooooooooooOOOOOOOOOOooooooooooOOOOO",
"+++++++++++++++++++++++++++++++++++XXXXX++++++++++++++++++++++++++++++++++++++++",
"+++++++++++++++++++++++++++++++++++XXXXX++++++++++++++++++++++++++++++++++++++++",
"+++++++++++++++++++++++++++++++++++XXXXX++++++++++++++++++++++++++++++++++++++++",
"+++++++++++++++++++++++++++++++++++XXXXX++++++++++++++++++++++++++++++++++++++++",
"+++++++++++++++++++++++++++++++++++XXXXX++++++++++++++++++++++++++++++++++++++++",
"@@@@@@@@@@@@@@@@@@@@@@@@@@@@@@XXXXXXXXXXXXXXXXXXXX@@@@@@@@@@@@@@@@@@@@@@@@@@@@@@",
"@@@@@@@@@@@@@@@@@@@@@@@@@@@@@@XXXXXXXXXXXXXXXXXXXX@@@@@@@@@@@@@@@@@@@@@@@@@@@@@@",
"@@@@@@@@@@@@@@@@@@@@@@@@@@@@@@XXXXXXXXXXXXXXXXXXXX@@@@@@@@@@@@@@@@@@@@@@@@@@@@@@",
"@@@@@@@@@@@@@@@@@@@@@@@@@@@@@@XXXXXXXXXXXXXXXXXXXX@@@@@@@@@@@@@@@@@@@@@@@@@@@@@@",
"@@@@@@@@@@@@@@@@@@@@@@@@@@@@@@XXXXXXXXXXXXXXXXXXXX@@@@@@@@@@@@@@@@@@@@@@@@@@@@@@"
};
